<?xml version="1.0" standalone="no"?>
<!DOCTYPE svg PUBLIC "-//W3C//DTD SVG 20010904//EN"
 "http://www.w3.org/TR/2001/REC-SVG-20010904/DTD/svg10.dtd">
<svg version="1.0" xmlns="http://www.w3.org/2000/svg"
 width="48.000000pt" height="48.000000pt" viewBox="0 0 48.000000 48.000000"
 preserveAspectRatio="xMidYMid meet">

<g transform="translate(0.000000,48.000000) scale(0.100000,-0.100000)"
fill="#000000" stroke="none">
<path d="M280 402 c0 -63 20 -82 83 -82 64 0 60 18 -5 22 l-53 3 -3 53 c-4 66
-22 69 -22 4z"/>
<path d="M197 224 c-11 -11 -8 -82 3 -89 6 -4 10 7 10 27 l0 32 30 -34 29 -35
1 48 c0 26 -4 47 -10 47 -5 0 -10 -10 -10 -22 -1 -22 -1 -22 -23 5 -13 15 -26
24 -30 21z"/>
<path d="M300 210 c-24 -24 -24 -29 -4 -58 17 -24 43 -29 62 -10 19 19 14 38
-10 37 -13 0 -17 -3 -10 -6 19 -7 14 -23 -7 -23 -21 0 -33 22 -25 45 7 18 26
19 42 3 9 -9 12 -8 12 4 0 9 -7 19 -16 22 -22 8 -22 8 -44 -14z"/>
<path d="M110 181 c0 -22 5 -43 10 -46 6 -3 10 0 10 8 0 8 12 18 26 21 19 5
25 12 22 29 -2 17 -11 23 -35 25 -32 3 -33 2 -33 -37z m50 14 c0 -8 -7 -15
-15 -15 -8 0 -15 7 -15 15 0 8 7 15 15 15 8 0 15 -7 15 -15z"/>
</g>
</svg>
