<svg width="135" height="80" viewBox="0 0 135 80" fill="none" xmlns="http://www.w3.org/2000/svg">
<path d="M17.911 17.7544C17.911 17.3412 17.7838 17.0657 17.5295 16.928C17.2858 16.7902 16.9256 16.7213 16.4488 16.7213H9.07415V15.577H16.4488C18.1865 15.577 19.0553 16.3028 19.0553 17.7544C19.0553 18.5703 18.8169 19.1584 18.3401 19.5186C17.8633 19.8789 17.2328 20.059 16.4488 20.059H9.07415V18.9147H16.4488C17.4236 18.9147 17.911 18.5279 17.911 17.7544ZM8.4384 26.925H7.29407V7.47129H16.4488C17.1693 7.47129 17.7838 7.6938 18.2924 8.13882C18.801 8.57324 19.0553 9.11892 19.0553 9.77586C19.0553 10.6447 18.8169 11.2751 18.3401 11.6672C17.8633 12.0486 17.2328 12.2394 16.4488 12.2394H9.07415V11.095H16.4488C17.4236 11.095 17.911 10.6553 17.911 9.77586C17.911 9.4156 17.7732 9.13482 17.4977 8.9335C17.2222 8.72158 16.8726 8.61563 16.4488 8.61563H8.4384V26.925ZM9.07415 13.3837H16.4488C17.4977 13.3837 18.3825 13.0711 19.103 12.446C19.8341 11.8102 20.1996 10.9202 20.1996 9.77586C20.1996 8.85403 19.8182 8.04876 19.0553 7.36004C18.303 6.67131 17.4342 6.32695 16.4488 6.32695H6.14973V26.925H5.0054V5.18262H16.4488C17.752 5.18262 18.8911 5.64353 19.8659 6.56536C20.8513 7.47659 21.344 8.54675 21.344 9.77586C21.344 10.7401 21.1162 11.5824 20.6605 12.3029C20.2155 13.0234 19.6116 13.5797 18.8487 13.9718C20.5122 14.5651 21.344 15.773 21.344 17.5955C21.344 19.0365 20.8672 20.1914 19.9136 21.0603C18.9599 21.9185 17.805 22.3477 16.4488 22.3477H9.07415V21.2033H16.4488C17.4977 21.2033 18.3825 20.8907 19.103 20.2656C19.8341 19.6299 20.1996 18.7398 20.1996 17.5955C20.1996 16.822 19.9241 16.1386 19.3732 15.5452C18.8222 14.9519 18.0116 14.6075 16.9415 14.5121C16.8355 14.5227 16.6713 14.528 16.4488 14.528H9.07415V13.3837ZM23.6326 9.77586C23.6326 11.2593 23.1082 12.5996 22.0592 13.7969C23.1082 14.9625 23.6326 16.2286 23.6326 17.5955C23.6326 18.9199 23.2989 20.1279 22.6313 21.2192C21.9744 22.3 21.095 23.1423 19.993 23.7463C18.9017 24.3397 17.7202 24.6363 16.4488 24.6363H9.07415V23.492H16.4488C18.1017 23.492 19.5215 22.941 20.7082 21.8391C21.8949 20.7265 22.4883 19.312 22.4883 17.5955C22.4883 16.9809 22.3294 16.3028 22.0115 15.5611C21.7042 14.8088 21.2751 14.2366 20.7241 13.8446C21.9002 12.7427 22.4883 11.3864 22.4883 9.77586C22.4883 8.22888 21.8844 6.88853 20.6764 5.75479C19.4685 4.61045 18.0593 4.03828 16.4488 4.03828H3.86106V26.925H2.71672V2.89395H16.4488C17.7096 2.89395 18.8911 3.20652 19.993 3.83167C21.1056 4.44622 21.9903 5.28858 22.6472 6.35874C23.3042 7.41831 23.6326 8.55735 23.6326 9.77586ZM23.3625 13.8605C24.3055 12.5996 24.777 11.2381 24.777 9.77586C24.777 8.34544 24.3955 7.01568 23.6326 5.78657C22.8803 4.54688 21.8632 3.56677 20.5811 2.84627C19.299 2.11516 17.9216 1.74961 16.4488 1.74961H1.57239V26.925H0.428052V0.605274H16.4488C18.1229 0.605274 19.6857 1.01851 21.1374 1.84497C22.5996 2.67144 23.7598 3.79458 24.618 5.21441C25.4869 6.62363 25.9213 8.14412 25.9213 9.77586C25.9213 11.3334 25.4816 12.7003 24.6022 13.8764C25.4816 15.0949 25.9213 16.3346 25.9213 17.5955C25.9213 19.0153 25.667 20.3186 25.1584 21.5053C24.6498 22.6814 23.9611 23.6615 23.0923 24.4456C22.234 25.2297 21.2327 25.8389 20.0884 26.2734C18.944 26.7078 17.7308 26.925 16.4488 26.925H9.07415V25.7807H16.4488C17.5613 25.7807 18.6262 25.5741 19.6434 25.1608C20.6605 24.737 21.5453 24.1648 22.2976 23.4443C23.0499 22.7238 23.6485 21.855 24.0936 20.8378C24.5492 19.8206 24.777 18.7398 24.777 17.5955C24.777 17.0869 24.6551 16.4776 24.4114 15.7677C24.1783 15.0472 23.8287 14.4115 23.3625 13.8605ZM37.2375 12.2553C36.3475 13.1453 35.9025 14.2208 35.9025 15.4816C35.9025 16.7425 36.3475 17.8233 37.2375 18.7239C38.1382 19.614 39.2189 20.059 40.4798 20.059C41.7407 20.059 42.8162 19.614 43.7062 18.7239C44.6068 17.8233 45.0572 16.7425 45.0572 15.4816C45.0572 14.2208 44.6068 13.1453 43.7062 12.2553C42.8162 11.3546 41.7407 10.9043 40.4798 10.9043C39.2189 10.9043 38.1382 11.3546 37.2375 12.2553ZM36.427 19.5345C35.3144 18.4114 34.7581 17.0604 34.7581 15.4816C34.7581 13.9029 35.3144 12.5572 36.427 11.4447C37.5501 10.3215 38.9011 9.75996 40.4798 9.75996C42.0586 9.75996 43.4042 10.3215 44.5168 11.4447C45.6399 12.5572 46.2015 13.9029 46.2015 15.4816C46.2015 17.0604 45.6399 18.4114 44.5168 19.5345C43.4042 20.647 42.0586 21.2033 40.4798 21.2033C38.9011 21.2033 37.5501 20.647 36.427 19.5345ZM35.6164 10.6341C34.2813 11.9798 33.6138 13.5956 33.6138 15.4816C33.6138 17.3677 34.2813 18.9835 35.6164 20.3292C36.962 21.6748 38.5832 22.3477 40.4798 22.3477C42.3764 22.3477 43.9923 21.6748 45.3273 20.3292C46.673 18.9835 47.3458 17.3677 47.3458 15.4816C47.3458 13.5956 46.673 11.9798 45.3273 10.6341C43.9923 9.28845 42.3764 8.61563 40.4798 8.61563C38.5832 8.61563 36.962 9.28845 35.6164 10.6341ZM33.5343 19.5027C32.8244 18.2736 32.4695 16.9333 32.4695 15.4816C32.4695 14.03 32.8244 12.6897 33.5343 11.4606C34.2548 10.2315 35.2296 9.26196 36.4587 8.55205C37.6878 7.83154 39.0282 7.47129 40.4798 7.47129C41.9314 7.47129 43.2718 7.83154 44.5009 8.55205C45.73 9.26196 46.6995 10.2315 47.4094 11.4606C48.1299 12.6897 48.4902 14.03 48.4902 15.4816C48.4902 16.9333 48.1299 18.2736 47.4094 19.5027C46.6995 20.7318 45.73 21.7066 44.5009 22.4271C43.2718 23.137 41.9314 23.492 40.4798 23.492C39.0282 23.492 37.6878 23.137 36.4587 22.4271C35.2296 21.7066 34.2548 20.7318 33.5343 19.5027ZM32.0403 11.9374C31.5635 13.0605 31.3251 14.2419 31.3251 15.4816C31.3251 16.7213 31.5635 17.9081 32.0403 19.0418C32.5277 20.1649 33.1794 21.1397 33.9952 21.9662C34.8217 22.7821 35.7965 23.4337 36.9197 23.9211C38.0534 24.3979 39.2401 24.6363 40.4798 24.6363C41.7195 24.6363 42.9009 24.3979 44.0241 23.9211C45.1578 23.4337 46.1326 22.7821 46.9485 21.9662C47.775 21.1397 48.4266 20.1649 48.9034 19.0418C49.3908 17.9081 49.6345 16.7213 49.6345 15.4816C49.6345 14.2419 49.3908 13.0605 48.9034 11.9374C48.4266 10.8036 47.775 9.82883 46.9485 9.01297C46.1326 8.1865 45.1578 7.53486 44.0241 7.05806C42.9009 6.57066 41.7195 6.32695 40.4798 6.32695C39.2401 6.32695 38.0534 6.57066 36.9197 7.05806C35.7965 7.53486 34.8217 8.1865 33.9952 9.01297C33.1794 9.82883 32.5277 10.8036 32.0403 11.9374ZM30.9914 19.4868C30.451 18.2153 30.1808 16.8803 30.1808 15.4816C30.1808 14.083 30.451 12.748 30.9914 11.4765C31.5423 10.205 32.2734 9.11362 33.1847 8.20239C34.1065 7.28057 35.2032 6.54946 36.4746 6.00908C37.7461 5.45811 39.0812 5.18262 40.4798 5.18262C41.8784 5.18262 43.2135 5.45811 44.485 6.00908C45.7565 6.54946 46.8478 7.28057 47.7591 8.20239C48.6809 9.11362 49.412 10.205 49.9524 11.4765C50.5033 12.748 50.7788 14.083 50.7788 15.4816C50.7788 16.8803 50.5033 18.2153 49.9524 19.4868C49.412 20.7583 48.6809 21.855 47.7591 22.7768C46.8478 23.688 45.7565 24.4191 44.485 24.9701C43.2135 25.5105 41.8784 25.7807 40.4798 25.7807C39.0812 25.7807 37.7461 25.5105 36.4746 24.9701C35.2032 24.4191 34.1065 23.688 33.1847 22.7768C32.2734 21.855 31.5423 20.7583 30.9914 19.4868ZM29.9424 11.0473C29.3384 12.4566 29.0365 13.9347 29.0365 15.4816C29.0365 17.0286 29.3384 18.512 29.9424 19.9318C30.5463 21.3411 31.3569 22.5596 32.3741 23.5874C33.4019 24.6045 34.6204 25.4151 36.0296 26.0191C37.4494 26.623 38.9328 26.925 40.4798 26.925C42.0268 26.925 43.5049 26.623 44.9141 26.0191C46.3339 25.4151 47.5524 24.6045 48.5696 23.5874C49.5974 22.5596 50.4133 21.3411 51.0172 19.9318C51.6212 18.512 51.9232 17.0286 51.9232 15.4816C51.9232 13.9347 51.6212 12.4566 51.0172 11.0473C50.4133 9.62752 49.5974 8.40901 48.5696 7.39182C47.5524 6.36404 46.3339 5.54817 44.9141 4.94421C43.5049 4.34026 42.0268 4.03828 40.4798 4.03828C38.9328 4.03828 37.4494 4.34026 36.0296 4.94421C34.6204 5.54817 33.4019 6.36404 32.3741 7.39182C31.3569 8.40901 30.5463 9.62752 29.9424 11.0473ZM28.8934 20.3769C28.2259 18.8193 27.8921 17.1876 27.8921 15.4816C27.8921 13.7757 28.2259 12.1493 28.8934 10.6023C29.5609 9.04475 30.4563 7.7044 31.5794 6.58125C32.7026 5.45811 34.0376 4.56277 35.5846 3.89524C37.1422 3.22771 38.7739 2.89395 40.4798 2.89395C42.1857 2.89395 43.8122 3.22771 45.3591 3.89524C46.9167 4.56277 48.2571 5.45811 49.3802 6.58125C50.5033 7.7044 51.3987 9.04475 52.0662 10.6023C52.7337 12.1493 53.0675 13.7757 53.0675 15.4816C53.0675 17.1876 52.7337 18.8193 52.0662 20.3769C51.3987 21.9238 50.5033 23.2589 49.3802 24.382C48.2571 25.5052 46.9167 26.4005 45.3591 27.068C43.8122 27.7356 42.1857 28.0693 40.4798 28.0693C38.7739 28.0693 37.1422 27.7356 35.5846 27.068C34.0376 26.4005 32.7026 25.5052 31.5794 24.382C30.4563 23.2589 29.5609 21.9238 28.8934 20.3769ZM66.7678 12.2553C65.8777 13.1453 65.4327 14.2208 65.4327 15.4816C65.4327 16.7425 65.8777 17.8233 66.7678 18.7239C67.6684 19.614 68.7492 20.059 70.01 20.059C71.2709 20.059 72.3464 19.614 73.2364 18.7239C74.1371 17.8233 74.5874 16.7425 74.5874 15.4816C74.5874 14.2208 74.1371 13.1453 73.2364 12.2553C72.3464 11.3546 71.2709 10.9043 70.01 10.9043C68.7492 10.9043 67.6684 11.3546 66.7678 12.2553ZM65.9572 19.5345C64.8446 18.4114 64.2884 17.0604 64.2884 15.4816C64.2884 13.9029 64.8446 12.5572 65.9572 11.4447C67.0803 10.3215 68.4313 9.75996 70.01 9.75996C71.5888 9.75996 72.9345 10.3215 74.047 11.4447C75.1701 12.5572 75.7317 13.9029 75.7317 15.4816C75.7317 17.0604 75.1701 18.4114 74.047 19.5345C72.9345 20.647 71.5888 21.2033 70.01 21.2033C68.4313 21.2033 67.0803 20.647 65.9572 19.5345ZM65.1466 10.6341C63.8116 11.9798 63.144 13.5956 63.144 15.4816C63.144 17.3677 63.8116 18.9835 65.1466 20.3292C66.4923 21.6748 68.1134 22.3477 70.01 22.3477C71.9067 22.3477 73.5225 21.6748 74.8576 20.3292C76.2032 18.9835 76.8761 17.3677 76.8761 15.4816C76.8761 13.5956 76.2032 11.9798 74.8576 10.6341C73.5225 9.28845 71.9067 8.61563 70.01 8.61563C68.1134 8.61563 66.4923 9.28845 65.1466 10.6341ZM63.0646 19.5027C62.3546 18.2736 61.9997 16.9333 61.9997 15.4816C61.9997 14.03 62.3546 12.6897 63.0646 11.4606C63.7851 10.2315 64.7599 9.26196 65.989 8.55205C67.2181 7.83154 68.5584 7.47129 70.01 7.47129C71.4617 7.47129 72.802 7.83154 74.0311 8.55205C75.2602 9.26196 76.2297 10.2315 76.9396 11.4606C77.6601 12.6897 78.0204 14.03 78.0204 15.4816C78.0204 16.9333 77.6601 18.2736 76.9396 19.5027C76.2297 20.7318 75.2602 21.7066 74.0311 22.4271C72.802 23.137 71.4617 23.492 70.01 23.492C68.5584 23.492 67.2181 23.137 65.989 22.4271C64.7599 21.7066 63.7851 20.7318 63.0646 19.5027ZM61.5706 11.9374C61.0938 13.0605 60.8554 14.2419 60.8554 15.4816C60.8554 16.7213 61.0938 17.9081 61.5706 19.0418C62.058 20.1649 62.7096 21.1397 63.5255 21.9662C64.3519 22.7821 65.3267 23.4337 66.4499 23.9211C67.5836 24.3979 68.7703 24.6363 70.01 24.6363C71.2497 24.6363 72.4312 24.3979 73.5543 23.9211C74.688 23.4337 75.6628 22.7821 76.4787 21.9662C77.3052 21.1397 77.9568 20.1649 78.4336 19.0418C78.921 17.9081 79.1647 16.7213 79.1647 15.4816C79.1647 14.2419 78.921 13.0605 78.4336 11.9374C77.9568 10.8036 77.3052 9.82883 76.4787 9.01297C75.6628 8.1865 74.688 7.53486 73.5543 7.05806C72.4312 6.57066 71.2497 6.32695 70.01 6.32695C68.7703 6.32695 67.5836 6.57066 66.4499 7.05806C65.3267 7.53486 64.3519 8.1865 63.5255 9.01297C62.7096 9.82883 62.058 10.8036 61.5706 11.9374ZM60.5216 19.4868C59.9812 18.2153 59.711 16.8803 59.711 15.4816C59.711 14.083 59.9812 12.748 60.5216 11.4765C61.0726 10.205 61.8037 9.11362 62.7149 8.20239C63.6367 7.28057 64.7334 6.54946 66.0049 6.00908C67.2763 5.45811 68.6114 5.18262 70.01 5.18262C71.4087 5.18262 72.7437 5.45811 74.0152 6.00908C75.2867 6.54946 76.3781 7.28057 77.2893 8.20239C78.2111 9.11362 78.9422 10.205 79.4826 11.4765C80.0336 12.748 80.3091 14.083 80.3091 15.4816C80.3091 16.8803 80.0336 18.2153 79.4826 19.4868C78.9422 20.7583 78.2111 21.855 77.2893 22.7768C76.3781 23.688 75.2867 24.4191 74.0152 24.9701C72.7437 25.5105 71.4087 25.7807 70.01 25.7807C68.6114 25.7807 67.2763 25.5105 66.0049 24.9701C64.7334 24.4191 63.6367 23.688 62.7149 22.7768C61.8037 21.855 61.0726 20.7583 60.5216 19.4868ZM59.4726 11.0473C58.8687 12.4566 58.5667 13.9347 58.5667 15.4816C58.5667 17.0286 58.8687 18.512 59.4726 19.9318C60.0766 21.3411 60.8871 22.5596 61.9043 23.5874C62.9321 24.6045 64.1506 25.4151 65.5598 26.0191C66.9797 26.623 68.4631 26.925 70.01 26.925C71.557 26.925 73.0351 26.623 74.4443 26.0191C75.8642 25.4151 77.0827 24.6045 78.0999 23.5874C79.1276 22.5596 79.9435 21.3411 80.5475 19.9318C81.1514 18.512 81.4534 17.0286 81.4534 15.4816C81.4534 13.9347 81.1514 12.4566 80.5475 11.0473C79.9435 9.62752 79.1276 8.40901 78.0999 7.39182C77.0827 6.36404 75.8642 5.54817 74.4443 4.94421C73.0351 4.34026 71.557 4.03828 70.01 4.03828C68.4631 4.03828 66.9797 4.34026 65.5598 4.94421C64.1506 5.54817 62.9321 6.36404 61.9043 7.39182C60.8871 8.40901 60.0766 9.62752 59.4726 11.0473ZM58.4236 20.3769C57.7561 18.8193 57.4223 17.1876 57.4223 15.4816C57.4223 13.7757 57.7561 12.1493 58.4236 10.6023C59.0912 9.04475 59.9865 7.7044 61.1096 6.58125C62.2328 5.45811 63.5679 4.56277 65.1148 3.89524C66.6724 3.22771 68.3041 2.89395 70.01 2.89395C71.7159 2.89395 73.3424 3.22771 74.8894 3.89524C76.4469 4.56277 77.7873 5.45811 78.9104 6.58125C80.0336 7.7044 80.9289 9.04475 81.5964 10.6023C82.264 12.1493 82.5977 13.7757 82.5977 15.4816C82.5977 17.1876 82.264 18.8193 81.5964 20.3769C80.9289 21.9238 80.0336 23.2589 78.9104 24.382C77.7873 25.5052 76.4469 26.4005 74.8894 27.068C73.3424 27.7356 71.7159 28.0693 70.01 28.0693C68.3041 28.0693 66.6724 27.7356 65.1148 27.068C63.5679 26.4005 62.2328 25.5052 61.1096 24.382C59.9865 23.2589 59.0912 21.9238 58.4236 20.3769ZM109.219 4.03828L102.846 15.577L109.124 26.925H107.853L101.575 15.577L107.948 4.03828H109.219ZM106.661 4.03828L100.287 15.577L106.565 26.925H105.294L99.0158 15.577L105.389 4.03828H106.661ZM104.102 4.03828L97.7284 15.577L104.006 26.925H102.735L96.4569 15.577L102.83 4.03828H104.102ZM101.543 4.03828L95.1537 15.577L101.447 26.925H100.176L93.8822 15.577L100.271 4.03828H101.543ZM92.0385 4.03828V26.925H93.1829V4.03828H92.0385ZM89.7498 4.03828V26.925H90.8942V4.03828H89.7498ZM87.4612 4.03828V26.925H88.6055V4.03828H87.4612ZM85.1725 4.03828V26.925H86.3168V4.03828H85.1725ZM43.8175 65.2578L42.6731 63.3665V51.6053H43.8175V65.2578ZM46.1061 69.0087L44.9618 67.0856V51.6053H46.1061V69.0087ZM48.3948 72.8073L47.2505 70.8683V51.6053H48.3948V72.8073ZM31.9927 64.2724L33.137 66.1638V77.925H31.9927V64.2724ZM29.704 60.5216L30.8483 62.4447V77.925H29.704V60.5216ZM27.4153 56.723L28.5596 58.662V77.925H27.4153V56.723ZM27.8126 51.6053H29.1477L45.3273 77.925H43.9923L27.8126 51.6053ZM30.5146 51.6053H31.8655L48.0293 77.925H46.6624L30.5146 51.6053ZM33.2006 51.6053H34.5356L49.5391 76.0655V51.6053H50.6835V77.925C50.6835 77.925 50.2332 77.925 49.3325 77.925L33.2006 51.6053ZM26.271 53.4648V77.925H25.1266V51.6053C25.1266 51.6053 25.5823 51.6053 26.4935 51.6053L42.6254 77.925H41.3063L26.271 53.4648ZM62.4447 63.2553C61.5547 64.1453 61.1096 65.2208 61.1096 66.4816C61.1096 67.7425 61.5547 68.8233 62.4447 69.7239C63.3453 70.614 64.4261 71.059 65.687 71.059C66.9479 71.059 68.0233 70.614 68.9134 69.7239C69.814 68.8233 70.2643 67.7425 70.2643 66.4816C70.2643 65.2208 69.814 64.1453 68.9134 63.2553C68.0233 62.3546 66.9479 61.9043 65.687 61.9043C64.4261 61.9043 63.3453 62.3546 62.4447 63.2553ZM61.6341 70.5345C60.5216 69.4114 59.9653 68.0604 59.9653 66.4816C59.9653 64.9029 60.5216 63.5572 61.6341 62.4447C62.7573 61.3215 64.1082 60.76 65.687 60.76C67.2658 60.76 68.6114 61.3215 69.724 62.4447C70.8471 63.5572 71.4087 64.9029 71.4087 66.4816C71.4087 68.0604 70.8471 69.4114 69.724 70.5345C68.6114 71.647 67.2658 72.2033 65.687 72.2033C64.1082 72.2033 62.7573 71.647 61.6341 70.5345ZM60.8236 61.6341C59.4885 62.9798 58.821 64.5956 58.821 66.4816C58.821 68.3677 59.4885 69.9835 60.8236 71.3292C62.1692 72.6748 63.7904 73.3477 65.687 73.3477C67.5836 73.3477 69.1995 72.6748 70.5345 71.3292C71.8802 69.9835 72.553 68.3677 72.553 66.4816C72.553 64.5956 71.8802 62.9798 70.5345 61.6341C69.1995 60.2885 67.5836 59.6156 65.687 59.6156C63.7904 59.6156 62.1692 60.2885 60.8236 61.6341ZM58.7415 70.5027C58.0316 69.2736 57.6766 67.9333 57.6766 66.4816C57.6766 65.03 58.0316 63.6897 58.7415 62.4606C59.462 61.2315 60.4368 60.262 61.6659 59.5521C62.895 58.8315 64.2354 58.4713 65.687 58.4713C67.1386 58.4713 68.479 58.8315 69.7081 59.5521C70.9372 60.262 71.9067 61.2315 72.6166 62.4606C73.3371 63.6897 73.6973 65.03 73.6973 66.4816C73.6973 67.9333 73.3371 69.2736 72.6166 70.5027C71.9067 71.7318 70.9372 72.7066 69.7081 73.4271C68.479 74.137 67.1386 74.492 65.687 74.492C64.2354 74.492 62.895 74.137 61.6659 73.4271C60.4368 72.7066 59.462 71.7318 58.7415 70.5027ZM57.2475 62.9374C56.7707 64.0605 56.5323 65.2419 56.5323 66.4816C56.5323 67.7213 56.7707 68.9081 57.2475 70.0418C57.7349 71.1649 58.3866 72.1397 59.2024 72.9662C60.0289 73.7821 61.0037 74.4337 62.1268 74.9211C63.2606 75.3979 64.4473 75.6363 65.687 75.6363C66.9267 75.6363 68.1081 75.3979 69.2313 74.9211C70.365 74.4337 71.3398 73.7821 72.1557 72.9662C72.9821 72.1397 73.6338 71.1649 74.1106 70.0418C74.598 68.9081 74.8417 67.7213 74.8417 66.4816C74.8417 65.2419 74.598 64.0605 74.1106 62.9374C73.6338 61.8036 72.9821 60.8288 72.1557 60.013C71.3398 59.1865 70.365 58.5349 69.2313 58.0581C68.1081 57.5707 66.9267 57.327 65.687 57.327C64.4473 57.327 63.2606 57.5707 62.1268 58.0581C61.0037 58.5349 60.0289 59.1865 59.2024 60.013C58.3866 60.8288 57.7349 61.8036 57.2475 62.9374ZM56.1985 70.4868C55.6582 69.2153 55.388 67.8803 55.388 66.4816C55.388 65.083 55.6582 63.748 56.1985 62.4765C56.7495 61.205 57.4806 60.1136 58.3919 59.2024C59.3137 58.2806 60.4103 57.5495 61.6818 57.0091C62.9533 56.4581 64.2884 56.1826 65.687 56.1826C67.0856 56.1826 68.4207 56.4581 69.6922 57.0091C70.9637 57.5495 72.055 58.2806 72.9662 59.2024C73.8881 60.1136 74.6192 61.205 75.1596 62.4765C75.7105 63.748 75.986 65.083 75.986 66.4816C75.986 67.8803 75.7105 69.2153 75.1596 70.4868C74.6192 71.7583 73.8881 72.855 72.9662 73.7768C72.055 74.688 70.9637 75.4191 69.6922 75.9701C68.4207 76.5105 67.0856 76.7807 65.687 76.7807C64.2884 76.7807 62.9533 76.5105 61.6818 75.9701C60.4103 75.4191 59.3137 74.688 58.3919 73.7768C57.4806 72.855 56.7495 71.7583 56.1985 70.4868ZM55.1496 62.0473C54.5456 63.4566 54.2436 64.9347 54.2436 66.4816C54.2436 68.0286 54.5456 69.512 55.1496 70.9318C55.7535 72.3411 56.5641 73.5596 57.5813 74.5874C58.6091 75.6045 59.8276 76.4151 61.2368 77.0191C62.6566 77.623 64.14 77.925 65.687 77.925C67.234 77.925 68.7121 77.623 70.1213 77.0191C71.5411 76.4151 72.7596 75.6045 73.7768 74.5874C74.8046 73.5596 75.6205 72.3411 76.2244 70.9318C76.8284 69.512 77.1304 68.0286 77.1304 66.4816C77.1304 64.9347 76.8284 63.4566 76.2244 62.0473C75.6205 60.6275 74.8046 59.409 73.7768 58.3918C72.7596 57.364 71.5411 56.5482 70.1213 55.9442C68.7121 55.3403 67.234 55.0383 65.687 55.0383C64.14 55.0383 62.6566 55.3403 61.2368 55.9442C59.8276 56.5482 58.6091 57.364 57.5813 58.3918C56.5641 59.409 55.7535 60.6275 55.1496 62.0473ZM54.1006 71.3769C53.4331 69.8193 53.0993 68.1876 53.0993 66.4816C53.0993 64.7757 53.4331 63.1493 54.1006 61.6023C54.7681 60.0448 55.6635 58.7044 56.7866 57.5813C57.9097 56.4581 59.2448 55.5628 60.7918 54.8952C62.3493 54.2277 63.9811 53.8939 65.687 53.8939C67.3929 53.8939 69.0193 54.2277 70.5663 54.8952C72.1239 55.5628 73.4642 56.4581 74.5874 57.5813C75.7105 58.7044 76.6059 60.0448 77.2734 61.6023C77.9409 63.1493 78.2747 64.7757 78.2747 66.4816C78.2747 68.1876 77.9409 69.8193 77.2734 71.3769C76.6059 72.9238 75.7105 74.2589 74.5874 75.382C73.4642 76.5052 72.1239 77.4005 70.5663 78.068C69.0193 78.7356 67.3929 79.0693 65.687 79.0693C63.9811 79.0693 62.3493 78.7356 60.7918 78.068C59.2448 77.4005 57.9097 76.5052 56.7866 75.382C55.6635 74.2589 54.7681 72.9238 54.1006 71.3769ZM91.9749 63.2553C91.0849 64.1453 90.6399 65.2208 90.6399 66.4816C90.6399 67.7425 91.0849 68.8233 91.9749 69.7239C92.8756 70.614 93.9563 71.059 95.2172 71.059C96.4781 71.059 97.5536 70.614 98.4436 69.7239C99.3442 68.8233 99.7946 67.7425 99.7946 66.4816C99.7946 65.2208 99.3442 64.1453 98.4436 63.2553C97.5536 62.3546 96.4781 61.9043 95.2172 61.9043C93.9563 61.9043 92.8756 62.3546 91.9749 63.2553ZM91.1644 70.5345C90.0518 69.4114 89.4955 68.0604 89.4955 66.4816C89.4955 64.9029 90.0518 63.5572 91.1644 62.4447C92.2875 61.3215 93.6385 60.76 95.2172 60.76C96.796 60.76 98.1416 61.3215 99.2542 62.4447C100.377 63.5572 100.939 64.9029 100.939 66.4816C100.939 68.0604 100.377 69.4114 99.2542 70.5345C98.1416 71.647 96.796 72.2033 95.2172 72.2033C93.6385 72.2033 92.2875 71.647 91.1644 70.5345ZM90.3538 61.6341C89.0187 62.9798 88.3512 64.5956 88.3512 66.4816C88.3512 68.3677 89.0187 69.9835 90.3538 71.3292C91.6994 72.6748 93.3206 73.3477 95.2172 73.3477C97.1139 73.3477 98.7297 72.6748 100.065 71.3292C101.41 69.9835 102.083 68.3677 102.083 66.4816C102.083 64.5956 101.41 62.9798 100.065 61.6341C98.7297 60.2885 97.1139 59.6156 95.2172 59.6156C93.3206 59.6156 91.6994 60.2885 90.3538 61.6341ZM88.2717 70.5027C87.5618 69.2736 87.2069 67.9333 87.2069 66.4816C87.2069 65.03 87.5618 63.6897 88.2717 62.4606C88.9922 61.2315 89.967 60.262 91.1962 59.5521C92.4253 58.8315 93.7656 58.4713 95.2172 58.4713C96.6688 58.4713 98.0092 58.8315 99.2383 59.5521C100.467 60.262 101.437 61.2315 102.147 62.4606C102.867 63.6897 103.228 65.03 103.228 66.4816C103.228 67.9333 102.867 69.2736 102.147 70.5027C101.437 71.7318 100.467 72.7066 99.2383 73.4271C98.0092 74.137 96.6688 74.492 95.2172 74.492C93.7656 74.492 92.4253 74.137 91.1962 73.4271C89.967 72.7066 88.9922 71.7318 88.2717 70.5027ZM86.7777 62.9374C86.3009 64.0605 86.0625 65.2419 86.0625 66.4816C86.0625 67.7213 86.3009 68.9081 86.7777 70.0418C87.2651 71.1649 87.9168 72.1397 88.7326 72.9662C89.5591 73.7821 90.5339 74.4337 91.6571 74.9211C92.7908 75.3979 93.9775 75.6363 95.2172 75.6363C96.4569 75.6363 97.6383 75.3979 98.7615 74.9211C99.8952 74.4337 100.87 73.7821 101.686 72.9662C102.512 72.1397 103.164 71.1649 103.641 70.0418C104.128 68.9081 104.372 67.7213 104.372 66.4816C104.372 65.2419 104.128 64.0605 103.641 62.9374C103.164 61.8036 102.512 60.8288 101.686 60.013C100.87 59.1865 99.8952 58.5349 98.7615 58.0581C97.6383 57.5707 96.4569 57.327 95.2172 57.327C93.9775 57.327 92.7908 57.5707 91.6571 58.0581C90.5339 58.5349 89.5591 59.1865 88.7326 60.013C87.9168 60.8288 87.2651 61.8036 86.7777 62.9374ZM85.7288 70.4868C85.1884 69.2153 84.9182 67.8803 84.9182 66.4816C84.9182 65.083 85.1884 63.748 85.7288 62.4765C86.2797 61.205 87.0108 60.1136 87.9221 59.2024C88.8439 58.2806 89.9406 57.5495 91.212 57.0091C92.4835 56.4581 93.8186 56.1826 95.2172 56.1826C96.6159 56.1826 97.9509 56.4581 99.2224 57.0091C100.494 57.5495 101.585 58.2806 102.496 59.2024C103.418 60.1136 104.149 61.205 104.69 62.4765C105.241 63.748 105.516 65.083 105.516 66.4816C105.516 67.8803 105.241 69.2153 104.69 70.4868C104.149 71.7583 103.418 72.855 102.496 73.7768C101.585 74.688 100.494 75.4191 99.2224 75.9701C97.9509 76.5105 96.6159 76.7807 95.2172 76.7807C93.8186 76.7807 92.4835 76.5105 91.212 75.9701C89.9406 75.4191 88.8439 74.688 87.9221 73.7768C87.0108 72.855 86.2797 71.7583 85.7288 70.4868ZM84.6798 62.0473C84.0758 63.4566 83.7739 64.9347 83.7739 66.4816C83.7739 68.0286 84.0758 69.512 84.6798 70.9318C85.2837 72.3411 86.0943 73.5596 87.1115 74.5874C88.1393 75.6045 89.3578 76.4151 90.767 77.0191C92.1868 77.623 93.6702 77.925 95.2172 77.925C96.7642 77.925 98.2423 77.623 99.6515 77.0191C101.071 76.4151 102.29 75.6045 103.307 74.5874C104.335 73.5596 105.151 72.3411 105.755 70.9318C106.359 69.512 106.661 68.0286 106.661 66.4816C106.661 64.9347 106.359 63.4566 105.755 62.0473C105.151 60.6275 104.335 59.409 103.307 58.3918C102.29 57.364 101.071 56.5482 99.6515 55.9442C98.2423 55.3403 96.7642 55.0383 95.2172 55.0383C93.6702 55.0383 92.1868 55.3403 90.767 55.9442C89.3578 56.5482 88.1393 57.364 87.1115 58.3918C86.0943 59.409 85.2837 60.6275 84.6798 62.0473ZM83.6308 71.3769C82.9633 69.8193 82.6295 68.1876 82.6295 66.4816C82.6295 64.7757 82.9633 63.1493 83.6308 61.6023C84.2983 60.0448 85.1937 58.7044 86.3168 57.5813C87.44 56.4581 88.775 55.5628 90.322 54.8952C91.8796 54.2277 93.5113 53.8939 95.2172 53.8939C96.9231 53.8939 98.5496 54.2277 100.097 54.8952C101.654 55.5628 102.994 56.4581 104.118 57.5813C105.241 58.7044 106.136 60.0448 106.804 61.6023C107.471 63.1493 107.805 64.7757 107.805 66.4816C107.805 68.1876 107.471 69.8193 106.804 71.3769C106.136 72.9238 105.241 74.2589 104.118 75.382C102.994 76.5052 101.654 77.4005 100.097 78.068C98.5496 78.7356 96.9231 79.0693 95.2172 79.0693C93.5113 79.0693 91.8796 78.7356 90.322 78.068C88.775 77.4005 87.44 76.5052 86.3168 75.382C85.1937 74.2589 84.2983 72.9238 83.6308 71.3769ZM134.427 55.0383L128.053 66.577L134.331 77.925H133.06L126.782 66.577L133.155 55.0383H134.427ZM131.868 55.0383L125.494 66.577L131.772 77.925H130.501L124.223 66.577L130.596 55.0383H131.868ZM129.309 55.0383L122.936 66.577L129.214 77.925H127.942L121.664 66.577L128.037 55.0383H129.309ZM126.75 55.0383L120.361 66.577L126.655 77.925H125.383L119.089 66.577L125.479 55.0383H126.75ZM117.246 55.0383V77.925H118.39V55.0383H117.246ZM114.957 55.0383V77.925H116.101V55.0383H114.957ZM112.668 55.0383V77.925H113.813V55.0383H112.668ZM110.38 55.0383V77.925H111.524V55.0383H110.38Z" fill="#D9B18D"/>
</svg>
