<svg width="45" height="45" viewBox="0 0 45 45" fill="none" xmlns="http://www.w3.org/2000/svg">
<path fill-rule="evenodd" clip-rule="evenodd" d="M5.0943 0.852001C3.90799 -0.304649 2.00865 -0.280607 0.852001 0.905701C-0.304649 2.09201 -0.280607 3.99135 0.905701 5.148L18.1991 22.0091L0.905706 38.8701C-0.280604 40.0268 -0.304644 41.9261 0.852002 43.1124C2.00865 44.2987 3.908 44.3228 5.0943 43.1661L22.4965 26.199L39.8987 43.1661C41.085 44.3228 42.9843 44.2987 44.141 43.1124C45.2976 41.9261 45.2736 40.0268 44.0873 38.8701L26.7939 22.0091L44.0873 5.148C45.2736 3.99135 45.2976 2.09201 44.141 0.905701C42.9843 -0.280607 41.085 -0.304649 39.8987 0.852001L22.4965 17.8191L5.0943 0.852001Z" fill="#D9B18D"/>
</svg>
