<svg width="44" height="44" viewBox="0 0 44 44" fill="none" xmlns="http://www.w3.org/2000/svg">
<g id="Group 55">
<path id="Subtract" fill-rule="evenodd" clip-rule="evenodd" d="M22 44C34.1503 44 44 34.1503 44 22C44 9.84974 34.1503 0 22 0C9.84974 0 0 9.84974 0 22C0 34.1503 9.84974 44 22 44ZM16 10C12.6863 10 10 12.6863 10 16V28C10 31.3137 12.6863 34 16 34H28C31.3137 34 34 31.3137 34 28V16C34 12.6863 31.3137 10 28 10H16Z" fill="#D9B18D"/>
<path id="Subtract_2" fill-rule="evenodd" clip-rule="evenodd" d="M12 16C12 13.7909 13.7909 12 16 12H28C30.2091 12 32 13.7909 32 16V28C32 30.2091 30.2091 32 28 32H16C13.7909 32 12 30.2091 12 28V16ZM29 22C29 25.866 25.866 29 22 29C18.134 29 15 25.866 15 22C15 18.134 18.134 15 22 15C25.866 15 29 18.134 29 22ZM28.5 17C29.3284 17 30 16.3284 30 15.5C30 14.6716 29.3284 14 28.5 14C27.6716 14 27 14.6716 27 15.5C27 16.3284 27.6716 17 28.5 17Z" fill="#D9B18D"/>
<circle id="Ellipse 25" cx="22" cy="22" r="4" fill="#D9B18D"/>
</g>
</svg>
