<svg width="193" height="193" viewBox="0 0 193 193" fill="none" xmlns="http://www.w3.org/2000/svg">
<g id="Group 11">
<path id="Vector" d="M96.5 192C149.243 192 192 149.243 192 96.5C192 43.7568 149.243 1 96.5 1C43.7568 1 1 43.7568 1 96.5C1 149.243 43.7568 192 96.5 192Z" stroke="#D9B18D" stroke-width="2.01106" stroke-miterlimit="10"/>
<path id="Vector_2" d="M41.0702 181.855V10.8741L138.782 181.855V8.04858" stroke="#D9B18D" stroke-width="2.01106" stroke-linecap="round" stroke-linejoin="round"/>
<path id="Vector_3" d="M49.6472 181.855V10.8741L147.359 181.855V8.04858" stroke="#D9B18D" stroke-width="2.01106" stroke-linecap="round" stroke-linejoin="round"/>
<path id="Vector_4" d="M108.933 105.51C113.373 105.51 116.972 99.6484 116.972 92.4179C116.972 85.1874 113.373 79.3259 108.933 79.3259C104.493 79.3259 100.894 85.1874 100.894 92.4179C100.894 99.6484 104.493 105.51 108.933 105.51Z" stroke="#D9B18D" stroke-width="1.50829" stroke-linecap="round" stroke-linejoin="round"/>
<path id="Vector_5" d="M111.462 105.51C115.902 105.51 119.502 99.6484 119.502 92.4179C119.502 85.1874 115.902 79.3259 111.462 79.3259C107.022 79.3259 103.423 85.1874 103.423 92.4179C103.423 99.6484 107.022 105.51 111.462 105.51Z" stroke="#D9B18D" stroke-width="1.50829" stroke-linecap="round" stroke-linejoin="round"/>
<path id="Vector_6" d="M124.012 125.635C128.452 125.635 132.051 119.773 132.051 112.543C132.051 105.312 128.452 99.4509 124.012 99.4509C119.572 99.4509 115.972 105.312 115.972 112.543C115.972 119.773 119.572 125.635 124.012 125.635Z" stroke="#D9B18D" stroke-width="1.50829" stroke-linecap="round" stroke-linejoin="round"/>
<path id="Vector_7" d="M126.54 125.635C130.98 125.635 134.579 119.773 134.579 112.543C134.579 105.312 130.98 99.4509 126.54 99.4509C122.1 99.4509 118.501 105.312 118.501 112.543C118.501 119.773 122.1 125.635 126.54 125.635Z" stroke="#D9B18D" stroke-width="1.50829" stroke-linecap="round" stroke-linejoin="round"/>
<path id="Vector_8" opacity="0.6" d="M117.531 138.184C118.682 154.679 109.512 169.204 94.6349 177.721L83.3428 177.907L77.9883 178.41L72.8199 177.615L68.2146 178.41L62.7445 176.182C80.6429 174.171 89.9793 159.822 88.7626 142.422C87.4453 123.624 74.3232 108.395 53.5389 108.395C52.3273 108.395 51.1257 108.45 49.9442 108.556L48.5917 89.2598C64.1221 88.8223 72.3323 77.299 71.4172 64.197C70.5072 51.2006 56.7365 35.3636 41.3369 34.5341L44.454 30.0092L45.1227 28.6919L49.909 25.8815L52.5887 22.9152L57.8979 22.5532C84.9868 26.2586 102.237 41.7034 103.825 64.4183C104.771 77.9325 98.2145 89.9636 87.2342 97.681C104.308 106.047 116.334 121.054 117.531 138.184Z" fill="#D9B18D"/>
<path id="Vector_9" d="M118.531 138.114C118.828 142.235 118.481 146.377 117.5 150.391C116.512 154.407 114.915 158.247 112.764 161.779C110.624 165.3 108.014 168.514 105.007 171.331C102.013 174.138 98.6986 176.581 95.1325 178.611C94.9797 178.7 94.8063 178.747 94.6297 178.747L83.3376 178.933H83.413L78.0586 179.436C77.9766 179.443 77.8941 179.443 77.8122 179.436L72.6488 178.637H72.9706L68.3854 179.376C68.2011 179.409 68.0113 179.389 67.8373 179.32L62.3823 177.103C62.1351 177.004 61.9374 176.81 61.8328 176.565C61.7281 176.32 61.7251 176.043 61.8243 175.796C61.8924 175.627 62.0051 175.48 62.1503 175.37C62.2955 175.26 62.4678 175.192 62.6488 175.173C66.8958 174.745 70.9999 173.403 74.68 171.241C78.3113 169.047 81.3413 165.985 83.4985 162.332C85.6436 158.639 87.0122 154.546 87.5206 150.306C88.0449 146.039 87.8956 141.716 87.0782 137.495C86.2862 133.278 84.7815 129.227 82.6287 125.515C80.478 121.817 77.6198 118.58 74.2174 115.987C70.811 113.41 66.9214 111.543 62.7795 110.497C60.7046 109.978 58.5883 109.642 56.4548 109.492C55.3889 109.396 54.313 109.391 53.2421 109.376C52.1712 109.361 51.1003 109.441 50.0294 109.532C49.79 109.567 49.5463 109.508 49.3494 109.368C49.1526 109.227 49.0178 109.016 48.9736 108.778L48.9384 108.602C48.6418 107.008 48.4356 105.404 48.2496 103.8C48.0636 102.197 47.9228 100.593 47.8022 98.9839C47.6815 97.3751 47.596 95.7662 47.5508 94.1574C47.5055 92.5485 47.5005 90.9296 47.591 89.3057V89.2353C47.5909 88.9738 47.6927 88.7225 47.8748 88.5348C48.0569 88.3471 48.3049 88.2376 48.5664 88.2298C51.939 88.1759 55.2676 87.4548 58.3602 86.1082C61.4085 84.7351 64.0675 82.6256 66.0978 79.9694C70.1199 74.6552 71.3517 67.4004 69.9037 60.8645C69.0849 57.573 67.7257 54.4402 65.8816 51.5935C64.0607 48.7127 61.8625 46.0885 59.3456 43.7906C56.8501 41.4902 54.0274 39.5723 50.9696 38.0994C47.9381 36.6264 44.6495 35.7556 41.2863 35.5353C41.1084 35.5248 40.9365 35.4672 40.7882 35.3684C40.6399 35.2696 40.5204 35.1332 40.4422 34.9731C40.3639 34.813 40.3296 34.635 40.3428 34.4572C40.3559 34.2795 40.4161 34.1085 40.5171 33.9616L43.6292 29.4368L43.5588 29.5524L44.2325 28.2352C44.3195 28.0636 44.4538 27.9205 44.6197 27.8229L49.406 25.0175L49.1647 25.2086L51.8444 22.2423C52.0189 22.0476 52.2623 21.9286 52.5231 21.9104L57.8323 21.5484C57.9009 21.5434 57.9698 21.5434 58.0385 21.5484C66.9223 22.7903 75.7559 25.3644 83.5488 30.0401C87.4674 32.3571 91.0247 35.2368 94.1068 38.5871C97.175 41.9671 99.6622 45.832 101.467 50.0249C103.235 54.2324 104.335 58.6904 104.725 63.2375C105.201 67.7924 104.822 72.3961 103.609 76.8121C102.357 81.2219 100.313 85.3669 97.5759 89.0443C94.8541 92.7029 91.5627 95.9009 87.8273 98.5163L87.6865 96.7918C95.7307 100.734 103.021 106.304 108.602 113.383C111.406 116.916 113.704 120.824 115.429 124.992C117.156 129.173 118.203 133.602 118.531 138.114ZM116.52 138.255C116.21 133.953 115.214 129.728 113.569 125.741C111.92 121.745 109.72 118 107.033 114.615C101.668 107.817 94.5995 102.423 86.8117 98.6018C86.6931 98.5434 86.5872 98.4623 86.5 98.3629C86.4129 98.2636 86.3461 98.1481 86.3036 98.0229C86.2611 97.8978 86.2437 97.7655 86.2524 97.6336C86.2611 97.5018 86.2957 97.3729 86.3542 97.2544C86.4288 97.1028 86.5393 96.9716 86.6759 96.8723C90.2343 94.3886 93.3711 91.3502 95.967 87.8728C98.5465 84.3948 100.472 80.4765 101.648 76.3093C102.804 72.1318 103.169 67.7752 102.724 63.4637C102.34 59.1372 101.285 54.8969 99.597 50.8947C97.8789 46.9076 95.5142 43.2316 92.5985 40.0149C89.6508 36.7919 86.246 34.0189 82.4929 31.7847C75.0068 27.29 66.4045 24.7711 57.7469 23.5645H57.948L52.6438 23.9265L53.3175 23.5997L50.6378 26.566C50.57 26.6436 50.4902 26.7098 50.4015 26.7621L45.6302 29.5524L46.0173 29.1452L45.3487 30.4574C45.3282 30.4977 45.3047 30.5363 45.2783 30.573L42.1662 35.0979L41.3919 33.5242C45.0154 33.7632 48.5582 34.7023 51.8243 36.2894C55.0655 37.8485 58.0563 39.8819 60.6981 42.3226C63.3499 44.7404 65.6649 47.5035 67.5809 50.5377C69.5369 53.5745 70.9759 56.9145 71.8394 60.422C72.2528 62.1958 72.4653 64.0105 72.4728 65.8317C72.4954 67.646 72.3388 69.458 72.0053 71.2415C71.3504 74.8448 69.8686 78.2472 67.6765 81.1811C65.4436 84.1013 62.5205 86.4214 59.1697 87.9332C55.8377 89.3947 52.2494 90.1824 48.6116 90.2509L49.587 89.175C49.9037 90.7688 50.1199 92.3675 50.3009 93.9714C50.4819 95.5752 50.6176 97.184 50.7232 98.7928C50.8288 100.402 50.9143 102.011 50.9545 103.624C50.9947 105.238 51.0098 106.852 50.9545 108.471L49.8635 107.541C50.983 107.44 52.1075 107.385 53.2371 107.375C54.3632 107.375 55.4894 107.375 56.6106 107.496C58.8628 107.657 61.0968 108.014 63.2873 108.562C67.6921 109.667 71.8296 111.647 75.4542 114.384C79.0682 117.133 82.1041 120.569 84.3884 124.494C86.6613 128.413 88.2494 132.691 89.0842 137.144C89.9388 141.573 90.0949 146.109 89.5467 150.587C88.9984 155.102 87.5357 159.457 85.2481 163.388C82.9092 167.331 79.6266 170.631 75.6956 172.991C71.7741 175.286 67.4055 176.712 62.8851 177.173L63.1516 175.243L68.6217 177.47L68.0686 177.41L72.6739 176.615C72.7821 176.598 72.8925 176.598 73.0007 176.615L78.1641 177.415H77.9178L83.2722 176.912H83.3476L94.6448 176.726L94.142 176.857C97.5627 174.892 100.74 172.531 103.609 169.823C106.483 167.135 108.978 164.069 111.025 160.708C113.066 157.353 114.583 153.706 115.525 149.894C116.46 146.089 116.798 142.163 116.525 138.255H116.52Z" fill="#D9B18D"/>
<path id="Vector_10" d="M46.2337 29.7729C50.4028 30.5409 54.477 31.7562 58.3855 33.3978C62.3097 35.0255 65.9936 37.1804 69.3358 39.8031C72.6936 42.4433 75.4785 45.7397 77.5208 49.4913C78.5255 51.3768 79.2922 53.3797 79.8033 55.4541C80.069 56.4875 80.2772 57.5349 80.4268 58.5913C80.5072 59.1192 80.5324 59.6522 80.5877 60.1801L80.6631 60.9795V61.7789C80.7635 66.0614 79.9956 70.32 78.4057 74.2977C76.8397 78.2888 74.4987 81.9301 71.5178 85.0116C68.5054 88.0759 64.8919 90.4842 60.9044 92.0855C56.9285 93.684 52.719 94.6247 48.4408 94.8708C48.3748 94.8748 48.3087 94.8657 48.2461 94.8441C48.1836 94.8225 48.126 94.7887 48.0765 94.7449C48.027 94.701 47.9866 94.6478 47.9577 94.5883C47.9288 94.5288 47.9119 94.4642 47.9079 94.3982C47.9039 94.3322 47.913 94.266 47.9346 94.2035C47.9562 94.141 47.9899 94.0833 48.0338 94.0338C48.0777 93.9844 48.1309 93.944 48.1904 93.9151C48.2499 93.8861 48.3145 93.8692 48.3805 93.8653C52.5551 93.6539 56.6676 92.7659 60.5575 91.2358C64.4457 89.7055 67.9766 87.3898 70.9295 84.4334C76.8398 78.3942 80.1157 70.2587 80.0396 61.809V61.0247L79.9793 60.2203C79.929 59.7175 79.9089 59.1796 79.8335 58.6617C79.6935 57.6258 79.4955 56.5985 79.2402 55.5848C78.7577 53.5506 78.023 51.5847 77.0532 49.7326C75.0687 46.0261 72.3506 42.7623 69.0643 40.1399C65.7714 37.5146 62.1345 35.3527 58.2548 33.7146C54.3779 32.0509 50.3322 30.8119 46.1884 30.0193C46.1713 30.0169 46.1549 30.011 46.1402 30.002C46.1254 29.993 46.1127 29.981 46.1028 29.9669C46.0929 29.9527 46.086 29.9367 46.0826 29.9197C46.0791 29.9028 46.0792 29.8853 46.0829 29.8684C46.0912 29.8364 46.1114 29.8086 46.1394 29.7909C46.1674 29.7732 46.2011 29.7667 46.2337 29.7729Z" fill="#D9B18D"/>
<path id="Vector_11" d="M71.4876 95.861C74.6356 94.3882 77.6172 92.5831 80.3815 90.4764C81.7694 89.4351 83.094 88.3119 84.3483 87.1129C85.6108 85.9242 86.7964 84.6564 87.8978 83.3171C90.1176 80.6525 91.9692 77.7017 93.403 74.5439C94.1016 72.9597 94.6879 71.3284 95.1577 69.662C95.2733 69.2448 95.3638 68.8224 95.4694 68.4051L95.6252 67.7717L95.7409 67.1332C95.8213 66.7108 95.9068 66.2885 95.9772 65.8612L96.1431 64.5741C96.3475 62.8543 96.4063 61.1203 96.3191 59.3906C96.2447 57.661 96.0362 55.9397 95.6956 54.2423C94.9845 50.8438 93.8318 47.553 92.2668 44.4535C90.6852 41.357 88.7391 38.4607 86.4699 35.8261C84.2126 33.1794 81.7019 30.7597 78.9737 28.6014C81.7433 30.7186 84.2994 33.1013 86.6057 35.7155C88.9131 38.3394 90.8918 41.2349 92.4981 44.3379C94.0965 47.4495 95.2797 50.7574 96.0174 54.177C96.3732 55.8901 96.5968 57.6281 96.6861 59.3755C96.785 61.1243 96.7379 62.8784 96.5453 64.6193C96.3593 66.3609 96.0314 68.0844 95.5649 69.7727C95.0855 71.4575 94.4856 73.1058 93.7701 74.7048C92.3122 77.8888 90.4317 80.8618 88.1793 83.5433C87.0643 84.8896 85.8653 86.1641 84.5896 87.3593C83.318 88.5621 81.9749 89.687 80.5675 90.7278C77.7622 92.8094 74.7398 94.5811 71.553 96.0118C71.5329 96.0206 71.5102 96.0213 71.4896 96.0138C71.4691 96.0063 71.4521 95.9912 71.4424 95.9716C71.4375 95.9614 71.4348 95.9504 71.4344 95.9391C71.4341 95.9279 71.4361 95.9167 71.4404 95.9062C71.4446 95.8958 71.451 95.8864 71.4592 95.8786C71.4673 95.8708 71.477 95.8648 71.4876 95.861Z" fill="#D9B18D"/>
<path id="Vector_12" d="M51.5834 26.1234C54.8556 26.5424 58.0787 27.2817 61.2063 28.3306C64.3368 29.3636 67.3661 30.6813 70.2561 32.2672C73.1577 33.8376 75.8976 35.69 78.436 37.7976C80.9897 39.8951 83.273 42.3017 85.2334 44.962C87.2029 47.6245 88.7417 50.5799 89.7935 53.7202C90.8089 56.8747 91.2665 60.1822 91.1459 63.4939C90.8438 70.1228 88.5269 76.5019 84.5044 81.7795C84.4926 81.7877 84.4786 81.7921 84.4642 81.7921C84.4498 81.7921 84.4358 81.7877 84.424 81.7795C84.4185 81.7743 84.4141 81.7681 84.4111 81.7611C84.4082 81.7542 84.4066 81.7468 84.4066 81.7392C84.4066 81.7317 84.4082 81.7243 84.4111 81.7173C84.4141 81.7104 84.4185 81.7042 84.424 81.699C88.2098 76.3798 90.6029 69.9997 90.7588 63.4688C90.833 60.2123 90.3535 56.9669 89.341 53.871C88.3017 50.7821 86.7833 47.8758 84.8413 45.2586C82.899 42.6446 80.6412 40.2805 78.1193 38.2199C75.606 36.1389 72.893 34.3117 70.0198 32.7649C67.1528 31.2058 64.155 29.9003 61.0605 28.8635C57.9704 27.8101 54.7844 27.0624 51.5482 26.6312C51.4823 26.6224 51.4225 26.5879 51.382 26.5351C51.3414 26.4823 51.3235 26.4156 51.332 26.3497C51.3394 26.2879 51.3689 26.2308 51.4151 26.1892C51.4614 26.1476 51.5212 26.1242 51.5834 26.1234Z" fill="#D9B18D"/>
<path id="Vector_13" d="M69.8836 100.633C74.0191 101.291 78.0334 102.562 81.7941 104.404C82.7142 104.906 83.6694 105.334 84.5543 105.912L85.9067 106.716L87.2089 107.591L87.8625 108.033L88.4909 108.506L89.7428 109.451C90.1501 109.783 90.5472 110.125 90.9495 110.457C91.3517 110.789 91.7539 111.13 92.1309 111.497C95.2323 114.342 97.9287 117.598 100.145 121.176C101.254 122.962 102.243 124.819 103.106 126.736C103.955 128.667 104.667 130.654 105.238 132.684C107.593 140.849 107.418 149.537 104.735 157.601C104.071 159.606 103.244 161.553 102.262 163.423C101.258 165.288 100.079 167.054 98.7423 168.697C96.0837 171.988 92.8016 174.721 89.0842 176.741C89.0135 176.769 88.935 176.77 88.8634 176.744C88.7919 176.718 88.7323 176.667 88.6959 176.601C88.6594 176.534 88.6486 176.456 88.6655 176.382C88.6824 176.308 88.7258 176.242 88.7876 176.198C96.0324 172.176 101.407 165.177 103.87 157.309C106.465 149.403 106.63 140.901 104.343 132.9C103.797 130.923 103.129 128.982 102.342 127.088C101.515 125.186 100.566 123.338 99.5015 121.558C97.3852 117.987 94.7941 114.719 91.7991 111.844C91.4371 111.467 91.0399 111.13 90.6528 110.789C90.2657 110.447 89.8786 110.095 89.4814 109.758L88.2597 108.793L87.6513 108.29L87.0128 107.837L85.7358 106.978L84.4185 106.153C83.5488 105.575 82.6086 105.117 81.7036 104.605C77.9835 102.709 73.9987 101.385 69.8836 100.678V100.633Z" fill="#D9B18D"/>
<path id="Vector_14" d="M79.5819 177.174C84.3497 173.703 88.3867 169.326 91.4622 164.293C92.9869 161.786 94.2505 159.13 95.2329 156.365C96.2208 153.6 96.8954 150.733 97.244 147.818C97.8373 141.972 97.1511 136.067 95.2329 130.512C93.3519 124.933 90.5478 119.709 86.9373 115.057C86.9252 115.046 86.9155 115.032 86.9089 115.016C86.9023 115 86.8989 114.984 86.8989 114.967C86.8989 114.95 86.9023 114.933 86.9089 114.918C86.9155 114.902 86.9252 114.888 86.9373 114.876C86.9486 114.864 86.9623 114.855 86.9774 114.848C86.9925 114.842 87.0088 114.838 87.0253 114.838C87.0418 114.838 87.0581 114.842 87.0733 114.848C87.0884 114.855 87.102 114.864 87.1133 114.876C90.9177 119.447 93.8689 124.665 95.8262 130.281C97.7266 135.902 98.6115 141.94 97.8875 147.878C97.1439 153.804 95.0973 159.493 91.8946 164.535C88.7263 169.567 84.5597 173.896 79.6523 177.255C79.6393 177.267 79.6223 177.273 79.6046 177.273C79.5869 177.273 79.5698 177.267 79.5568 177.255C79.5508 177.24 79.5501 177.224 79.5547 177.21C79.5593 177.195 79.5689 177.182 79.5819 177.174Z" fill="#D9B18D"/>
<path id="Vector_15" d="M135.243 121.12V182.025" stroke="#D9B18D" stroke-width="2.01106" stroke-linecap="round" stroke-linejoin="round"/>
<path id="Vector_16" d="M138.838 121.12V182.025" stroke="#D9B18D" stroke-width="2.01106" stroke-linecap="round" stroke-linejoin="round"/>
<path id="Vector_17" opacity="0.6" d="M164.081 172.976C163.918 174.954 163.511 176.904 162.87 178.783L160.803 179.472L160.034 179.949L156.902 180.749L156.002 181.598L152.769 182.604C155.147 179.487 156.434 175.062 156.434 170.899C156.434 163.071 147.158 156.033 138.863 154.69V147.652C145.836 145.64 151.588 141.116 153.443 133.383C154.192 130.231 154.111 127.541 153.443 125.339L155.112 126.546L157.379 130.311L157.591 131.548L158.722 134.167C158.231 137.712 156.873 141.081 154.768 143.975C152.663 146.87 149.877 149.2 146.655 150.759C156.716 153.685 165.031 161.508 164.081 172.976Z" fill="#D9B18D"/>
<path id="Vector_18" d="M164.609 173.021C164.442 175.042 164.027 177.034 163.372 178.953C163.344 179.03 163.3 179.1 163.241 179.158C163.183 179.215 163.113 179.259 163.035 179.285L160.974 179.969L161.085 179.919L160.315 180.396C160.268 180.424 160.217 180.446 160.165 180.462L157.012 181.261L157.244 181.135L156.344 181.985C156.286 182.041 156.215 182.083 156.137 182.106L152.905 183.111C152.798 183.143 152.684 183.141 152.578 183.104C152.473 183.068 152.382 182.999 152.317 182.908C152.253 182.817 152.218 182.708 152.219 182.597C152.22 182.485 152.256 182.377 152.322 182.287C154.137 179.764 155.29 176.825 155.675 173.74C155.785 172.972 155.851 172.198 155.871 171.422C155.903 170.664 155.851 169.906 155.715 169.16C155.425 167.66 154.856 166.229 154.036 164.941C152.329 162.34 150.059 160.156 147.394 158.551C144.759 156.882 141.824 155.745 138.752 155.203C138.653 155.187 138.561 155.143 138.487 155.075C138.414 155.007 138.363 154.918 138.34 154.821L138.305 154.68C138.167 154.102 138.076 153.513 138.033 152.92C137.978 152.337 137.958 151.749 137.958 151.161C137.958 150.572 137.983 149.989 138.038 149.401C138.083 148.808 138.172 148.22 138.305 147.641L138.34 147.5C138.36 147.413 138.404 147.334 138.466 147.269C138.528 147.205 138.606 147.158 138.692 147.133C141.02 146.483 143.235 145.483 145.263 144.167C147.283 142.855 149.018 141.151 150.366 139.154C151.69 137.145 152.607 134.895 153.066 132.533C153.594 130.2 153.544 127.773 152.92 125.464C152.896 125.398 152.886 125.327 152.892 125.256C152.897 125.186 152.917 125.117 152.951 125.055C152.985 124.993 153.031 124.939 153.087 124.896C153.143 124.853 153.208 124.822 153.277 124.806C153.355 124.782 153.437 124.777 153.517 124.79C153.597 124.803 153.673 124.834 153.739 124.881L155.393 126.083C155.451 126.124 155.499 126.177 155.534 126.238L157.807 130.004C157.838 130.061 157.86 130.122 157.872 130.185L158.083 131.427L158.048 131.306L159.174 133.926C159.215 134.015 159.229 134.115 159.214 134.212C158.692 137.836 157.313 141.283 155.192 144.268C153.052 147.253 150.189 149.645 146.872 151.221L146.796 150.215C149.305 150.942 151.71 151.99 153.95 153.332C156.207 154.673 158.231 156.371 159.943 158.36C161.665 160.364 162.968 162.692 163.774 165.208C164.559 167.733 164.843 170.387 164.609 173.021ZM163.553 172.93C163.773 170.439 163.505 167.928 162.764 165.54C162 163.159 160.767 160.956 159.139 159.059C157.493 157.152 155.549 155.523 153.382 154.237C151.221 152.939 148.901 151.925 146.479 151.221C146.372 151.193 146.275 151.133 146.203 151.048C146.132 150.963 146.088 150.858 146.08 150.747C146.071 150.636 146.097 150.525 146.154 150.43C146.211 150.335 146.297 150.26 146.399 150.215C149.549 148.714 152.267 146.437 154.297 143.599C156.323 140.756 157.644 137.471 158.149 134.016L158.189 134.303L157.063 131.683C157.044 131.645 157.032 131.605 157.027 131.563L156.811 130.326L156.882 130.512L154.609 126.746L154.755 126.897L153.086 125.69L153.905 125.107C154.58 127.584 154.637 130.189 154.071 132.694C153.588 135.192 152.618 137.57 151.215 139.692C149.801 141.82 147.973 143.64 145.841 145.047C143.721 146.421 141.406 147.467 138.973 148.149L139.355 147.646C139.49 148.225 139.58 148.813 139.627 149.406C139.682 149.994 139.697 150.582 139.707 151.166C139.717 151.749 139.707 152.342 139.632 152.925C139.589 153.519 139.497 154.107 139.355 154.685L138.913 154.182C142.129 154.742 145.204 155.929 147.963 157.676C150.767 159.367 153.154 161.668 154.946 164.408C155.837 165.808 156.454 167.364 156.766 168.994C156.917 169.812 156.975 170.646 156.937 171.477C156.915 172.292 156.848 173.104 156.736 173.911C156.324 177.177 155.1 180.289 153.176 182.961L152.598 182.131L155.831 181.125L155.625 181.246L156.525 180.396C156.589 180.333 156.668 180.288 156.756 180.266L159.908 179.466L159.757 179.527L160.532 179.049C160.566 179.028 160.604 179.011 160.642 178.999L162.709 178.31L162.372 178.637C163.003 176.792 163.4 174.874 163.553 172.93Z" fill="#D9B18D"/>
<path id="Vector_19" d="M138.431 150.115C140.843 149.556 143.167 148.67 145.339 147.48C147.521 146.294 149.515 144.791 151.257 143.021C152.969 141.217 154.308 139.091 155.193 136.766C156.068 134.42 156.577 131.952 156.701 129.451C156.703 129.432 156.708 129.413 156.716 129.396C156.725 129.379 156.737 129.363 156.751 129.351C156.766 129.338 156.783 129.329 156.801 129.322C156.819 129.316 156.838 129.314 156.857 129.315C156.896 129.318 156.931 129.335 156.958 129.363C156.984 129.391 156.998 129.428 156.998 129.466C156.931 132.006 156.473 134.521 155.641 136.922C154.784 139.337 153.458 141.558 151.739 143.458C148.191 147.184 143.658 149.827 138.667 151.08C138.603 151.096 138.537 151.1 138.471 151.091C138.406 151.082 138.343 151.06 138.286 151.026C138.229 150.992 138.179 150.948 138.139 150.895C138.099 150.842 138.07 150.782 138.054 150.718C138.037 150.654 138.034 150.587 138.043 150.522C138.052 150.456 138.074 150.393 138.108 150.336C138.142 150.279 138.186 150.23 138.239 150.19C138.292 150.15 138.352 150.121 138.416 150.105L138.431 150.115Z" fill="#D9B18D"/>
<path id="Vector_20" d="M155.952 180.954C157.408 178.855 158.353 176.444 158.712 173.915C158.88 172.652 158.88 171.372 158.712 170.109L158.561 169.164L158.32 168.239C158.161 167.62 157.956 167.013 157.706 166.424C157.592 166.124 157.457 165.832 157.304 165.549C157.158 165.268 157.033 164.971 156.867 164.695C156.52 164.157 156.213 163.589 155.811 163.081C155.046 162.038 154.18 161.073 153.227 160.2C151.308 158.445 149.129 156.998 146.766 155.911C146.755 155.906 146.746 155.899 146.737 155.89C146.729 155.881 146.723 155.87 146.719 155.859C146.715 155.847 146.714 155.835 146.714 155.823C146.715 155.811 146.718 155.799 146.723 155.788C146.729 155.777 146.736 155.768 146.745 155.76C146.754 155.751 146.765 155.745 146.776 155.741C146.788 155.737 146.8 155.736 146.812 155.736C146.824 155.737 146.836 155.74 146.847 155.745C149.265 156.783 151.508 158.191 153.493 159.918C154.493 160.781 155.402 161.743 156.208 162.789C156.613 163.314 156.991 163.859 157.339 164.423C157.52 164.7 157.656 165.006 157.817 165.298C157.983 165.585 158.131 165.882 158.259 166.188C158.534 166.795 158.764 167.422 158.948 168.063L159.225 169.023L159.411 170.029C159.62 171.36 159.652 172.712 159.506 174.051C159.196 176.727 158.266 179.293 156.791 181.547C156.755 181.603 156.708 181.651 156.654 181.688C156.599 181.726 156.537 181.752 156.472 181.766C156.407 181.779 156.34 181.78 156.275 181.767C156.21 181.755 156.148 181.73 156.092 181.693C155.981 181.62 155.904 181.506 155.876 181.376C155.849 181.246 155.874 181.111 155.947 180.999L155.952 180.954Z" fill="#D9B18D"/>
<path id="Vector_21" d="M158.798 179.878C159.537 178.477 160.054 176.969 160.331 175.409C160.639 173.842 160.732 172.24 160.608 170.648C160.35 167.449 159.244 164.378 157.405 161.749C155.546 159.101 153.081 156.935 150.215 155.434C147.323 153.921 144.189 152.922 140.955 152.483C140.921 152.478 140.89 152.46 140.869 152.432C140.849 152.405 140.84 152.371 140.844 152.337C140.849 152.304 140.866 152.274 140.892 152.254C140.919 152.233 140.952 152.223 140.985 152.226C144.303 152.498 147.542 153.383 150.537 154.836C153.567 156.305 156.191 158.493 158.179 161.211C159.684 163.261 160.745 165.601 161.297 168.084C161.848 170.566 161.877 173.136 161.382 175.63C161.215 176.459 160.99 177.276 160.708 178.073C160.432 178.886 160.078 179.671 159.652 180.416C159.586 180.532 159.476 180.617 159.347 180.652C159.217 180.687 159.08 180.669 158.964 180.602C158.848 180.536 158.763 180.426 158.728 180.296C158.693 180.167 158.711 180.03 158.778 179.914L158.798 179.878Z" fill="#D9B18D"/>
</g>
</svg>
