<svg width="242" height="100" viewBox="0 0 242 100" fill="none" xmlns="http://www.w3.org/2000/svg">
<g id="logovar4 2" clip-path="url(#clip0_203_3046)">
<path id="Vector" d="M1.24268 91.9846H230.409" stroke="#432918" stroke-opacity="0.75" stroke-width="2.4854" stroke-linecap="round" stroke-linejoin="round"/>
<path id="Vector_2" d="M11.3085 98.7573H240.475" stroke="#432918" stroke-opacity="0.75" stroke-width="2.4854" stroke-linecap="round" stroke-linejoin="round"/>
<path id="Vector_3" d="M1.24268 91.9846V1.24271L51.69 91.9846V1.24271" stroke="#432918" stroke-width="2.4854" stroke-linecap="round" stroke-linejoin="round"/>
<path id="Vector_4" d="M8.07751 91.9846V1.24271L58.5249 91.9846V1.24271" stroke="#432918" stroke-width="2.4854" stroke-linecap="round" stroke-linejoin="round"/>
<path id="Vector_5" d="M89.5302 91.9846C100.439 91.9846 109.283 78.3117 109.283 61.4453C109.283 44.5789 100.439 30.9059 89.5302 30.9059C78.6211 30.9059 69.7775 44.5789 69.7775 61.4453C69.7775 78.3117 78.6211 91.9846 89.5302 91.9846Z" stroke="#432918" stroke-width="2.4854" stroke-linecap="round" stroke-linejoin="round"/>
<path id="Vector_6" d="M95.7437 91.9846C106.653 91.9846 115.496 78.3117 115.496 61.4453C115.496 44.5789 106.653 30.9059 95.7437 30.9059C84.8346 30.9059 75.991 44.5789 75.991 61.4453C75.991 78.3117 84.8346 91.9846 95.7437 91.9846Z" stroke="#432918" stroke-width="2.4854" stroke-linecap="round" stroke-linejoin="round"/>
<path id="Vector_7" opacity="0.9" d="M46.0047 67.6091C46.0047 76.4819 40.1081 84.2923 31.1545 88.8717L24.6117 88.9711L21.5049 89.2383L18.5473 88.8095L15.8506 89.2383L12.7439 88.0391C23.1826 86.9517 29.1662 79.2407 29.1662 69.8832C29.1662 59.7739 22.1884 51.5845 10.1591 51.5845C9.45696 51.5845 8.76105 51.6155 8.07135 51.6715V41.2949C17.0747 41.0588 22.294 34.864 22.294 27.8179C22.294 20.7717 14.9745 12.3152 6.09546 11.874L8.10242 9.44454L8.54358 8.7362L11.4266 7.22633L13.0732 5.6046L16.18 5.41199C31.7137 7.43137 41.0339 15.7326 41.0339 27.9732C41.0339 35.243 36.7528 41.7112 30.0982 45.8618C39.6421 50.3418 46.0047 58.4193 46.0047 67.6091Z" fill="#694B35"/>
<path id="Vector_8" d="M47.2474 67.6091C47.2409 70.0299 46.8206 72.4319 46.0047 74.7111C45.1946 76.9751 44.0466 79.1035 42.5998 81.024C39.6955 84.794 35.9733 87.8555 31.7137 89.9777C31.5476 90.0613 31.3653 90.108 31.1793 90.1144L24.6365 90.2138H24.7235L21.6168 90.4809C21.5219 90.4934 21.4258 90.4934 21.331 90.4809L18.3733 90.0522H18.7461L16.0495 90.4809C15.8394 90.5095 15.6255 90.4838 15.4281 90.4064L12.3214 89.2072C12.0627 89.1058 11.8455 88.9207 11.7044 88.6814C11.5633 88.4421 11.5064 88.1624 11.5429 87.887C11.5794 87.6116 11.7071 87.3563 11.9056 87.162C12.1042 86.9677 12.3621 86.8455 12.6383 86.815C14.9308 86.5994 17.1648 85.9678 19.2308 84.9509C21.2595 83.9204 23.037 82.4568 24.4377 80.6636C25.8375 78.8617 26.8411 76.7846 27.3829 74.5682C27.9237 72.3324 28.0688 70.0192 27.8116 67.7333C27.5755 65.4546 26.8891 63.2454 25.7922 61.234C24.6938 59.2449 23.1706 57.5223 21.331 56.1887C19.4652 54.8639 17.3522 53.9278 15.1175 53.4361C12.8466 52.9346 10.5139 52.7734 8.19563 52.9577C8.02887 52.9703 7.86128 52.9492 7.70289 52.8955C7.54449 52.8419 7.39856 52.7568 7.27382 52.6454C7.14909 52.534 7.04812 52.3986 6.97697 52.2473C6.90581 52.0959 6.86593 51.9318 6.85972 51.7647C6.85665 51.7337 6.85665 51.7024 6.85972 51.6715C6.64595 50.8184 6.49846 49.95 6.41857 49.0742C6.33158 48.2105 6.29429 47.3469 6.28187 46.4832C6.26963 45.616 6.30698 44.7489 6.39371 43.8859C6.46439 43.0092 6.62047 42.1414 6.85972 41.2949L7.04613 40.6736C7.10473 40.4583 7.24381 40.2737 7.43462 40.1581C7.62543 40.0425 7.85338 40.0045 8.07135 40.0522C9.87414 40.013 11.6575 39.6706 13.3466 39.0394C15.003 38.4165 16.5056 37.4437 17.752 36.1874C18.9732 34.9218 19.8929 33.3968 20.4424 31.7261C20.7215 30.8911 20.911 30.0288 21.0079 29.1537C21.0513 28.7126 21.0513 28.2714 21.0824 27.8303C21.1135 27.3891 21.0389 26.9728 20.9892 26.5441C20.714 24.7848 20.0976 23.0962 19.1749 21.5733C18.2542 20.0035 17.095 18.5865 15.7388 17.373C13.086 14.8995 9.67388 13.3971 6.05818 13.1105C5.89388 13.1057 5.73217 13.0684 5.5824 13.0006C5.43263 12.9329 5.29779 12.8361 5.18567 12.7159C5.07356 12.5957 4.98641 12.4545 4.92927 12.3004C4.87212 12.1463 4.84612 11.9823 4.85276 11.8181C4.86826 11.5564 4.96613 11.3063 5.13237 11.1035L7.11448 8.67407L7.02127 8.80455L7.48107 8.09C7.60052 7.90472 7.76517 7.7529 7.95951 7.64884L10.8426 6.13896L10.563 6.33779L12.2344 4.74092C12.4452 4.53941 12.7201 4.41844 13.0111 4.39918L16.1178 4.20656C16.1881 4.20015 16.2588 4.20015 16.3291 4.20656C18.8316 4.53044 21.3042 5.05405 23.7232 5.77237C26.1701 6.46932 28.5252 7.45597 30.7382 8.71135C32.9948 9.97599 35.0442 11.579 36.815 13.4647C38.5735 15.4035 39.9539 17.6543 40.8848 20.1007C41.7953 22.5507 42.2664 25.142 42.2766 27.7557C42.2899 29.0653 42.1691 30.3728 41.9163 31.6578C41.8168 32.2791 41.618 32.9005 41.4627 33.5653C41.3073 34.2302 41.0712 34.808 40.8041 35.4294C39.819 37.83 38.4251 40.0416 36.6845 41.966C34.9529 43.8721 32.9665 45.5301 30.7817 46.8933L30.6512 44.7123C35.1559 46.7807 39.1218 49.862 42.2394 53.7157C43.789 55.6803 45.0256 57.8726 45.9053 60.215C46.788 62.5805 47.2425 65.0843 47.2474 67.6091ZM44.762 67.6091C44.7575 65.3791 44.3556 63.1677 43.5753 61.0787C42.7855 58.9754 41.6746 57.0073 40.2821 55.2442C37.4044 51.6979 33.7471 48.8635 29.5949 46.9616C29.3922 46.8669 29.2188 46.7192 29.093 46.5341C28.9673 46.349 28.8939 46.1334 28.8805 45.91C28.8671 45.6866 28.9143 45.4638 29.0171 45.265C29.1199 45.0662 29.2744 44.8989 29.4644 44.7807C33.4286 42.2953 36.8026 38.766 38.5175 34.4787C38.7598 33.9506 38.9027 33.3976 39.1016 32.857C39.3004 32.3164 39.4122 31.751 39.493 31.1856C39.7166 30.0625 39.8228 28.9193 39.8099 27.7743C39.7972 25.4613 39.3765 23.1686 38.5672 21.0016C37.7504 18.8479 36.5363 16.8666 34.9882 15.161C33.3905 13.467 31.5448 12.0256 29.5141 10.8861C27.4625 9.72117 25.2811 8.80148 23.0148 8.14592C20.7256 7.46824 18.3861 6.97374 16.0184 6.66711H16.2545L13.1478 6.86594L13.9245 6.52419L12.253 8.12107C12.1709 8.20164 12.0765 8.26874 11.9734 8.31989L9.09036 9.82978L9.56881 9.38862L9.12765 10.097L9.03445 10.2274L7.04613 12.6507L6.15138 10.6251C10.3461 10.9426 14.3079 12.6781 17.3854 15.5462C18.926 16.9285 20.2443 18.5402 21.2937 20.3244C22.3817 22.1344 23.1056 24.1396 23.4249 26.2272C23.4933 26.7616 23.5057 27.3021 23.543 27.8427C23.5802 28.3833 23.543 28.899 23.456 29.4271C23.34 30.4836 23.113 31.525 22.7787 32.5339C22.1077 34.5628 20.9885 36.4147 19.5042 37.9521C18.0084 39.4619 16.205 40.6317 14.2165 41.3819C12.2608 42.1138 10.1962 42.5128 8.10864 42.5625L9.32027 41.3198C9.55952 42.1662 9.71559 43.034 9.78628 43.9108C9.87301 44.7737 9.91035 45.6409 9.89812 46.508C9.89812 47.3717 9.84841 48.2354 9.76142 49.0991C9.68153 49.9749 9.53404 50.8432 9.32027 51.6963L7.97815 50.4536C10.5481 50.2444 13.1348 50.4224 15.6518 50.9818C18.2128 51.544 20.6331 52.6199 22.7663 54.1444C24.9044 55.6916 26.674 57.6925 27.9483 60.0038C29.204 62.3013 29.9917 64.825 30.266 67.4289C30.5527 70.0141 30.3887 72.6294 29.7813 75.1585C29.1516 77.7119 27.9914 80.1042 26.3763 82.1797C24.7488 84.2564 22.6877 85.9527 20.3368 87.1505C18.0025 88.3115 15.4755 89.0359 12.8806 89.2879L13.2037 86.8958L16.3104 88.095L15.6891 88.0204L18.3858 87.5917C18.5093 87.5729 18.635 87.5729 18.7586 87.5917L21.7162 88.0204H21.4304L24.5371 87.7532H24.6241L31.1669 87.6538L30.6201 87.7905C34.525 85.8287 37.9362 83.0101 40.599 79.5452C41.8956 77.8243 42.9261 75.9182 43.656 73.8909C44.3801 71.8753 44.7542 69.7508 44.762 67.6091Z" fill="#432918"/>
<path id="Vector_9" d="M9.1276 9.22086C11.4644 9.62147 13.7545 10.2585 15.9624 11.1222C18.1936 11.978 20.287 13.1566 22.1759 14.6204C24.107 16.0742 25.6605 17.9708 26.7056 20.1504L27.0784 20.983C27.1778 21.2688 27.2586 21.5609 27.3518 21.8467C27.5377 22.4236 27.681 23.0134 27.7805 23.6113C27.9646 24.8097 28.0064 26.0256 27.9048 27.2338C27.7894 28.4404 27.5478 29.6316 27.184 30.7879C26.8077 31.9373 26.3272 33.05 25.7487 34.1121C25.1604 35.168 24.4805 36.1701 23.7169 37.107C22.9455 38.0421 22.0907 38.9052 21.1631 39.6856C17.435 42.7924 12.5823 44.3706 7.78548 44.6564C7.70388 44.6613 7.62212 44.6501 7.54486 44.6234C7.46761 44.5967 7.39636 44.555 7.3352 44.5008C7.27404 44.4466 7.22416 44.3808 7.18841 44.3073C7.15267 44.2338 7.13175 44.1539 7.12685 44.0724C7.12195 43.9908 7.13318 43.909 7.15988 43.8317C7.18658 43.7545 7.22824 43.6832 7.28248 43.6221C7.33671 43.5609 7.40246 43.511 7.47597 43.4753C7.54949 43.4395 7.62932 43.4186 7.71092 43.4137C12.3089 43.2025 16.9255 41.7858 20.5169 38.8841C24.162 35.9802 26.5314 31.7696 27.1219 27.1468C27.2348 26.0029 27.214 24.8498 27.0597 23.7107C26.974 23.1431 26.8473 22.5824 26.6807 22.0331C26.5937 21.7597 26.5254 21.4801 26.4322 21.2129L26.0904 20.4176C25.1217 18.3063 23.6572 16.4604 21.8218 15.0367C19.9953 13.5747 17.9647 12.3878 15.7947 11.5136C13.6202 10.6254 11.3615 9.95921 9.05303 9.52531C9.01412 9.51475 8.98056 9.49002 8.95895 9.45598C8.93734 9.42194 8.92924 9.38104 8.93625 9.34133C8.94326 9.30162 8.96486 9.26597 8.99682 9.24138C9.02878 9.21678 9.06878 9.20503 9.10896 9.20843L9.1276 9.22086Z" fill="#432918"/>
<path id="Vector_10" d="M21.0389 44.7931L22.3375 44.1718L22.9589 43.8673L23.5802 43.5131L24.8229 42.811L26.0283 42.0281L26.6497 41.6367L27.2213 41.2079L28.3708 40.3442L29.452 39.406C29.6259 39.2444 29.8123 39.0953 29.9863 38.9276L30.4834 38.4181C31.8492 37.0838 33.047 35.5877 34.0499 33.963C35.0281 32.3324 35.7746 30.5737 36.2682 28.7374L36.5291 27.3394C36.5664 27.1033 36.6285 26.8734 36.6472 26.6373L36.6907 25.9227C36.6907 25.4505 36.7715 24.9783 36.7466 24.4998L36.6534 23.0769C36.621 22.6035 36.5482 22.1337 36.4359 21.6727C36.3365 21.2067 36.2806 20.7344 36.1377 20.2746L35.6965 18.9139C35.622 18.6902 35.5536 18.4603 35.4728 18.2366L35.1994 17.578C33.5755 14.1004 31.145 11.0606 28.1098 8.71133C31.2896 10.9587 33.8536 13.9691 35.566 17.4661L35.8581 18.1372C35.9451 18.3609 36.0196 18.5908 36.1004 18.8207L36.5788 20.2063C36.728 20.6661 36.7901 21.1507 36.9019 21.6292C37.0209 22.1022 37.0999 22.5844 37.1381 23.0707L37.2499 24.5309C37.281 25.0155 37.2499 25.5064 37.2064 25.9911L37.1691 26.7243C37.144 26.9683 37.1067 27.2109 37.0573 27.4512L36.8025 28.8928C36.3138 30.7867 35.5475 32.5979 34.5284 34.2674C33.5024 35.9244 32.2752 37.4479 30.8749 38.8033C28.0665 41.4967 24.7533 43.6084 21.1259 45.0168C21.1011 45.0253 21.074 45.0243 21.0498 45.014C21.0257 45.0037 21.0063 44.9847 20.9954 44.9609C20.9893 44.9492 20.9857 44.9363 20.9849 44.9231C20.9841 44.91 20.9862 44.8968 20.9908 44.8844C20.9955 44.8721 21.0028 44.8609 21.0122 44.8516C21.0215 44.8423 21.0327 44.835 21.0451 44.8304L21.0389 44.7931Z" fill="#432918"/>
<path id="Vector_11" d="M12.3711 7.17041C15.9933 7.59735 19.5085 8.67509 22.7476 10.3517C24.3736 11.18 25.9102 12.1731 27.3332 13.3156C28.7681 14.4521 30.043 15.7772 31.1234 17.2549C32.2154 18.7367 33.0301 20.4039 33.528 22.176C33.9989 23.9585 34.1192 25.8155 33.8822 27.6439C33.3311 31.2636 31.6904 34.6295 29.1786 37.2934C29.1662 37.3074 29.1488 37.316 29.1301 37.3171C29.1115 37.3183 29.0932 37.312 29.0792 37.2996C29.0651 37.2873 29.0566 37.2699 29.0555 37.2512C29.0543 37.2326 29.0606 37.2142 29.0729 37.2002C31.3853 34.4604 32.8663 31.1167 33.3416 27.5631C33.5306 25.8085 33.3894 24.034 32.9253 22.3313C32.4385 20.6351 31.6515 19.0399 30.6015 17.6215C29.5509 16.1931 28.3114 14.9139 26.9169 13.8188C25.524 12.7135 24.0231 11.7518 22.4369 10.9482C19.2631 9.31913 15.8331 8.24725 12.2965 7.77933C12.215 7.7685 12.1411 7.72579 12.091 7.66057C12.0409 7.59534 12.0187 7.51293 12.0293 7.43137C12.0416 7.3522 12.0841 7.28085 12.1477 7.23222C12.2114 7.18359 12.2914 7.16144 12.3711 7.17041Z" fill="#432918"/>
<path id="Vector_12" d="M19.9391 47.409C24.543 48.0417 28.862 50.0046 32.3661 53.0571C34.1275 54.5999 35.6387 56.4068 36.846 58.4131C38.0542 60.4371 38.9231 62.6451 39.4184 64.9497C40.4127 69.5987 39.8426 74.446 37.7967 78.7374C35.8133 83.0583 32.3608 86.535 28.054 88.5485C27.9633 88.593 27.8587 88.5997 27.7632 88.5671C27.6676 88.5345 27.5889 88.4652 27.5444 88.3746C27.4999 88.2839 27.4933 88.1793 27.5259 88.0838C27.5585 87.9882 27.6278 87.9096 27.7184 87.8651C31.7509 85.7942 34.9684 82.4256 36.8523 78.3025C37.7933 76.2626 38.4217 74.0925 38.7163 71.8653C38.9788 69.6379 38.8823 67.3827 38.4305 65.1858C37.9669 62.9753 37.1686 60.8486 36.0631 58.8791C34.9836 56.8902 33.6094 55.076 31.9871 53.4982C30.3466 51.9118 28.4811 50.576 26.4509 49.534C24.3894 48.5216 22.1917 47.8142 19.9267 47.4339L19.9391 47.409Z" fill="#432918"/>
<path id="Vector_13" d="M22.4307 88.5361C25.1157 86.7383 27.4788 84.5012 29.4209 81.9188C31.3547 79.3666 32.7423 76.4435 33.497 73.3317C34.1845 70.2115 34.1077 66.9713 33.2733 63.8872C32.4496 60.7758 31.0502 57.8463 29.1475 55.2504C29.1231 55.2157 29.1133 55.1728 29.1203 55.1309C29.1273 55.0891 29.1505 55.0517 29.1848 55.0267C29.2135 55.0001 29.2513 54.9853 29.2904 54.9853C29.3296 54.9853 29.3673 55.0001 29.3961 55.0267C31.5485 57.5374 33.1376 60.4804 34.0562 63.6573C34.9786 66.8627 35.0663 70.2506 34.3109 73.4995C33.509 76.7175 32.0117 79.7207 29.9242 82.2978C27.8805 84.8701 25.3672 87.0313 22.5177 88.6666C22.5027 88.681 22.4826 88.6891 22.4618 88.6891C22.441 88.6891 22.4209 88.681 22.4059 88.6666C22.3967 88.6573 22.39 88.6459 22.3862 88.6334C22.3824 88.6209 22.3817 88.6077 22.3841 88.5948C22.3866 88.582 22.3921 88.57 22.4002 88.5597C22.4083 88.5495 22.4188 88.5414 22.4307 88.5361Z" fill="#432918"/>
<path id="Vector_14" d="M188.747 1.24271V91.9846" stroke="#432918" stroke-width="2.4854" stroke-linecap="round" stroke-linejoin="round"/>
<path id="Vector_15" d="M193.184 1.24271V91.9846" stroke="#432918" stroke-width="2.4854" stroke-linecap="round" stroke-linejoin="round"/>
<path id="Vector_16" opacity="0.9" d="M224.332 78.5013C224.135 81.4286 223.633 84.3273 222.835 87.1505L220.287 88.1758L219.361 88.8654L215.447 90.1081L214.335 91.3508L210.345 92.8234C213.278 88.182 214.869 81.5708 214.869 75.3822C214.869 63.7194 203.424 53.231 193.184 51.2365V40.7481C201.789 37.7719 208.885 31.0302 211.166 19.4855C212.091 14.7881 211.992 10.7866 211.166 7.47485L213.222 9.27677L216.025 14.8689L216.286 16.733L217.677 20.635C216.348 31.5149 210.805 40.7916 202.808 45.371C215.242 49.7577 225.5 61.4142 224.332 78.5013Z" fill="#7D4E24"/>
<path id="Vector_17" d="M225.575 78.5883C225.367 81.6017 224.849 84.5855 224.028 87.4922C223.976 87.6743 223.884 87.8422 223.758 87.9833C223.632 88.1244 223.476 88.2348 223.301 88.3062L220.753 89.3314L221.033 89.1699L220.082 89.8844C219.968 89.9699 219.839 90.0351 219.703 90.0771L215.813 91.27L216.379 90.9034L215.267 92.1461C215.13 92.3023 214.957 92.4219 214.763 92.4941L210.774 93.9667C210.531 94.0558 210.267 94.067 210.018 93.9987C209.768 93.9304 209.546 93.786 209.383 93.5856C209.219 93.3853 209.123 93.1389 209.106 92.8809C209.089 92.6229 209.153 92.366 209.289 92.1461C211.451 88.478 212.819 84.3967 213.303 80.1665C213.44 79.104 213.545 78.0415 213.583 76.9728C213.62 76.4384 213.614 75.9041 213.626 75.3759L213.533 73.8288C213.501 73.3143 213.428 72.8033 213.316 72.3002C213.247 71.7863 213.134 71.2791 212.98 70.7841C212.831 70.2871 212.7 69.79 212.533 69.2929L211.942 67.8452C210.16 63.9962 207.502 60.6173 204.182 57.9781C200.927 55.2703 197.077 53.3711 192.948 52.4357C192.826 52.4718 192.696 52.4619 192.581 52.4081C192.467 52.3542 192.376 52.2601 192.326 52.1437L191.96 51.2178C191.638 50.3732 191.419 49.4928 191.307 48.5958C191.19 47.7268 191.134 46.8506 191.14 45.9737C191.144 45.0967 191.204 44.2209 191.32 43.3516C191.43 42.4574 191.639 41.5781 191.941 40.7295C191.9 40.5016 191.939 40.2664 192.052 40.0645C192.166 39.8626 192.346 39.7066 192.562 39.6235L192.767 39.5551C194.321 39.0049 195.828 38.3295 197.272 37.5357C198.7 36.7218 200.051 35.7819 201.311 34.7272C203.81 32.5822 205.852 29.9554 207.313 27.0039C208.768 24.0189 209.751 20.8267 210.227 17.5407C210.77 14.2916 210.677 10.9682 209.954 7.75446C209.875 7.43477 209.926 7.09687 210.097 6.81494C210.267 6.53301 210.542 6.3301 210.861 6.25078C211.056 6.20275 211.259 6.20254 211.454 6.25015C211.649 6.29775 211.829 6.39177 211.98 6.52418L214.036 8.3261C214.159 8.43055 214.259 8.55969 214.328 8.70512L217.131 14.2973C217.191 14.4159 217.231 14.5441 217.249 14.6763L217.51 16.5403L217.447 16.298L218.839 20.2001C218.904 20.381 218.928 20.5743 218.908 20.7655C218.296 25.8926 216.683 30.8497 214.161 35.3548C211.622 39.9328 207.915 43.7557 203.417 46.4335L203.219 44.178C206.692 45.4131 209.95 47.1847 212.874 49.4284C215.81 51.6768 218.342 54.4083 220.362 57.5059C222.385 60.6057 223.856 64.0323 224.711 67.6339C225.532 71.2236 225.823 74.9143 225.575 78.5883ZM223.089 78.4143C223.323 74.9943 223.051 71.5585 222.282 68.218C221.495 64.9058 220.146 61.7533 218.293 58.8977C214.485 53.1608 208.902 48.8304 202.398 46.5701C202.244 46.5152 202.103 46.4305 201.982 46.3208C201.861 46.2111 201.762 46.0785 201.693 45.9308C201.623 45.783 201.583 45.623 201.575 45.4597C201.567 45.2965 201.591 45.1333 201.647 44.9795C201.745 44.6988 201.942 44.4629 202.2 44.3147C206.311 41.8606 209.696 38.3591 212.011 34.168C214.377 29.9488 215.885 25.303 216.447 20.4983L216.515 21.0638L215.124 17.1617C215.094 17.0836 215.073 17.0023 215.061 16.9194L214.801 15.0553L214.919 15.4343L212.116 9.84219L212.408 10.2212L210.352 8.41929L212.377 7.1766C213.18 10.7052 213.287 14.3562 212.694 17.9259C212.182 21.4742 211.12 24.9208 209.544 28.1409C208.727 29.7488 207.766 31.2795 206.673 32.7141C205.554 34.1331 204.306 35.4456 202.945 36.6348C201.561 37.7988 200.076 38.8384 198.509 39.7415C196.932 40.6057 195.289 41.3413 193.594 41.9411L194.433 40.7668C194.735 41.6154 194.943 42.4947 195.054 43.3888C195.17 44.2582 195.23 45.134 195.234 46.0109C195.24 46.8878 195.184 47.7641 195.066 48.633C194.955 49.5301 194.736 50.4105 194.414 51.2551L193.407 50.0124C197.939 51.0211 202.165 53.0958 205.735 56.0644C209.361 58.9487 212.259 62.6432 214.198 66.851L214.856 68.4727C215.043 69.0257 215.198 69.5912 215.366 70.1566C215.533 70.7184 215.66 71.2915 215.745 71.8715C215.869 72.4467 215.95 73.0303 215.987 73.6175L216.093 75.3883C216.093 75.9538 216.093 76.5316 216.049 77.0971C216.006 78.2403 215.894 79.3774 215.751 80.5083C215.453 82.775 214.951 85.0105 214.254 87.1878C213.555 89.3951 212.589 91.5089 211.377 93.482L209.898 91.6491L213.887 90.1765L213.384 90.5244L214.496 89.2817C214.645 89.1077 214.842 88.9804 215.061 88.9151L218.951 87.7221L218.572 87.9147L219.523 87.2002C219.611 87.1381 219.705 87.084 219.802 87.0386L222.35 86.0134L221.623 86.8274C222.402 84.0814 222.893 81.2619 223.089 78.4143Z" fill="#432918"/>
<path id="Vector_18" d="M192.643 44.5694C195.924 43.6287 199.026 42.1483 201.821 40.1889C203.22 39.2072 204.539 38.1164 205.766 36.9268C207.01 35.751 208.144 34.4635 209.152 33.0807C211.143 30.2781 212.643 27.1582 213.589 23.8536C214.539 20.5402 215.094 17.126 215.242 13.6821C215.242 13.6344 215.261 13.5885 215.294 13.5547C215.328 13.5209 215.374 13.502 215.422 13.502C215.47 13.502 215.516 13.5209 215.549 13.5547C215.583 13.5885 215.602 13.6344 215.602 13.6821C215.528 17.1699 215.04 20.6364 214.148 24.009C213.253 27.4092 211.782 30.6309 209.799 33.5343C208.792 34.9779 207.656 36.3276 206.406 37.5668C205.169 38.8193 203.835 39.9724 202.417 41.0153C199.566 43.1095 196.384 44.7119 193.004 45.7562C192.926 45.7813 192.844 45.7908 192.762 45.784C192.68 45.7773 192.601 45.7545 192.528 45.717C192.455 45.6795 192.391 45.6279 192.338 45.5653C192.285 45.5028 192.245 45.4304 192.221 45.3523C192.196 45.274 192.187 45.1915 192.194 45.1096C192.201 45.0277 192.224 44.9481 192.262 44.8753C192.3 44.8024 192.353 44.7379 192.416 44.6854C192.479 44.6329 192.552 44.5935 192.631 44.5694H192.643Z" fill="#432918"/>
<path id="Vector_19" d="M214.272 90.4996C216.058 87.3403 217.214 83.8651 217.677 80.266C218.131 76.6499 217.807 72.9786 216.727 69.498C216.59 69.063 216.466 68.6219 216.31 68.1994L215.795 66.9567L215.534 66.3353L215.223 65.714L214.602 64.4713C213.694 62.8826 212.64 61.3827 211.451 59.9913C209.06 57.1941 206.19 54.8441 202.976 53.0509C202.963 53.0444 202.952 53.0352 202.942 53.024C202.933 53.0128 202.926 52.9998 202.922 52.9858C202.918 52.9718 202.917 52.9571 202.918 52.9426C202.92 52.9282 202.925 52.9142 202.933 52.9017C202.947 52.8781 202.97 52.8607 202.996 52.8526C203.022 52.8446 203.051 52.8466 203.076 52.8582C206.37 54.6007 209.328 56.915 211.812 59.6931C213.051 61.086 214.16 62.5897 215.124 64.1854L215.795 65.4281L216.124 66.0495L216.41 66.6708L216.969 67.9508C217.143 68.392 217.274 68.8393 217.429 69.2805C218.632 72.8503 219.056 76.6366 218.672 80.384C218.281 84.1388 217.162 87.7814 215.378 91.1085C215.301 91.2543 215.169 91.3635 215.011 91.4118C214.853 91.4602 214.682 91.4438 214.536 91.3664C214.391 91.2889 214.282 91.1567 214.233 90.9988C214.185 90.8409 214.201 90.6703 214.279 90.5244L214.272 90.4996Z" fill="#432918"/>
<path id="Vector_20" d="M217.783 88.9151C218.673 86.8865 219.299 84.7525 219.647 82.5649C220.028 80.3663 220.18 78.1341 220.101 75.9041C219.95 71.4322 218.837 67.0453 216.839 63.0421C215.84 61.0397 214.607 59.1626 213.166 57.45C211.714 55.749 210.06 54.232 208.239 52.9328C204.53 50.3421 200.281 48.6275 195.812 47.9185C195.771 47.9095 195.735 47.8853 195.71 47.8508C195.686 47.8162 195.676 47.7739 195.682 47.7321C195.688 47.6919 195.709 47.6557 195.742 47.6313C195.774 47.6069 195.815 47.5963 195.856 47.6016C198.135 47.8728 200.379 48.3894 202.548 49.1426C209.173 51.4755 214.658 56.2492 217.882 62.4891C220.029 66.6234 221.237 71.1808 221.418 75.8357C221.645 80.52 220.781 85.1929 218.895 89.4868C218.827 89.6367 218.702 89.7534 218.547 89.8111C218.393 89.8687 218.222 89.8627 218.072 89.7943C217.922 89.726 217.805 89.6008 217.748 89.4464C217.69 89.292 217.696 89.121 217.764 88.9711L217.783 88.9151Z" fill="#432918"/>
<path id="Vector_21" d="M146.694 91.9846C157.604 91.9846 166.447 78.3117 166.447 61.4453C166.447 44.5789 157.604 30.9059 146.694 30.9059C135.785 30.9059 126.942 44.5789 126.942 61.4453C126.942 78.3117 135.785 91.9846 146.694 91.9846Z" stroke="#432918" stroke-width="2.4854" stroke-linecap="round" stroke-linejoin="round"/>
<path id="Vector_22" d="M152.908 91.9846C163.817 91.9846 172.661 78.3117 172.661 61.4453C172.661 44.5789 163.817 30.9059 152.908 30.9059C141.999 30.9059 133.155 44.5789 133.155 61.4453C133.155 78.3117 141.999 91.9846 152.908 91.9846Z" stroke="#432918" stroke-width="2.4854" stroke-linecap="round" stroke-linejoin="round"/>
</g>
<defs>
<clipPath id="clip0_203_3046">
<rect width="241.717" height="100" fill="white"/>
</clipPath>
</defs>
</svg>
