<svg width="676.000000" height="676.000000" viewBox="0 0 676 676" fill="none" xmlns="http://www.w3.org/2000/svg" xmlns:xlink="http://www.w3.org/1999/xlink">
	<desc>
			Created with Pixso.
	</desc>
	<defs>
		<clipPath id="clip110_1748">
			<rect id="Search engines-bro (1) 1" width="676.000000" height="676.000000" fill="white" fill-opacity="0"/>
		</clipPath>
	</defs>
	<rect id="Search engines-bro (1) 1" width="676.000000" height="676.000000" fill="#FFFFFF" fill-opacity="0"/>
	<g clip-path="url(#clip110_1748)">
		<path id="Vector" d="M132.726 424.027C195.242 495.684 258.367 504.755 347.099 521.736C435.831 538.718 500.984 526.982 548.993 483.705C604.425 433.681 602.235 319.085 517.41 278.282C490.911 265.506 459.356 261.639 436.142 243.671C391.81 209.384 355.955 156.034 284.785 146.016C213.616 135.997 165.634 183.736 165.634 183.736C107.187 247.74 70.2094 352.317 132.726 424.027Z" fill="#917DD7" fill-opacity="1.000000" fill-rule="nonzero"/>
		<g opacity="0.700000">
			<path id="Vector" d="M132.726 424.027C195.242 495.684 258.367 504.755 347.099 521.736C435.831 538.718 500.984 526.982 548.993 483.705C604.425 433.681 602.235 319.085 517.41 278.282C490.911 265.506 459.356 261.639 436.142 243.671C391.81 209.384 355.955 156.034 284.785 146.016C213.616 135.997 165.634 183.736 165.634 183.736C107.187 247.74 70.2094 352.317 132.726 424.027Z" fill="#FFFFFF" fill-opacity="1.000000" fill-rule="nonzero"/>
		</g>
		<path id="Vector" d="M82.4044 538.609L609.684 538.609L609.684 560.241L82.4044 560.241L82.4044 538.609Z" fill="#917DD7" fill-opacity="1.000000" fill-rule="evenodd"/>
		<g opacity="0.500000">
			<path id="Vector" d="M82.4044 538.609L609.684 538.609L609.684 560.241L82.4044 560.241L82.4044 538.609Z" fill="#FFFFFF" fill-opacity="1.000000" fill-rule="evenodd"/>
		</g>
		<path id="Vector" d="M206.748 305.944C204.169 306.786 201.637 307.765 199.163 308.878C200.515 307.892 201.867 306.863 203.219 305.822C209.238 300.981 214.967 295.79 220.376 290.274C214.029 296.44 207.252 302.146 200.096 307.351C201.083 305.637 201.95 303.856 202.692 302.023C204.044 298.657 204.287 295.264 201.083 293.466C197.122 291.248 192.336 294.561 193.593 300.226C194.36 303.388 195.856 306.328 197.96 308.811C193.29 312.043 188.412 314.966 183.358 317.558L182.885 317.802C183.953 315.951 184.897 314.031 185.711 312.056C186.982 308.702 187.306 305.295 184.088 303.511C180.127 301.28 175.341 304.605 176.612 310.271C177.366 313.391 178.828 316.296 180.884 318.762C174.814 321.749 168.54 324.291 162.294 327.049L161.388 327.455C162.607 326.146 163.741 324.759 164.782 323.304C166.81 320.33 167.905 317.112 165.201 314.61C161.875 311.528 156.426 313.637 156.345 319.478C156.349 322.701 157.099 325.881 158.536 328.766C152.69 331.497 147.137 334.812 141.96 338.663L141.798 338.798C142.498 337.688 143.139 336.542 143.718 335.364C145.245 332.105 145.813 328.753 142.731 326.711C142.104 326.28 141.388 325.997 140.637 325.883C139.885 325.769 139.118 325.826 138.391 326.052C137.665 326.276 137 326.663 136.445 327.183C135.889 327.702 135.459 328.341 135.186 329.05C134.78 328.416 134.229 327.888 133.578 327.509C130.482 325.724 127.44 327.657 124.83 330.389C124.154 331.105 123.478 331.876 122.897 332.633C124.91 327.046 127.44 321.66 130.454 316.544C133.325 317.798 136.421 318.456 139.553 318.478C145.719 318.478 148.314 313.34 145.286 310.149C142.825 307.566 139.364 308.554 136.092 310.446C135.015 311.074 133.972 311.761 132.969 312.502C136.103 307.781 139.66 303.355 143.596 299.279C146.175 301.365 149.172 302.873 152.384 303.7C158.373 305.174 162.132 300.834 159.969 297.008C158.211 293.898 154.561 294.02 150.978 295.061C149.263 295.573 147.583 296.197 145.948 296.927C147.584 295.331 149.274 293.804 150.991 292.289C153.236 290.369 155.561 288.517 157.927 286.705C160.471 288.735 163.415 290.205 166.566 291.019C172.556 292.492 176.314 288.152 174.151 284.326C172.393 281.216 168.743 281.338 165.147 282.379C164.309 282.622 163.457 282.92 162.632 283.23C165.755 281 168.919 278.823 172.096 276.66L175.03 274.646C177.674 276.86 180.777 278.458 184.115 279.323C190.105 280.797 193.877 276.457 191.714 272.631C189.942 269.521 186.306 269.644 182.709 270.685C181.294 271.117 179.902 271.617 178.532 272.185L180.343 270.833C181.452 270.035 182.561 269.224 183.642 268.372C184.994 267.358 186.279 266.236 187.59 265.154C188.347 264.56 189.064 263.924 189.78 263.275C192.435 265.513 195.558 267.126 198.92 267.994C204.909 269.468 208.668 265.127 206.504 261.301C204.747 258.191 201.096 258.313 197.514 259.354C195.504 259.976 193.536 260.72 191.619 261.585C194.066 259.313 196.432 256.948 198.676 254.487C198.825 254.312 198.96 254.136 199.123 253.974C200.082 252.905 201.029 251.824 201.948 250.701C202.868 249.579 204.057 248.105 205.058 246.754C209.166 241.361 212.548 235.452 215.117 229.178C212.425 235.377 208.929 241.195 204.72 246.483C200.556 251.793 195.908 256.704 190.835 261.152L190.28 261.626C191.433 259.663 192.454 257.626 193.336 255.528C194.62 252.175 194.931 248.769 191.714 246.983C187.766 244.753 182.966 248.079 184.237 253.743C185.053 257.098 186.683 260.2 188.983 262.775L187.793 263.803L186.441 264.965C185.657 265.601 184.845 266.209 184.034 266.817C183.602 267.142 183.182 267.479 182.682 267.805C181.533 268.656 180.37 269.48 179.194 270.292L177.504 271.441L175.584 272.793C176.706 270.878 177.691 268.886 178.532 266.831C179.816 263.465 180.127 260.071 176.923 258.286C172.961 256.056 168.162 259.382 169.433 265.046C170.216 268.3 171.77 271.318 173.962 273.848L172.61 274.768L167.351 278.215L166.31 278.891L163.376 280.852L162.105 281.703C160.753 282.636 159.401 283.582 158.049 284.556C159.135 282.61 160.084 280.591 160.888 278.513C162.24 275.159 162.483 271.752 159.279 269.968C155.318 267.736 150.532 271.062 151.803 276.728C152.597 280.025 154.184 283.079 156.426 285.624C154.128 287.313 151.857 289.044 149.666 290.856C148.057 292.208 146.476 293.56 144.921 295.021C145.598 293.767 146.203 292.476 146.733 291.153C148.003 287.787 148.328 284.394 145.11 282.608C141.149 280.378 136.363 283.704 137.634 289.369C138.388 292.489 139.85 295.394 141.906 297.859C137.527 302.211 133.583 306.979 130.13 312.096C130.522 310.62 130.82 309.121 131.022 307.607C131.455 304.038 130.941 300.685 127.385 299.712C123.005 298.508 119.165 302.889 121.775 308.107C123.276 310.98 125.423 313.466 128.048 315.368C124.642 320.931 121.798 326.818 119.557 332.943C119.499 331.662 119.372 330.386 119.179 329.117C118.57 325.562 117.137 322.493 113.446 322.561C108.904 322.655 106.456 327.969 110.445 332.214C112.572 334.432 115.168 336.146 118.043 337.229C116.505 341.958 115.255 346.775 114.298 351.655C114.136 352.426 114.014 353.196 113.865 353.968C113.703 354.116 113.541 354.265 113.392 354.427C113.23 353.765 113.041 353.075 112.824 352.439C111.689 349.032 109.796 346.207 106.159 346.855C101.697 347.64 100.089 353.237 104.685 356.847C107.022 358.63 109.715 359.89 112.581 360.538C112.581 360.673 112.689 360.795 112.757 360.93C112.257 364.594 111.878 368.285 111.648 371.989C111.472 374.693 111.378 377.52 111.324 380.291C107.457 380.291 104.726 384.536 107.389 389.133C108.513 391.039 109.953 392.739 111.648 394.162C111.973 399.367 112.486 404.572 113.176 409.737C112.629 409.231 111.96 408.877 111.235 408.709C110.509 408.541 109.752 408.564 109.039 408.777C106.605 409.439 105.51 411.4 105.118 413.807C104.252 414.703 103.767 415.9 103.766 417.146C101.954 414.442 100.237 411.738 98.5743 408.886C101.113 406.939 103.217 404.485 104.753 401.68C107.66 396.271 104.374 391.526 100.143 392.675C96.6815 393.621 95.9244 397.137 96.0866 400.909C96.1407 402.34 96.2761 403.766 96.4922 405.181L94.7076 402.045C93.2204 399.341 92.0036 396.637 90.5434 393.933C90.1919 393.27 89.881 392.58 89.597 391.904C92.4454 390.47 94.964 388.457 96.9925 385.996C100.873 381.21 98.5338 375.951 94.1533 376.289C90.584 376.573 89.1644 379.885 88.5695 383.617C88.3377 385.244 88.1933 386.882 88.1369 388.524L86.866 385.591C84.1592 378.936 81.9317 372.095 80.2006 365.121C83.4247 363.979 86.3531 362.132 88.7723 359.713C93.1122 355.319 91.3141 349.871 86.9201 349.763C83.3508 349.682 81.6067 352.832 80.6333 356.522C80.1562 358.481 79.7995 360.469 79.5652 362.472C78.6188 358.47 77.8076 354.413 77.1316 350.304C76.6719 347.789 76.3745 345.233 76.0635 342.691C79.5289 342.005 82.7928 340.539 85.6086 338.406C90.4758 334.62 89.4077 328.941 85.0543 328.307C81.5256 327.752 79.3894 330.659 77.9563 334.16C77.1172 336.369 76.4129 338.627 75.8472 340.921C75.5768 337.974 75.2658 335.013 75.1306 332.052C74.725 325.938 74.725 319.805 75.1306 313.691C74.5135 319.8 74.3012 325.942 74.4952 332.078C74.4952 334.904 74.7386 337.717 74.9143 340.542C74.1419 338.621 73.2385 336.755 72.2103 334.958C70.3716 331.862 67.9109 329.55 64.5039 330.902C60.2992 332.633 59.9341 338.446 65.2069 340.988C68.2995 342.409 71.6919 343.054 75.0901 342.867C75.3334 345.396 75.5497 347.91 75.9283 350.411C76.4556 354.468 77.1316 358.361 77.9293 362.296C77.0641 360.788 76.1021 359.339 75.0495 357.956C72.8187 355.13 70.0877 353.129 66.9375 354.954C63.0032 357.212 63.3817 363.066 68.9385 364.864C72.0828 365.842 75.4131 366.063 78.6594 365.514C80.2018 372.562 82.2302 379.497 84.7298 386.267L85.5275 388.295C84.8122 387.348 84.0402 386.444 83.2156 385.591C80.7144 382.995 77.8076 381.277 74.7926 383.428C71.1017 386.132 72.0886 391.81 77.767 393.081C80.9009 393.715 84.1385 393.623 87.231 392.811C87.515 393.5 87.7989 394.162 88.1369 394.865C89.4889 397.65 90.6921 400.503 92.1118 403.234L93.288 405.601C92.585 404.992 91.8549 404.41 91.0977 403.87C88.1504 401.801 84.9597 400.665 82.4179 403.329C79.2813 406.614 81.3093 412.076 87.1499 412.252C90.1906 412.323 93.2096 411.723 95.992 410.494C97.6685 413.523 99.3855 416.511 101.251 419.444C101.941 420.566 102.603 421.676 103.387 422.784C102.327 421.814 101.207 420.911 100.034 420.08C97.0871 418.012 93.8964 416.876 91.3411 419.539C88.218 422.824 90.246 428.287 96.0866 428.463C99.4248 428.503 102.725 427.747 105.713 426.259C106.686 427.61 107.687 428.963 108.714 430.314C106.538 432.843 107.254 437.075 111.675 439.008C113.822 439.903 116.111 440.411 118.435 440.509C118.706 440.726 118.976 440.941 119.273 441.145L119.409 441.253C122.203 451.689 125.515 461.975 129.346 472.105C130.968 476.418 132.712 480.69 134.51 484.936L118.286 484.936L118.286 548.912L167.864 548.912L167.864 484.882L141.473 484.882C139.215 479.946 137.039 474.958 135.011 469.915C131.698 461.641 128.697 453.231 126.088 444.7C126.532 444.831 126.983 444.935 127.44 445.011C128.04 445.133 128.656 445.16 129.265 445.092L128.562 440.645L128.088 440.645C127.806 440.604 127.527 440.55 127.25 440.481C126.626 440.303 126.016 440.077 125.425 439.806L124.722 439.481C127.331 438.572 129.754 437.198 131.874 435.426C136.566 431.369 135.241 425.826 130.86 425.353C127.318 424.961 125.317 427.962 124.1 431.519C123.735 432.532 123.438 433.587 123.181 434.614C122.924 433.668 122.667 432.722 122.424 431.775C121.707 428.977 121.072 426.15 120.423 423.325C123.254 422.441 125.886 421.014 128.17 419.12C132.861 415.064 131.523 409.534 127.156 409.062C123.6 408.669 121.612 411.671 120.396 415.227C120.031 416.254 119.72 417.322 119.449 418.377C119.044 416.321 118.652 414.253 118.286 412.185C118.03 410.656 117.786 409.115 117.556 407.574C117.475 405.384 117.435 403.193 117.462 400.99C117.462 399.787 117.462 398.583 117.57 397.38C120.221 398.218 123.001 398.57 125.777 398.421C131.942 398.016 134.213 392.743 130.995 389.755C128.372 387.308 124.979 388.524 121.829 390.606C120.416 391.566 119.062 392.609 117.773 393.729C118.152 388.584 118.934 383.476 120.112 378.452C120.802 375.493 121.664 372.576 122.694 369.718C125.521 370.692 128.51 371.11 131.496 370.948C137.661 370.557 139.932 365.283 136.714 362.282C134.105 359.849 130.698 361.052 127.548 363.147C126.448 363.903 125.392 364.72 124.384 365.595C125.573 362.798 126.955 360.087 128.521 357.482C131.627 352.228 135.521 347.48 140.067 343.408C142.423 345.582 145.21 347.235 148.247 348.262C154.114 350.182 158.184 346.126 156.359 342.15C154.831 338.92 151.235 338.771 147.53 339.541C146.103 339.847 144.694 340.234 143.312 340.704L143.407 340.623C148.452 336.687 153.888 333.279 159.631 330.456C161.657 333.108 164.23 335.294 167.175 336.864C172.664 339.69 177.328 336.337 176.112 332.119C175.125 328.685 171.596 327.969 167.824 328.063C166.342 328.144 164.866 328.306 163.403 328.55C169.5 325.67 175.719 322.952 181.722 319.775L181.857 319.775C184.545 322.096 187.733 323.762 191.173 324.643C197.162 326.13 200.921 321.776 198.758 317.883C197 314.772 193.349 314.908 189.767 315.936C188.753 316.233 187.739 316.598 186.752 316.977C190.761 314.646 194.646 312.11 198.392 309.378L198.703 309.717L198.703 309.541C201.418 311.882 204.632 313.569 208.1 314.476C214.076 315.949 217.848 311.609 215.685 307.716C213.981 304.781 210.385 304.903 206.748 305.944ZM112.216 428.449C110.986 427.016 109.823 425.516 108.687 424.001C108.958 423.758 109.255 423.487 109.553 423.189C111.242 423.716 112.991 424.029 114.758 424.123L114.758 424.406L115.582 424.23C116.015 426.367 116.461 428.489 116.934 430.612C116.385 429.894 115.668 429.319 114.845 428.942C114.022 428.565 113.119 428.396 112.216 428.449ZM116.624 377.546C116.204 379.142 115.853 380.737 115.515 382.346L115.312 382.062C115.312 378.763 115.362 375.474 115.461 372.192C115.555 369.894 115.718 367.609 115.92 365.311C117.033 366.443 118.256 367.463 119.571 368.353C118.427 371.361 117.447 374.431 116.637 377.546L116.624 377.546ZM122.167 362.404C122.248 361.809 122.315 361.2 122.342 360.605L122.342 359.7C122.829 359.551 123.329 359.375 123.816 359.173C123.275 360.24 122.708 361.322 122.18 362.404L122.167 362.404ZM129.211 350.979C128.977 350.444 128.637 349.963 128.212 349.562C127.787 349.163 127.285 348.854 126.736 348.654C123.397 347.302 120.693 349.735 118.543 352.845L118.435 352.994L118.219 352.994C117.992 352.942 117.761 352.911 117.529 352.899C117.513 352.709 117.546 352.519 117.624 352.345C118.48 347.461 119.636 342.634 121.085 337.892C124.189 338.286 127.34 338.042 130.346 337.176C132.204 336.688 133.819 335.539 134.889 333.944C135.484 336.67 136.62 339.249 138.228 341.529C134.902 344.358 131.884 347.53 129.224 350.993L129.211 350.979Z" fill="#917DD7" fill-opacity="1.000000" fill-rule="nonzero"/>
		<g opacity="0.300000">
			<path id="Vector" d="M206.748 305.944C204.169 306.786 201.637 307.765 199.163 308.878C200.515 307.892 201.867 306.863 203.219 305.822C209.238 300.981 214.967 295.79 220.376 290.274C214.029 296.44 207.252 302.146 200.096 307.351C201.083 305.637 201.95 303.856 202.692 302.023C204.044 298.657 204.287 295.264 201.083 293.466C197.122 291.248 192.336 294.561 193.593 300.226C194.36 303.388 195.856 306.328 197.96 308.811C193.29 312.043 188.412 314.966 183.358 317.558L182.885 317.802C183.953 315.951 184.897 314.031 185.711 312.056C186.982 308.702 187.306 305.295 184.088 303.511C180.127 301.28 175.341 304.605 176.612 310.271C177.366 313.391 178.828 316.296 180.884 318.762C174.814 321.749 168.54 324.291 162.294 327.049L161.388 327.455C162.607 326.146 163.741 324.759 164.782 323.304C166.81 320.33 167.905 317.112 165.201 314.61C161.875 311.528 156.426 313.637 156.345 319.478C156.349 322.701 157.099 325.881 158.536 328.766C152.69 331.497 147.137 334.812 141.96 338.663L141.798 338.798C142.498 337.688 143.139 336.542 143.718 335.364C145.245 332.105 145.813 328.753 142.731 326.711C142.104 326.28 141.388 325.997 140.637 325.883C139.885 325.769 139.118 325.826 138.391 326.052C137.665 326.276 137 326.663 136.445 327.183C135.889 327.702 135.459 328.341 135.186 329.05C134.78 328.416 134.229 327.888 133.578 327.509C130.482 325.724 127.44 327.657 124.83 330.389C124.154 331.105 123.478 331.876 122.897 332.633C124.91 327.046 127.44 321.66 130.454 316.544C133.325 317.798 136.421 318.456 139.553 318.478C145.719 318.478 148.314 313.34 145.286 310.149C142.825 307.566 139.364 308.554 136.092 310.446C135.015 311.074 133.972 311.761 132.969 312.502C136.103 307.781 139.66 303.355 143.596 299.279C146.175 301.365 149.172 302.873 152.384 303.7C158.373 305.174 162.132 300.834 159.969 297.008C158.211 293.898 154.561 294.02 150.978 295.061C149.263 295.573 147.583 296.197 145.948 296.927C147.584 295.331 149.274 293.804 150.991 292.289C153.236 290.369 155.561 288.517 157.927 286.705C160.471 288.735 163.415 290.205 166.566 291.019C172.556 292.492 176.314 288.152 174.151 284.326C172.393 281.216 168.743 281.338 165.147 282.379C164.309 282.622 163.457 282.92 162.632 283.23C165.755 281 168.919 278.823 172.096 276.66L175.03 274.646C177.674 276.86 180.777 278.458 184.115 279.323C190.105 280.797 193.877 276.457 191.714 272.631C189.942 269.521 186.306 269.644 182.709 270.685C181.294 271.117 179.902 271.617 178.532 272.185L180.343 270.833C181.452 270.035 182.561 269.224 183.642 268.372C184.994 267.358 186.279 266.236 187.59 265.154C188.347 264.56 189.064 263.924 189.78 263.275C192.435 265.513 195.558 267.126 198.92 267.994C204.909 269.468 208.668 265.127 206.504 261.301C204.747 258.191 201.096 258.313 197.514 259.354C195.504 259.976 193.536 260.72 191.619 261.585C194.066 259.313 196.432 256.948 198.676 254.487C198.825 254.312 198.96 254.136 199.123 253.974C200.082 252.905 201.029 251.824 201.948 250.701C202.868 249.579 204.057 248.105 205.058 246.754C209.166 241.361 212.548 235.452 215.117 229.178C212.425 235.377 208.929 241.195 204.72 246.483C200.556 251.793 195.908 256.704 190.835 261.152L190.28 261.626C191.433 259.663 192.454 257.626 193.336 255.528C194.62 252.175 194.931 248.769 191.714 246.983C187.766 244.753 182.966 248.079 184.237 253.743C185.053 257.098 186.683 260.2 188.983 262.775L187.793 263.803L186.441 264.965C185.657 265.601 184.845 266.209 184.034 266.817C183.602 267.142 183.182 267.479 182.682 267.805C181.533 268.656 180.37 269.48 179.194 270.292L177.504 271.441L175.584 272.793C176.706 270.878 177.691 268.886 178.532 266.831C179.816 263.465 180.127 260.071 176.923 258.286C172.961 256.056 168.162 259.382 169.433 265.046C170.216 268.3 171.77 271.318 173.962 273.848L172.61 274.768L167.351 278.215L166.31 278.891L163.376 280.852L162.105 281.703C160.753 282.636 159.401 283.582 158.049 284.556C159.135 282.61 160.084 280.591 160.888 278.513C162.24 275.159 162.483 271.752 159.279 269.968C155.318 267.736 150.532 271.062 151.803 276.728C152.597 280.025 154.184 283.079 156.426 285.624C154.128 287.313 151.857 289.044 149.666 290.856C148.057 292.208 146.476 293.56 144.921 295.021C145.598 293.767 146.203 292.476 146.733 291.153C148.003 287.787 148.328 284.394 145.11 282.608C141.149 280.378 136.363 283.704 137.634 289.369C138.388 292.489 139.85 295.394 141.906 297.859C137.527 302.211 133.583 306.979 130.13 312.096C130.522 310.62 130.82 309.121 131.022 307.607C131.455 304.038 130.941 300.685 127.385 299.712C123.005 298.508 119.165 302.889 121.775 308.107C123.276 310.98 125.423 313.466 128.048 315.368C124.642 320.931 121.798 326.818 119.557 332.943C119.499 331.662 119.372 330.386 119.179 329.117C118.57 325.562 117.137 322.493 113.446 322.561C108.904 322.655 106.456 327.969 110.445 332.214C112.572 334.432 115.168 336.146 118.043 337.229C116.505 341.958 115.255 346.775 114.298 351.655C114.136 352.426 114.014 353.196 113.865 353.968C113.703 354.116 113.541 354.265 113.392 354.427C113.23 353.765 113.041 353.075 112.824 352.439C111.689 349.032 109.796 346.207 106.159 346.855C101.697 347.64 100.089 353.237 104.685 356.847C107.022 358.63 109.715 359.89 112.581 360.538C112.581 360.673 112.689 360.795 112.757 360.93C112.257 364.594 111.878 368.285 111.648 371.989C111.472 374.693 111.378 377.52 111.324 380.291C107.457 380.291 104.726 384.536 107.389 389.133C108.513 391.039 109.953 392.739 111.648 394.162C111.973 399.367 112.486 404.572 113.176 409.737C112.629 409.231 111.96 408.877 111.235 408.709C110.509 408.541 109.752 408.564 109.039 408.777C106.605 409.439 105.51 411.4 105.118 413.807C104.252 414.703 103.767 415.9 103.766 417.146C101.954 414.442 100.237 411.738 98.5743 408.886C101.113 406.939 103.217 404.485 104.753 401.68C107.66 396.271 104.374 391.526 100.143 392.675C96.6815 393.621 95.9244 397.137 96.0866 400.909C96.1407 402.34 96.2761 403.766 96.4922 405.181L94.7076 402.045C93.2204 399.341 92.0036 396.637 90.5434 393.933C90.1919 393.27 89.881 392.58 89.597 391.904C92.4454 390.47 94.964 388.457 96.9925 385.996C100.873 381.21 98.5338 375.951 94.1533 376.289C90.584 376.573 89.1644 379.885 88.5695 383.617C88.3377 385.244 88.1933 386.882 88.1369 388.524L86.866 385.591C84.1592 378.936 81.9317 372.095 80.2006 365.121C83.4247 363.979 86.3531 362.132 88.7723 359.713C93.1122 355.319 91.3141 349.871 86.9201 349.763C83.3508 349.682 81.6067 352.832 80.6333 356.522C80.1562 358.481 79.7995 360.469 79.5652 362.472C78.6188 358.47 77.8076 354.413 77.1316 350.304C76.6719 347.789 76.3745 345.233 76.0635 342.691C79.5289 342.005 82.7928 340.539 85.6086 338.406C90.4758 334.62 89.4077 328.941 85.0543 328.307C81.5256 327.752 79.3894 330.659 77.9563 334.16C77.1172 336.369 76.4129 338.627 75.8472 340.921C75.5768 337.974 75.2658 335.013 75.1306 332.052C74.725 325.938 74.725 319.805 75.1306 313.691C74.5135 319.8 74.3012 325.942 74.4952 332.078C74.4952 334.904 74.7386 337.717 74.9143 340.542C74.1419 338.621 73.2385 336.755 72.2103 334.958C70.3716 331.862 67.9109 329.55 64.5039 330.902C60.2992 332.633 59.9341 338.446 65.2069 340.988C68.2995 342.409 71.6919 343.054 75.0901 342.867C75.3334 345.396 75.5497 347.91 75.9283 350.411C76.4556 354.468 77.1316 358.361 77.9293 362.296C77.0641 360.788 76.1021 359.339 75.0495 357.956C72.8187 355.13 70.0877 353.129 66.9375 354.954C63.0032 357.212 63.3817 363.066 68.9385 364.864C72.0828 365.842 75.4131 366.063 78.6594 365.514C80.2018 372.562 82.2302 379.497 84.7298 386.267L85.5275 388.295C84.8122 387.348 84.0402 386.444 83.2156 385.591C80.7144 382.995 77.8076 381.277 74.7926 383.428C71.1017 386.132 72.0886 391.81 77.767 393.081C80.9009 393.715 84.1385 393.623 87.231 392.811C87.515 393.5 87.7989 394.162 88.1369 394.865C89.4889 397.65 90.6921 400.503 92.1118 403.234L93.288 405.601C92.585 404.992 91.8549 404.41 91.0977 403.87C88.1504 401.801 84.9597 400.665 82.4179 403.329C79.2813 406.614 81.3093 412.076 87.1499 412.252C90.1906 412.323 93.2096 411.723 95.992 410.494C97.6685 413.523 99.3855 416.511 101.251 419.444C101.941 420.566 102.603 421.676 103.387 422.784C102.327 421.814 101.207 420.911 100.034 420.08C97.0871 418.012 93.8964 416.876 91.3411 419.539C88.218 422.824 90.246 428.287 96.0866 428.463C99.4248 428.503 102.725 427.747 105.713 426.259C106.686 427.61 107.687 428.963 108.714 430.314C106.538 432.843 107.254 437.075 111.675 439.008C113.822 439.903 116.111 440.411 118.435 440.509C118.706 440.726 118.976 440.941 119.273 441.145L119.409 441.253C122.203 451.689 125.515 461.975 129.346 472.105C130.968 476.418 132.712 480.69 134.51 484.936L118.286 484.936L118.286 548.912L167.864 548.912L167.864 484.882L141.473 484.882C139.215 479.946 137.039 474.958 135.011 469.915C131.698 461.641 128.697 453.231 126.088 444.7C126.532 444.831 126.983 444.935 127.44 445.011C128.04 445.133 128.656 445.16 129.265 445.092L128.562 440.645L128.088 440.645C127.806 440.604 127.527 440.55 127.25 440.481C126.626 440.303 126.016 440.077 125.425 439.806L124.722 439.481C127.331 438.572 129.754 437.198 131.874 435.426C136.566 431.369 135.241 425.826 130.86 425.353C127.318 424.961 125.317 427.962 124.1 431.519C123.735 432.532 123.438 433.587 123.181 434.614C122.924 433.668 122.667 432.722 122.424 431.775C121.707 428.977 121.072 426.15 120.423 423.325C123.254 422.441 125.886 421.014 128.17 419.12C132.861 415.064 131.523 409.534 127.156 409.062C123.6 408.669 121.612 411.671 120.396 415.227C120.031 416.254 119.72 417.322 119.449 418.377C119.044 416.321 118.652 414.253 118.286 412.185C118.03 410.656 117.786 409.115 117.556 407.574C117.475 405.384 117.435 403.193 117.462 400.99C117.462 399.787 117.462 398.583 117.57 397.38C120.221 398.218 123.001 398.57 125.777 398.421C131.942 398.016 134.213 392.743 130.995 389.755C128.372 387.308 124.979 388.524 121.829 390.606C120.416 391.566 119.062 392.609 117.773 393.729C118.152 388.584 118.934 383.476 120.112 378.452C120.802 375.493 121.664 372.576 122.694 369.718C125.521 370.692 128.51 371.11 131.496 370.948C137.661 370.557 139.932 365.283 136.714 362.282C134.105 359.849 130.698 361.052 127.548 363.147C126.448 363.903 125.392 364.72 124.384 365.595C125.573 362.798 126.955 360.087 128.521 357.482C131.627 352.228 135.521 347.48 140.067 343.408C142.423 345.582 145.21 347.235 148.247 348.262C154.114 350.182 158.184 346.126 156.359 342.15C154.831 338.92 151.235 338.771 147.53 339.541C146.103 339.847 144.694 340.234 143.312 340.704L143.407 340.623C148.452 336.687 153.888 333.279 159.631 330.456C161.657 333.108 164.23 335.294 167.175 336.864C172.664 339.69 177.328 336.337 176.112 332.119C175.125 328.685 171.596 327.969 167.824 328.063C166.342 328.144 164.866 328.306 163.403 328.55C169.5 325.67 175.719 322.952 181.722 319.775L181.857 319.775C184.545 322.096 187.733 323.762 191.173 324.643C197.162 326.13 200.921 321.776 198.758 317.883C197 314.772 193.349 314.908 189.767 315.936C188.753 316.233 187.739 316.598 186.752 316.977C190.761 314.646 194.646 312.11 198.392 309.378L198.703 309.717L198.703 309.541C201.418 311.882 204.632 313.569 208.1 314.476C214.076 315.949 217.848 311.609 215.685 307.716C213.981 304.781 210.385 304.903 206.748 305.944ZM112.216 428.449C110.986 427.016 109.823 425.516 108.687 424.001C108.958 423.758 109.255 423.487 109.553 423.189C111.242 423.716 112.991 424.029 114.758 424.123L114.758 424.406L115.582 424.23C116.015 426.367 116.461 428.489 116.934 430.612C116.385 429.894 115.668 429.319 114.845 428.942C114.022 428.565 113.119 428.396 112.216 428.449ZM116.624 377.546C116.204 379.142 115.853 380.737 115.515 382.346L115.312 382.062C115.312 378.763 115.362 375.474 115.461 372.192C115.555 369.894 115.718 367.609 115.92 365.311C117.033 366.443 118.256 367.463 119.571 368.353C118.427 371.361 117.447 374.431 116.637 377.546L116.624 377.546ZM122.167 362.404C122.248 361.809 122.315 361.2 122.342 360.605L122.342 359.7C122.829 359.551 123.329 359.375 123.816 359.173C123.275 360.24 122.708 361.322 122.18 362.404L122.167 362.404ZM129.211 350.979C128.977 350.444 128.637 349.963 128.212 349.562C127.787 349.163 127.285 348.854 126.736 348.654C123.397 347.302 120.693 349.735 118.543 352.845L118.435 352.994L118.219 352.994C117.992 352.942 117.761 352.911 117.529 352.899C117.513 352.709 117.546 352.519 117.624 352.345C118.48 347.461 119.636 342.634 121.085 337.892C124.189 338.286 127.34 338.042 130.346 337.176C132.204 336.688 133.819 335.539 134.889 333.944C135.484 336.67 136.62 339.249 138.228 341.529C134.902 344.358 131.884 347.53 129.224 350.993L129.211 350.979Z" fill="#FFFFFF" fill-opacity="1.000000" fill-rule="nonzero"/>
		</g>
		<path id="Vector" d="M540.11 489.925C540.11 489.925 533.567 475.31 531.998 473.809C530.43 472.308 517.897 467.765 514.422 456.232C510.948 444.7 504.35 413.915 520.98 415.93C537.609 417.944 533.567 450.189 539.61 449.175C545.654 448.161 534.581 396.799 545.153 389.688C555.726 382.575 572.856 389.187 570.841 416.389C568.827 443.592 564.798 459.193 568.327 457.692C571.855 456.192 581.928 450.635 581.928 462.222C581.928 473.809 572.356 481.866 566.812 482.366C561.269 482.867 558.701 483.381 558.701 483.381L558.701 490.925L540.11 489.925Z" fill="#2E353A" fill-opacity="1.000000" fill-rule="nonzero"/>
		<path id="Vector" d="M531.998 473.809C530.43 472.308 517.897 467.765 514.422 456.232C510.948 444.7 504.35 413.915 520.98 415.93C537.609 417.944 533.567 450.189 539.61 449.175C545.654 448.161 534.581 396.799 545.153 389.688C555.726 382.575 572.856 389.187 570.841 416.389C568.827 443.592 564.798 459.193 568.327 457.692C571.855 456.192 581.928 450.635 581.928 462.222C581.928 473.809 572.356 481.866 566.812 482.366C561.269 482.867 558.701 483.381 558.701 483.381L558.701 490.925L540.11 489.925C540.11 489.925 533.567 475.31 531.998 473.809Z" stroke="#2E353A" stroke-opacity="1.000000" stroke-width="1.000000" stroke-linejoin="round"/>
		<path id="Vector" d="M534.784 461.6C530.984 458.003 527.496 454.515 525.887 451.311C522.697 444.916 520.29 426.975 520.29 426.975" stroke="#FFFFFF" stroke-opacity="1.000000" stroke-width="0.500000" stroke-linejoin="round" stroke-linecap="round"/>
		<path id="Vector" d="M514.625 435.736C517.14 446.214 517.492 454.11 525.09 463.304C529.146 468.279 539.881 472.497 541.084 476.892C542.16 482.179 542.968 487.517 543.504 492.886L549.507 493.291C549.507 493.291 550.724 482.881 547.29 475.458" stroke="#FFFFFF" stroke-opacity="1.000000" stroke-width="0.500000" stroke-linejoin="round" stroke-linecap="round"/>
		<path id="Vector" d="M516.302 418.931C516.302 418.931 511.813 422.378 513.408 430.869" stroke="#FFFFFF" stroke-opacity="1.000000" stroke-width="0.500000" stroke-linejoin="round" stroke-linecap="round"/>
		<path id="Vector" d="M545.059 449.851L542.679 453.704" stroke="#FFFFFF" stroke-opacity="1.000000" stroke-width="0.500000" stroke-linejoin="round" stroke-linecap="round"/>
		<path id="Vector" d="M545.884 448.513L545.059 449.852" stroke="#FFFFFF" stroke-opacity="1.000000" stroke-width="0.500000" stroke-linejoin="round" stroke-linecap="round"/>
		<path id="Vector" d="M553.874 390.944C553.874 390.944 544.68 390.552 544.68 399.34C544.68 406.763 546.952 432.099 546.465 443.686" stroke="#FFFFFF" stroke-opacity="1.000000" stroke-width="0.500000" stroke-linejoin="round" stroke-linecap="round"/>
		<path id="Vector" d="M561.08 462.938C560.864 465.953 560.728 468.09 560.728 468.9C560.728 473.295 571.909 456.503 577.115 456.111C577.115 456.111 582.306 455.705 580.305 465.305C579.578 468.868 577.891 472.165 575.427 474.841C572.964 477.516 569.817 479.469 566.326 480.487C561.918 481.69 558.322 479.689 557.524 481.69C556.887 484.043 556.484 486.452 556.321 488.884" stroke="#FFFFFF" stroke-opacity="1.000000" stroke-width="0.500000" stroke-linejoin="round" stroke-linecap="round"/>
		<path id="Vector" d="M563.689 399.286C564.384 402.186 564.711 405.161 564.663 408.142C564.663 417.498 562.878 439.562 561.688 454.461" stroke="#FFFFFF" stroke-opacity="1.000000" stroke-width="0.500000" stroke-linejoin="round" stroke-linecap="round"/>
		<path id="Vector" d="M559.065 391.756C560.266 392.444 561.239 393.469 561.864 394.703" stroke="#FFFFFF" stroke-opacity="1.000000" stroke-width="0.500000" stroke-linejoin="round" stroke-linecap="round"/>
		<path id="Vector" d="M552.562 460.505L552.278 466.103" stroke="#FFFFFF" stroke-opacity="1.000000" stroke-width="0.500000" stroke-linejoin="round" stroke-linecap="round"/>
		<path id="Vector" d="M554.672 396.542C554.672 396.542 552.278 397.34 553.076 405.735C553.739 412.671 553.076 444.159 552.765 454.908" stroke="#FFFFFF" stroke-opacity="1.000000" stroke-width="0.500000" stroke-linejoin="round" stroke-linecap="round"/>
		<path id="Vector" d="M579.859 458.504C576.431 464.92 570.938 469.993 564.271 472.902C553.455 477.297 553.076 475.296 553.076 479.663C553.076 484.029 552.671 492.061 552.671 492.061" stroke="#FFFFFF" stroke-opacity="1.000000" stroke-width="0.500000" stroke-linejoin="round" stroke-linecap="round"/>
		<path id="Vector" d="M564.866 548.871L529.93 548.871L522.453 498.266L572.342 498.266L564.866 548.871Z" fill="#917DD7" fill-opacity="1.000000" fill-rule="nonzero"/>
		<path id="Vector" d="M529.93 548.871L522.453 498.266L572.342 498.266L564.866 548.871L529.93 548.871Z" stroke="#2E353A" stroke-opacity="1.000000" stroke-width="1.000000" stroke-linejoin="round"/>
		<path id="Vector" d="M576.628 490.289L518.168 490.289L518.168 503.836L576.628 503.836L576.628 490.289Z" fill="#917DD7" fill-opacity="1.000000" fill-rule="nonzero"/>
		<path id="Vector" d="M576.628 490.289L576.628 503.836L518.168 503.836L518.168 490.289L576.628 490.289Z" stroke="#2E353A" stroke-opacity="1.000000" stroke-width="1.000000" stroke-linejoin="round"/>
		<path id="Vector" d="M373.044 514.801L373.044 487.328L292.14 487.328L292.14 514.801C292.127 523.75 289.098 532.433 283.541 539.447L279.999 543.909L385.185 543.909L381.643 539.447C376.086 532.433 373.057 523.75 373.044 514.801Z" fill="#FFFFFF" fill-opacity="1.000000" fill-rule="nonzero"/>
		<path id="Vector" d="M373.044 487.328L292.14 487.328L292.14 514.801C292.127 523.75 289.098 532.433 283.541 539.447L279.999 543.909L385.185 543.909L381.643 539.447C376.086 532.433 373.057 523.75 373.044 514.801L373.044 487.328Z" stroke="#2E353A" stroke-opacity="1.000000" stroke-width="1.000000" stroke-linejoin="round"/>
		<path id="Vector" d="M287.165 534.04L378.019 534.04C374.758 528.151 373.045 521.531 373.044 514.801L373.044 487.328L292.14 487.328L292.14 514.801C292.139 521.531 290.427 528.151 287.165 534.04Z" fill="#917DD7" fill-opacity="1.000000" fill-rule="nonzero"/>
		<path id="Vector" d="M483.705 252.107L181.465 252.107C175.134 252.107 170 257.24 170 263.572L170 484.529C170 490.861 175.134 495.995 181.465 495.995L483.705 495.995C490.037 495.995 495.17 490.861 495.17 484.529L495.17 263.572C495.17 257.24 490.037 252.107 483.705 252.107Z" fill="#2E353A" fill-opacity="1.000000" fill-rule="nonzero"/>
		<path id="Vector" d="M483.705 252.107C490.037 252.107 495.17 257.24 495.17 263.572L495.17 484.529C495.17 490.861 490.037 495.995 483.705 495.995L181.465 495.995C175.134 495.995 170 490.861 170 484.529L170 263.572C170 257.24 175.134 252.107 181.465 252.107L483.705 252.107Z" stroke="#2E353A" stroke-opacity="1.000000" stroke-width="1.000000" stroke-linejoin="round"/>
		<path id="Vector" d="M170 458.085L495.184 458.085L495.184 484.517C495.184 487.558 493.976 490.474 491.826 492.623C489.675 494.773 486.759 495.981 483.719 495.981L181.479 495.981C178.438 495.981 175.522 494.773 173.372 492.623C171.222 490.474 170.014 487.558 170.014 484.517L170.014 458.085L170 458.085Z" fill="#FFFFFF" fill-opacity="1.000000" fill-rule="nonzero"/>
		<path id="Vector" d="M495.184 458.085L495.184 484.517C495.184 487.558 493.976 490.474 491.826 492.623C489.675 494.773 486.759 495.981 483.719 495.981L181.479 495.981C178.438 495.981 175.522 494.773 173.372 492.623C171.222 490.474 170.014 487.558 170.014 484.517L170.014 458.085L170 458.085L495.184 458.085Z" stroke="#2E353A" stroke-opacity="1.000000" stroke-width="1.000000" stroke-linejoin="round"/>
		<path id="Vector" d="M478.824 267.29L186.36 267.29L186.36 439.589L478.824 439.589L478.824 267.29Z" fill="#FFFFFF" fill-opacity="1.000000" fill-rule="nonzero"/>
		<path id="Vector" d="M478.824 267.29L478.824 439.589L186.36 439.589L186.36 267.29L478.824 267.29Z" stroke="#2E353A" stroke-opacity="1.000000" stroke-width="1.000000" stroke-linejoin="round"/>
		<path id="Vector" d="M338.595 477.04C338.595 475.853 338.243 474.692 337.583 473.705C336.924 472.718 335.986 471.948 334.889 471.494C333.792 471.04 332.585 470.921 331.421 471.152C330.256 471.384 329.187 471.956 328.347 472.795C327.508 473.635 326.936 474.704 326.704 475.869C326.473 477.033 326.592 478.24 327.046 479.337C327.5 480.434 328.27 481.372 329.257 482.031C330.244 482.69 331.405 483.043 332.592 483.043C334.184 483.043 335.711 482.41 336.837 481.284C337.962 480.159 338.595 478.632 338.595 477.04Z" fill="#2E353A" fill-opacity="1.000000" fill-rule="nonzero"/>
		<path id="Vector" d="M337.583 473.705C336.924 472.718 335.986 471.948 334.889 471.494C333.792 471.04 332.585 470.921 331.421 471.152C330.256 471.384 329.187 471.956 328.347 472.795C327.508 473.635 326.936 474.704 326.704 475.869C326.473 477.033 326.592 478.24 327.046 479.337C327.5 480.434 328.27 481.372 329.257 482.031C330.244 482.69 331.405 483.043 332.592 483.043C334.184 483.043 335.711 482.41 336.837 481.284C337.962 480.159 338.595 478.632 338.595 477.04C338.595 475.853 338.243 474.692 337.583 473.705Z" stroke="#2E353A" stroke-opacity="1.000000" stroke-width="1.000000" stroke-linejoin="round"/>
		<path id="Vector" d="M385.198 543.964L279.999 543.964L279.999 548.872L385.198 548.872L385.198 543.964Z" fill="#FFFFFF" fill-opacity="1.000000" fill-rule="nonzero"/>
		<path id="Vector" d="M385.198 543.964L385.198 548.872L279.999 548.872L279.999 543.964L385.198 543.964Z" stroke="#2E353A" stroke-opacity="1.000000" stroke-width="1.000000" stroke-linejoin="round"/>
		<path id="Vector" d="M476.08 279.432L188.658 279.432L188.658 294.533L476.08 294.533L476.08 279.432Z" fill="#FFFFFF" fill-opacity="1.000000" fill-rule="nonzero"/>
		<path id="Vector" d="M476.08 279.432L476.08 294.533L188.658 294.533L188.658 279.432L476.08 279.432Z" stroke="#2E353A" stroke-opacity="1.000000" stroke-width="1.000000" stroke-linejoin="round"/>
		<path id="Vector" d="M236.086 294.533L232.639 285.204L188.658 285.204L188.658 294.533L188.658 306.903L188.658 432.248L476.08 432.248L476.08 294.533L236.086 294.533Z" fill="#917DD7" fill-opacity="1.000000" fill-rule="nonzero"/>
		<path id="Vector" d="M232.639 285.204L188.658 285.204L188.658 294.533L188.658 306.903L188.658 432.248L476.08 432.248L476.08 294.533L236.086 294.533L232.639 285.204Z" stroke="#2E353A" stroke-opacity="1.000000" stroke-width="1.000000" stroke-linejoin="round"/>
		<path id="Vector" d="M266.02 362.822L400.787 362.822" stroke="#2E353A" stroke-opacity="1.000000" stroke-width="2.000000" stroke-linejoin="round" stroke-linecap="round"/>
		<path id="Vector" d="M266.02 376.072L400.787 376.072" stroke="#2E353A" stroke-opacity="1.000000" stroke-width="2.000000" stroke-linejoin="round" stroke-linecap="round"/>
		<path id="Vector" d="M266.02 389.322L400.787 389.322" stroke="#2E353A" stroke-opacity="1.000000" stroke-width="2.000000" stroke-linejoin="round" stroke-linecap="round"/>
		<path id="Vector" d="M266.02 402.585L400.787 402.585" stroke="#2E353A" stroke-opacity="1.000000" stroke-width="2.000000" stroke-linejoin="round" stroke-linecap="round"/>
		<path id="Vector" d="M393.662 327.495L271.536 327.495C270.279 327.497 269.034 327.251 267.872 326.771C266.71 326.292 265.653 325.589 264.763 324.701C263.873 323.813 263.167 322.759 262.684 321.599C262.201 320.438 261.952 319.193 261.95 317.937C261.948 316.68 262.194 315.435 262.673 314.272C263.153 313.11 263.856 312.054 264.744 311.164C265.632 310.273 266.686 309.567 267.847 309.084C269.007 308.602 270.252 308.353 271.509 308.351L393.662 308.351C394.921 308.349 396.168 308.596 397.332 309.076C398.496 309.558 399.553 310.264 400.444 311.154C401.334 312.045 402.04 313.103 402.522 314.266C403.003 315.43 403.249 316.677 403.248 317.937C403.246 319.193 402.996 320.438 402.514 321.599C402.031 322.759 401.325 323.813 400.434 324.701C399.544 325.589 398.488 326.292 397.326 326.771C396.164 327.251 394.919 327.497 393.662 327.495Z" fill="#FFFFFF" fill-opacity="1.000000" fill-rule="nonzero"/>
		<path id="Vector" d="M271.536 327.495C270.279 327.497 269.034 327.251 267.872 326.771C266.71 326.292 265.653 325.589 264.763 324.701C263.873 323.813 263.167 322.759 262.684 321.599C262.201 320.438 261.952 319.193 261.95 317.937C261.948 316.68 262.194 315.435 262.673 314.272C263.153 313.11 263.856 312.054 264.744 311.164C265.632 310.273 266.686 309.567 267.847 309.084C269.007 308.602 270.252 308.353 271.509 308.351L393.662 308.351C394.921 308.349 396.168 308.596 397.332 309.076C398.496 309.558 399.553 310.264 400.444 311.154C401.334 312.045 402.04 313.103 402.522 314.266C403.003 315.43 403.249 316.677 403.248 317.937C403.246 319.193 402.996 320.438 402.514 321.599C402.031 322.759 401.325 323.813 400.434 324.701C399.544 325.589 398.488 326.292 397.326 326.771C396.164 327.251 394.919 327.497 393.662 327.495L271.536 327.495Z" stroke="#2E353A" stroke-opacity="1.000000" stroke-width="1.000000" stroke-linejoin="round"/>
		<path id="Vector" d="M393.662 327.494L376.978 327.494L376.978 308.323L393.662 308.323C394.921 308.321 396.168 308.568 397.332 309.049C398.496 309.53 399.553 310.236 400.444 311.127C401.334 312.018 402.04 313.075 402.521 314.238C403.003 315.402 403.249 316.649 403.248 317.909C403.249 319.168 403.003 320.415 402.521 321.579C402.04 322.743 401.334 323.801 400.444 324.691C399.553 325.581 398.496 326.287 397.332 326.769C396.168 327.25 394.921 327.496 393.662 327.494Z" fill="#2E353A" fill-opacity="1.000000" fill-rule="nonzero"/>
		<path id="Vector" d="M376.978 327.494L376.978 308.323L393.662 308.323C394.921 308.321 396.168 308.568 397.332 309.049C398.496 309.53 399.553 310.236 400.444 311.127C401.334 312.018 402.04 313.075 402.521 314.238C403.003 315.402 403.249 316.649 403.248 317.909C403.249 319.168 403.003 320.415 402.521 321.579C402.04 322.743 401.334 323.801 400.444 324.691C399.553 325.581 398.496 326.287 397.332 326.769C396.168 327.25 394.921 327.496 393.662 327.494L376.978 327.494Z" stroke="#2E353A" stroke-opacity="1.000000" stroke-width="1.000000" stroke-linejoin="round"/>
		<path id="Vector" d="M389.944 310.758C389.15 310.014 388.152 309.521 387.078 309.344C386.004 309.167 384.902 309.312 383.91 309.761C382.919 310.211 382.083 310.943 381.508 311.868C380.934 312.793 380.646 313.867 380.682 314.955C380.718 316.043 381.076 317.096 381.71 317.98C382.345 318.865 383.227 319.541 384.246 319.924C385.265 320.307 386.375 320.379 387.435 320.131C388.495 319.884 389.457 319.326 390.201 318.531C390.696 318.007 391.083 317.39 391.339 316.715C391.595 316.04 391.715 315.322 391.692 314.601C391.67 313.88 391.505 313.17 391.207 312.513C390.909 311.855 390.485 311.264 389.957 310.771L389.944 310.758ZM389.403 317.788C388.806 318.422 388.035 318.864 387.186 319.061C386.338 319.256 385.45 319.196 384.636 318.889C383.821 318.58 383.116 318.038 382.61 317.33C382.103 316.621 381.818 315.779 381.79 314.909C381.761 314.038 381.992 313.18 382.451 312.439C382.911 311.7 383.579 311.113 384.372 310.753C385.164 310.393 386.046 310.275 386.905 310.416C387.765 310.557 388.563 310.948 389.2 311.542C390.055 312.344 390.556 313.451 390.595 314.623C390.633 315.794 390.204 316.933 389.403 317.788Z" fill="#FFFFFF" fill-opacity="1.000000" fill-rule="nonzero"/>
		<path id="Vector" d="M394.081 320.532C393.96 320.414 393.808 320.334 393.642 320.3C393.477 320.267 393.305 320.281 393.148 320.343L391.161 318.477C391.06 318.378 390.924 318.322 390.782 318.322C390.641 318.322 390.505 318.378 390.404 318.477L390.228 318.666C390.131 318.771 390.077 318.908 390.077 319.052C390.077 319.194 390.131 319.332 390.228 319.437L392.188 321.275C392.13 321.442 392.121 321.623 392.162 321.796C392.202 321.968 392.291 322.125 392.418 322.249L395.798 325.562C396.021 325.782 396.322 325.907 396.636 325.907C396.95 325.907 397.252 325.782 397.474 325.562C397.696 325.339 397.82 325.037 397.82 324.723C397.82 324.409 397.696 324.107 397.474 323.885L394.081 320.532Z" fill="#FFFFFF" fill-opacity="1.000000" fill-rule="nonzero"/>
		<path id="Vector" d="M428.99 385.32C429.384 386.3 429.972 387.189 430.718 387.938C431.463 388.686 432.351 389.276 433.33 389.674C434.857 390.296 436.899 390.161 439.251 391.485C444.565 394.474 457.828 391.811 467.44 392.838C477.053 393.865 490.005 383.225 490.005 383.225L528.145 385.32L528.145 347.465C528.145 347.465 488.342 349.128 479.717 345.802C471.091 342.476 461.478 335.526 457.165 335.851C452.852 336.176 417.362 340.164 417.362 340.164L428.976 385.32L428.99 385.32Z" fill="#FFFFFF" fill-opacity="1.000000" fill-rule="nonzero"/>
		<path id="Vector" d="M430.718 387.938C431.463 388.686 432.351 389.276 433.33 389.674C434.857 390.296 436.899 390.161 439.251 391.485C444.565 394.474 457.828 391.811 467.44 392.838C477.053 393.865 490.005 383.225 490.005 383.225L528.145 385.32L528.145 347.465C528.145 347.465 488.342 349.128 479.717 345.802C471.091 342.476 461.478 335.526 457.165 335.851C452.852 336.176 417.362 340.164 417.362 340.164L428.976 385.32L428.99 385.32C429.384 386.3 429.972 387.189 430.718 387.938Z" stroke="#2E353A" stroke-opacity="1.000000" stroke-width="1.000000" stroke-linejoin="round"/>
		<path id="Vector" d="M419.12 232.68C411.245 233.552 403.805 236.738 397.742 241.839C391.678 246.938 387.263 253.722 385.055 261.331C382.847 268.94 382.944 277.033 385.336 284.587C387.727 292.141 392.305 298.815 398.489 303.768C404.674 308.72 412.189 311.727 420.082 312.407C427.976 313.089 435.895 311.414 442.837 307.595C449.779 303.776 455.432 297.984 459.082 290.952C462.733 283.92 464.216 275.964 463.344 268.089C462.769 262.858 461.168 257.793 458.633 253.182C456.098 248.571 452.68 244.505 448.572 241.216C444.465 237.928 439.75 235.48 434.696 234.017C429.642 232.552 424.349 232.098 419.12 232.68ZM427.07 304.443C420.753 305.146 414.369 303.958 408.727 301.032C403.084 298.106 398.436 293.572 395.37 288.005C392.304 282.438 390.958 276.085 391.502 269.753C392.046 263.42 394.456 257.391 398.427 252.428C402.397 247.464 407.75 243.79 413.809 241.869C419.868 239.948 426.36 239.867 432.465 241.636C438.57 243.405 444.014 246.944 448.107 251.807C452.2 256.669 454.76 262.637 455.462 268.954C455.928 273.148 455.563 277.394 454.389 281.447C453.214 285.501 451.253 289.283 448.616 292.579C445.98 295.875 442.72 298.618 439.023 300.654C435.326 302.69 431.264 303.978 427.07 304.443Z" fill="#FFFFFF" fill-opacity="1.000000" fill-rule="nonzero"/>
		<path id="Vector" d="M397.742 241.839C391.678 246.938 387.263 253.722 385.055 261.331C382.847 268.94 382.944 277.033 385.336 284.587C387.727 292.141 392.305 298.815 398.489 303.768C404.674 308.72 412.189 311.727 420.082 312.407C427.976 313.089 435.895 311.414 442.837 307.595C449.779 303.776 455.432 297.984 459.082 290.952C462.733 283.92 464.216 275.964 463.344 268.089C462.769 262.858 461.168 257.793 458.633 253.182C456.098 248.571 452.68 244.505 448.572 241.216C444.465 237.928 439.75 235.48 434.696 234.017C429.642 232.552 424.349 232.098 419.12 232.68C411.245 233.552 403.805 236.738 397.742 241.839ZM408.727 301.032C403.084 298.106 398.436 293.572 395.37 288.005C392.304 282.438 390.958 276.085 391.502 269.753C392.046 263.42 394.456 257.391 398.427 252.428C402.397 247.464 407.75 243.79 413.809 241.869C419.868 239.948 426.36 239.867 432.465 241.636C438.57 243.405 444.014 246.944 448.107 251.807C452.2 256.67 454.76 262.637 455.462 268.954C455.928 273.148 455.563 277.394 454.389 281.447C453.214 285.501 451.253 289.283 448.616 292.579C445.98 295.875 442.72 298.618 439.023 300.654C435.326 302.69 431.264 303.978 427.07 304.443C420.753 305.146 414.369 303.958 408.727 301.032Z" stroke="#2E353A" stroke-opacity="1.000000" stroke-width="1.000000" stroke-linejoin="round"/>
		<path id="Vector" d="M418.904 230.395C411.029 231.266 403.589 234.453 397.526 239.553C391.462 244.653 387.047 251.437 384.839 259.046C382.63 266.654 382.728 274.748 385.119 282.302C387.511 289.855 392.088 296.53 398.273 301.482C404.458 306.434 411.972 309.44 419.866 310.122C427.76 310.804 435.678 309.129 442.62 305.31C449.562 301.491 455.216 295.699 458.866 288.667C462.516 281.635 463.999 273.678 463.128 265.803C461.955 255.245 456.638 245.584 448.345 238.944C440.053 232.305 429.463 229.229 418.904 230.395ZM426.853 302.158C420.536 302.86 414.153 301.673 408.51 298.747C402.868 295.821 398.22 291.287 395.154 285.72C392.088 280.151 390.742 273.8 391.286 267.467C391.83 261.135 394.24 255.105 398.21 250.142C402.181 245.179 407.534 241.505 413.593 239.584C419.652 237.663 426.144 237.582 432.249 239.351C438.354 241.119 443.797 244.659 447.891 249.521C451.984 254.384 454.543 260.352 455.245 266.668C455.712 270.863 455.347 275.108 454.172 279.162C452.998 283.216 451.036 286.998 448.4 290.294C445.763 293.589 442.504 296.333 438.807 298.369C435.11 300.405 431.048 301.692 426.853 302.158Z" fill="#FFFFFF" fill-opacity="1.000000" fill-rule="nonzero"/>
		<path id="Vector" d="M397.526 239.553C391.462 244.653 387.047 251.437 384.839 259.046C382.63 266.654 382.728 274.748 385.119 282.302C387.511 289.855 392.088 296.53 398.273 301.482C404.458 306.434 411.972 309.44 419.866 310.122C427.76 310.804 435.678 309.129 442.62 305.31C449.562 301.491 455.216 295.699 458.866 288.667C462.516 281.635 463.999 273.678 463.128 265.803C461.955 255.245 456.638 245.584 448.345 238.944C440.053 232.305 429.463 229.229 418.904 230.395C411.029 231.266 403.589 234.453 397.526 239.553ZM408.51 298.747C402.868 295.821 398.22 291.287 395.154 285.72C392.088 280.151 390.742 273.8 391.286 267.467C391.83 261.135 394.24 255.105 398.21 250.142C402.181 245.179 407.534 241.505 413.593 239.584C419.652 237.663 426.144 237.582 432.249 239.351C438.354 241.119 443.797 244.659 447.891 249.521C451.984 254.384 454.543 260.352 455.245 266.668C455.712 270.863 455.347 275.108 454.172 279.162C452.998 283.216 451.036 286.998 448.4 290.294C445.763 293.589 442.504 296.333 438.807 298.369C435.11 300.405 431.048 301.692 426.853 302.158C420.536 302.86 414.153 301.673 408.51 298.747Z" stroke="#2E353A" stroke-opacity="1.000000" stroke-width="1.000000" stroke-linejoin="round"/>
		<path id="Vector" d="M429.038 310.771L427.143 310.98C425.006 311.217 423.465 313.142 423.702 315.279L426.777 343.042C427.013 345.18 428.938 346.72 431.075 346.483L432.97 346.273C435.108 346.037 436.648 344.112 436.412 341.975L433.337 314.212C433.1 312.075 431.175 310.534 429.038 310.771Z" fill="#917DD7" fill-opacity="1.000000" fill-rule="nonzero"/>
		<path id="Vector" d="M429.038 310.771C431.175 310.534 433.1 312.075 433.337 314.212L436.412 341.975C436.648 344.112 435.108 346.037 432.97 346.273L431.075 346.483C428.938 346.72 427.013 345.18 426.777 343.042L423.702 315.279C423.465 313.142 425.006 311.217 427.143 310.98L429.038 310.771Z" stroke="#2E353A" stroke-opacity="1.000000" stroke-width="1.000000" stroke-linejoin="round"/>
		<path id="Vector" d="M428.422 333.944L432.478 333.512C434.222 333.325 435.97 333.833 437.341 334.927C438.713 336.021 439.599 337.61 439.806 339.353L445.876 394.257C446.123 396.501 445.468 398.752 444.056 400.514C442.644 402.276 440.59 403.405 438.345 403.653L438.075 403.653C436.963 403.777 435.838 403.681 434.764 403.369C433.69 403.058 432.687 402.537 431.814 401.838C430.942 401.138 430.215 400.273 429.677 399.292C429.139 398.312 428.8 397.234 428.679 396.123L422.608 341.231C422.51 340.362 422.585 339.482 422.828 338.642C423.071 337.802 423.477 337.018 424.023 336.334C424.57 335.651 425.245 335.082 426.012 334.66C426.778 334.239 427.62 333.973 428.489 333.877L428.422 333.944Z" fill="#2E353A" fill-opacity="1.000000" fill-rule="nonzero"/>
		<path id="Vector" d="M432.478 333.512C434.222 333.325 435.97 333.833 437.341 334.927C438.713 336.021 439.599 337.61 439.806 339.353L445.876 394.257C446.123 396.501 445.468 398.752 444.056 400.514C442.644 402.276 440.59 403.405 438.345 403.653L438.075 403.653C436.963 403.777 435.838 403.681 434.764 403.369C433.69 403.058 432.687 402.537 431.814 401.838C430.942 401.138 430.215 400.273 429.677 399.292C429.139 398.312 428.8 397.234 428.679 396.123L422.608 341.231C422.51 340.362 422.585 339.482 422.828 338.642C423.071 337.802 423.477 337.018 424.023 336.334C424.57 335.651 425.245 335.082 426.012 334.66C426.778 334.239 427.62 333.973 428.489 333.877L428.422 333.944L432.478 333.512Z" stroke="#2E353A" stroke-opacity="1.000000" stroke-width="1.000000" stroke-linejoin="round"/>
		<path id="Vector" d="M434.316 379.695C434.316 379.695 424.704 380.047 423.352 381.71C422 383.373 422.243 389.159 424.852 389.822C431.504 391.565 445.646 390.552 446.201 389.362C446.755 388.172 447.891 381.25 444.97 380.507C441.445 379.966 437.883 379.695 434.316 379.695Z" fill="#FFFFFF" fill-opacity="1.000000" fill-rule="nonzero"/>
		<path id="Vector" d="M423.352 381.71C422 383.373 422.243 389.159 424.852 389.822C431.504 391.565 445.646 390.552 446.201 389.362C446.755 388.172 447.891 381.25 444.97 380.507C441.445 379.966 437.883 379.695 434.316 379.695C434.316 379.695 424.704 380.047 423.352 381.71Z" stroke="#2E353A" stroke-opacity="1.000000" stroke-width="1.000000" stroke-linejoin="round"/>
		<path id="Vector" d="M431.545 366.284C431.545 366.284 420.364 365.865 418.62 367.88C416.876 369.895 416.538 377.425 419.485 378.561C427.002 381.44 443.916 380.318 444.686 378.831C445.457 377.344 447.133 369.624 443.821 368.38C440.509 367.136 431.545 366.284 431.545 366.284Z" fill="#FFFFFF" fill-opacity="1.000000" fill-rule="nonzero"/>
		<path id="Vector" d="M418.62 367.88C416.876 369.895 416.538 377.425 419.485 378.561C427.002 381.44 443.916 380.318 444.686 378.831C445.457 377.344 447.133 369.624 443.821 368.38C440.509 367.136 431.545 366.284 431.545 366.284C431.545 366.284 420.364 365.865 418.62 367.88Z" stroke="#2E353A" stroke-opacity="1.000000" stroke-width="1.000000" stroke-linejoin="round"/>
		<path id="Vector" d="M429.936 351.142C429.936 351.142 417.984 350.682 416.119 352.845C414.253 355.008 413.888 363.039 417.038 364.256C425.15 367.339 442.726 367.339 443.551 365.743C444.375 364.147 446.593 354.711 443.05 353.372C439.508 352.034 429.936 351.142 429.936 351.142Z" fill="#FFFFFF" fill-opacity="1.000000" fill-rule="nonzero"/>
		<path id="Vector" d="M416.119 352.845C414.253 355.008 413.888 363.039 417.038 364.256C425.15 367.339 442.726 367.339 443.551 365.743C444.375 364.147 446.593 354.711 443.05 353.372C439.508 352.034 429.936 351.142 429.936 351.142C429.936 351.142 417.984 350.682 416.119 352.845Z" stroke="#2E353A" stroke-opacity="1.000000" stroke-width="1.000000" stroke-linejoin="round"/>
		<path id="Vector" d="M423.041 336.972C423.041 336.972 411.089 336.525 409.223 338.676C407.358 340.825 406.911 349.113 410.143 350.086C413.374 351.06 435.831 353.169 436.655 351.587C437.48 350.005 439.697 340.541 436.155 339.203C432.613 337.864 423.041 336.972 423.041 336.972Z" fill="#FFFFFF" fill-opacity="1.000000" fill-rule="nonzero"/>
		<path id="Vector" d="M409.223 338.676C407.358 340.825 406.911 349.113 410.143 350.086C413.374 351.06 435.831 353.169 436.655 351.587C437.48 350.005 439.697 340.541 436.155 339.203C432.613 337.864 423.041 336.972 423.041 336.972C423.041 336.972 411.089 336.525 409.223 338.676Z" stroke="#2E353A" stroke-opacity="1.000000" stroke-width="1.000000" stroke-linejoin="round"/>
		<path id="Vector" d="M462.181 376.734C460.036 376.145 458.003 375.203 456.165 373.949C446.552 367.311 446.877 352.061 446.877 352.061L444.565 351.397C442.655 350.671 440.864 349.664 439.251 348.41C440.026 351.561 440.478 354.781 440.603 358.022C440.569 359.804 439.873 361.509 438.651 362.806C437.429 364.103 435.768 364.898 433.992 365.039C431.004 365.378 429.679 365.702 428.679 361.728C427.678 357.752 422.716 341.825 422.378 339.5C422.081 337.392 425.623 333.633 431.261 332.74C439.927 333.443 448.472 335.863 457.206 335.863C460.245 336.148 463.157 337.221 465.656 338.973M462.289 376.267L462.314 376.252C462.584 376.326 462.738 376.597 462.663 376.867C462.589 377.137 462.319 377.291 462.049 377.217L462.035 377.191L462.289 376.267ZM465.915 338.568L465.943 338.563C466.172 338.725 466.226 339.031 466.065 339.26C465.904 339.489 465.598 339.543 465.369 339.382L465.364 339.354L465.915 338.568Z" fill="#FFFFFF" fill-opacity="1.000000" fill-rule="nonzero"/>
		<path id="Vector" d="M462.181 376.734C460.036 376.145 458.003 375.203 456.165 373.949C446.552 367.311 446.877 352.061 446.877 352.061L444.565 351.397C442.655 350.671 440.864 349.664 439.251 348.41C440.026 351.561 440.478 354.781 440.603 358.022C440.569 359.804 439.873 361.509 438.651 362.806C437.429 364.103 435.768 364.898 433.992 365.039C431.004 365.378 429.679 365.702 428.679 361.728C427.678 357.752 422.716 341.825 422.378 339.5C422.081 337.392 425.623 333.633 431.261 332.74C439.927 333.443 448.472 335.863 457.206 335.863C460.245 336.148 463.157 337.221 465.656 338.973" stroke="#2E353A" stroke-opacity="1.000000" stroke-width="1.000000" stroke-linejoin="round" stroke-linecap="round"/>
		<path id="Vector" d="M471.321 377.573C470.267 377.627 469.211 377.627 468.157 377.573M471.276 377.095L471.295 377.074C471.575 377.06 471.806 377.268 471.82 377.548C471.834 377.827 471.626 378.059 471.346 378.072L471.325 378.054L471.276 377.095ZM468.152 378.054L468.131 378.072C467.852 378.059 467.643 377.827 467.658 377.548C467.672 377.268 467.903 377.06 468.183 377.074L468.202 377.095L468.152 378.054Z" fill="#FFFFFF" fill-opacity="1.000000" fill-rule="nonzero"/>
		<path id="Vector" d="M471.321 377.573C470.267 377.627 469.211 377.627 468.157 377.573" stroke="#2E353A" stroke-opacity="1.000000" stroke-width="1.000000" stroke-linejoin="round" stroke-linecap="round"/>
		<path id="Vector" d="M478.392 376.262C476.096 376.988 473.723 377.442 471.321 377.613M478.228 375.811L478.241 375.785C478.508 375.7 478.784 375.844 478.868 376.111C478.953 376.378 478.81 376.654 478.543 376.738L478.517 376.726L478.228 375.811ZM471.375 378.091L471.356 378.112C471.077 378.133 470.842 377.929 470.822 377.649C470.802 377.37 471.006 377.135 471.285 377.115L471.306 377.134L471.375 378.091Z" fill="#FFFFFF" fill-opacity="1.000000" fill-rule="nonzero"/>
		<path id="Vector" d="M478.392 376.262C476.096 376.988 473.723 377.442 471.321 377.613" stroke="#2E353A" stroke-opacity="1.000000" stroke-width="1.000000" stroke-linejoin="round" stroke-linecap="round"/>
		<path id="Vector" d="M490.33 371.962L502.268 371.962" stroke="#2E353A" stroke-opacity="1.000000" stroke-width="1.000000" stroke-linejoin="round" stroke-linecap="round"/>
		<path id="Vector" d="M491.33 375.274L496.306 375.274" stroke="#2E353A" stroke-opacity="1.000000" stroke-width="1.000000" stroke-linejoin="round" stroke-linecap="round"/>
		<path id="Vector" d="M446.877 352.062C446.877 352.062 453.474 352.062 457.801 348.127" stroke="#2E353A" stroke-opacity="1.000000" stroke-width="1.000000" stroke-linejoin="round" stroke-linecap="round"/>
		<path id="Vector" d="M439.103 347.978C438.912 346.177 438.536 344.401 437.98 342.678" stroke="#2E353A" stroke-opacity="1.000000" stroke-width="1.000000" stroke-linejoin="round" stroke-linecap="round"/>
		<path id="Vector" d="M428.584 359.983C428.584 359.983 427.327 356.495 428.854 355.237C430.382 353.98 434.438 352.169 435.141 353.562C435.844 354.954 437.372 361.376 436.953 362.633L436.534 363.891" stroke="#2E353A" stroke-opacity="1.000000" stroke-width="0.500000" stroke-linejoin="round" stroke-linecap="round"/>
		<path id="Vector" d="M611.848 402.288L497.536 402.288L497.536 346.099L611.848 346.099M611.828 401.808L611.848 401.788C612.128 401.788 612.348 402.008 612.348 402.288C612.348 402.567 612.128 402.788 611.848 402.788L611.828 402.768L611.828 401.808ZM611.828 345.618L611.848 345.599C612.128 345.599 612.348 345.818 612.348 346.099C612.348 346.379 612.128 346.599 611.848 346.599L611.828 346.579L611.828 345.618Z" fill="#917DD7" fill-opacity="1.000000" fill-rule="nonzero"/>
		<path id="Vector" d="M611.848 402.288L497.536 402.288L497.536 346.099L611.848 346.099" stroke="#2E353A" stroke-opacity="1.000000" stroke-width="1.000000" stroke-linejoin="round" stroke-linecap="round"/>
		<path id="Vector" d="M505.918 398.529C507.337 398.529 508.487 397.379 508.487 395.96C508.487 394.542 507.337 393.392 505.918 393.392C504.5 393.392 503.35 394.542 503.35 395.96C503.35 397.379 504.5 398.529 505.918 398.529Z" fill="#FFFFFF" fill-opacity="1.000000" fill-rule="nonzero"/>
		<path id="Vector" d="M505.918 398.529C504.5 398.529 503.35 397.379 503.35 395.96C503.35 394.542 504.5 393.392 505.918 393.392C507.337 393.392 508.487 394.542 508.487 395.96C508.487 397.379 507.337 398.529 505.918 398.529Z" stroke="#2E353A" stroke-opacity="1.000000" stroke-width="1.000000" stroke-linejoin="round"/>
		<path id="Vector" d="M324.25 292.587C325.229 292.191 326.12 291.604 326.867 290.858C327.615 290.113 328.206 289.225 328.604 288.246C329.225 286.719 329.077 284.69 330.415 282.325C333.39 277.025 330.74 263.762 331.767 254.136C332.795 244.51 322.141 231.584 322.141 231.584L324.21 193.444L286.354 193.444C286.354 193.444 288.003 233.247 284.691 241.859C281.378 250.472 274.415 260.111 274.74 264.425C275.064 268.737 279.08 304.2 279.08 304.2L324.183 292.587L324.25 292.587Z" fill="#FFFFFF" fill-opacity="1.000000" fill-rule="nonzero"/>
		<path id="Vector" d="M326.867 290.858C327.615 290.113 328.206 289.225 328.604 288.246C329.225 286.719 329.077 284.69 330.415 282.325C333.39 277.025 330.74 263.762 331.767 254.136C332.795 244.51 322.141 231.584 322.141 231.584L324.21 193.444L286.354 193.444C286.354 193.444 288.003 233.247 284.691 241.859C281.378 250.472 274.415 260.111 274.74 264.425C275.064 268.737 279.08 304.2 279.08 304.2L324.183 292.587L324.25 292.587C325.229 292.191 326.12 291.604 326.867 290.858Z" stroke="#2E353A" stroke-opacity="1.000000" stroke-width="1.000000" stroke-linejoin="round"/>
		<path id="Vector" d="M171.704 302.429C172.57 310.305 175.752 317.747 180.847 323.814C185.943 329.882 192.724 334.302 200.331 336.516C207.939 338.729 216.033 338.637 223.588 336.251C231.144 333.865 237.822 329.292 242.778 323.11C247.734 316.928 250.746 309.415 251.433 301.521C252.119 293.629 250.45 285.709 246.635 278.764C242.82 271.819 237.032 266.162 230.002 262.508C222.972 258.853 215.016 257.365 207.14 258.231L207.045 258.231C196.503 259.418 186.861 264.736 180.236 273.022C173.61 281.309 170.542 291.884 171.704 302.429ZM243.36 294.466C244.064 300.785 242.879 307.171 239.953 312.817C237.028 318.463 232.494 323.114 226.925 326.184C221.356 329.253 215.002 330.602 208.667 330.06C202.331 329.518 196.299 327.109 191.332 323.139C186.365 319.168 182.688 313.814 180.764 307.754C178.84 301.693 178.756 295.198 180.523 289.09C182.291 282.982 185.829 277.535 190.692 273.438C195.555 269.342 201.523 266.778 207.843 266.073C216.317 265.132 224.819 267.594 231.479 272.917C238.139 278.241 242.412 285.992 243.36 294.466Z" fill="#FFFFFF" fill-opacity="1.000000" fill-rule="nonzero"/>
		<path id="Vector" d="M180.847 323.814C185.943 329.882 192.724 334.302 200.331 336.516C207.939 338.729 216.033 338.637 223.588 336.251C231.144 333.865 237.822 329.292 242.778 323.11C247.734 316.928 250.746 309.415 251.433 301.521C252.119 293.629 250.45 285.709 246.635 278.764C242.82 271.819 237.032 266.162 230.002 262.508C222.972 258.853 215.016 257.365 207.14 258.231L207.045 258.231C196.503 259.418 186.861 264.736 180.236 273.022C173.61 281.309 170.542 291.884 171.704 302.429C172.57 310.305 175.752 317.747 180.847 323.814ZM239.953 312.817C237.028 318.463 232.494 323.114 226.925 326.184C221.356 329.253 215.002 330.602 208.667 330.06C202.331 329.518 196.299 327.109 191.332 323.139C186.365 319.168 182.688 313.814 180.764 307.754C178.84 301.693 178.756 295.198 180.523 289.09C182.291 282.982 185.829 277.535 190.692 273.438C195.555 269.342 201.523 266.778 207.843 266.073C216.317 265.132 224.819 267.594 231.479 272.917C238.139 278.241 242.412 285.992 243.36 294.466C244.064 300.785 242.879 307.171 239.953 312.817Z" stroke="#2E353A" stroke-opacity="1.000000" stroke-width="1.000000" stroke-linejoin="round"/>
		<path id="Vector" d="M169.365 302.673C170.239 310.544 173.427 317.979 178.526 324.038C183.625 330.098 190.406 334.509 198.012 336.715C205.618 338.921 213.707 338.822 221.256 336.431C228.806 334.04 235.478 329.465 240.427 323.283C245.377 317.101 248.383 309.59 249.064 301.7C249.746 293.811 248.073 285.896 244.257 278.956C240.441 272.018 234.653 266.365 227.625 262.715C220.598 259.064 212.645 257.58 204.774 258.448C199.544 259.025 194.48 260.628 189.87 263.163C185.26 265.698 181.194 269.117 177.906 273.224C174.618 277.331 172.171 282.046 170.705 287.099C169.24 292.151 168.784 297.443 169.365 302.673ZM241.129 294.736C241.831 301.054 240.644 307.438 237.718 313.079C234.792 318.722 230.258 323.37 224.69 326.436C219.123 329.502 212.771 330.848 206.438 330.304C200.105 329.76 194.076 327.351 189.113 323.38C184.15 319.409 180.475 314.056 178.554 307.997C176.633 301.938 176.552 295.445 178.321 289.341C180.09 283.235 183.63 277.793 188.492 273.699C193.355 269.605 199.322 267.047 205.639 266.345C209.834 265.878 214.079 266.243 218.133 267.417C222.186 268.592 225.969 270.554 229.264 273.19C232.56 275.826 235.304 279.086 237.34 282.783C239.376 286.48 240.663 290.542 241.129 294.736Z" fill="#FFFFFF" fill-opacity="1.000000" fill-rule="nonzero"/>
		<path id="Vector" d="M178.526 324.038C183.625 330.098 190.406 334.509 198.012 336.715C205.618 338.921 213.707 338.822 221.256 336.431C228.806 334.04 235.478 329.465 240.427 323.283C245.377 317.101 248.383 309.59 249.064 301.7C249.746 293.811 248.073 285.896 244.257 278.956C240.441 272.018 234.653 266.365 227.625 262.715C220.598 259.064 212.645 257.58 204.774 258.448C199.544 259.025 194.48 260.628 189.87 263.163C185.26 265.698 181.194 269.117 177.906 273.224C174.618 277.331 172.171 282.046 170.705 287.099C169.24 292.151 168.784 297.443 169.365 302.673C170.239 310.544 173.427 317.979 178.526 324.038ZM237.718 313.079C234.792 318.722 230.258 323.37 224.69 326.436C219.123 329.502 212.771 330.848 206.438 330.304C200.105 329.76 194.076 327.351 189.113 323.38C184.15 319.409 180.475 314.056 178.554 307.997C176.633 301.938 176.552 295.445 178.321 289.341C180.09 283.235 183.63 277.793 188.492 273.699C193.355 269.605 199.322 267.047 205.639 266.345C209.834 265.878 214.079 266.243 218.133 267.417C222.186 268.592 225.969 270.554 229.264 273.19C232.56 275.826 235.304 279.086 237.34 282.783C239.376 286.48 240.663 290.542 241.129 294.736C241.831 301.054 240.644 307.438 237.718 313.079Z" stroke="#2E353A" stroke-opacity="1.000000" stroke-width="1.000000" stroke-linejoin="round"/>
		<path id="Vector" d="M280.955 285.185L253.193 288.26C251.055 288.496 249.514 290.421 249.751 292.559L249.961 294.453C250.198 296.591 252.122 298.132 254.26 297.895L282.022 294.82C284.16 294.583 285.7 292.658 285.464 290.521L285.254 288.627C285.017 286.489 283.092 284.948 280.955 285.185Z" fill="#917DD7" fill-opacity="1.000000" fill-rule="nonzero"/>
		<path id="Vector" d="M280.955 285.185C283.092 284.948 285.017 286.489 285.254 288.627L285.464 290.521C285.7 292.658 284.16 294.583 282.022 294.82L254.26 297.895C252.122 298.132 250.198 296.591 249.961 294.453L249.751 292.559C249.514 290.421 251.055 288.496 253.193 288.26L280.955 285.185Z" stroke="#2E353A" stroke-opacity="1.000000" stroke-width="1.000000" stroke-linejoin="round"/>
		<path id="Vector" d="M272.915 293.167L272.469 289.111C272.275 287.354 272.787 285.593 273.893 284.213C274.998 282.834 276.606 281.95 278.363 281.757L333.254 275.686C334.371 275.557 335.502 275.648 336.582 275.957C337.663 276.266 338.672 276.784 339.552 277.484C340.431 278.185 341.163 279.051 341.707 280.034C342.25 281.019 342.594 282.1 342.718 283.217L342.718 283.487C342.848 284.604 342.756 285.734 342.448 286.815C342.139 287.896 341.62 288.904 340.92 289.784C340.22 290.663 339.354 291.396 338.37 291.939C337.386 292.483 336.305 292.827 335.188 292.951L280.297 299.021C278.542 299.22 276.781 298.715 275.398 297.618C274.014 296.521 273.122 294.921 272.915 293.167Z" fill="#2E353A" fill-opacity="1.000000" fill-rule="nonzero"/>
		<path id="Vector" d="M272.469 289.111C272.275 287.354 272.787 285.593 273.893 284.213C274.998 282.834 276.606 281.95 278.363 281.757L333.254 275.686C334.371 275.557 335.502 275.648 336.582 275.957C337.663 276.266 338.672 276.784 339.552 277.484C340.431 278.185 341.163 279.051 341.707 280.034C342.25 281.019 342.594 282.1 342.718 283.217L342.718 283.487C342.848 284.604 342.756 285.734 342.448 286.815C342.139 287.896 341.62 288.904 340.92 289.784C340.22 290.663 339.354 291.396 338.37 291.939C337.386 292.483 336.305 292.827 335.188 292.951L280.297 299.021C278.542 299.22 276.781 298.715 275.398 297.618C274.014 296.521 273.122 294.921 272.915 293.167L272.469 289.111Z" stroke="#2E353A" stroke-opacity="1.000000" stroke-width="1.000000" stroke-linejoin="round"/>
		<path id="Vector" d="M318.653 287.273C318.653 287.273 319.018 296.872 320.667 298.225C322.317 299.576 328.13 299.333 328.779 296.724C330.537 290.085 329.509 275.93 328.32 275.389C327.13 274.849 320.208 273.686 319.478 276.619C318.933 280.145 318.657 283.706 318.653 287.273Z" fill="#FFFFFF" fill-opacity="1.000000" fill-rule="nonzero"/>
		<path id="Vector" d="M320.667 298.225C322.317 299.576 328.13 299.333 328.779 296.724C330.537 290.085 329.509 275.93 328.32 275.389C327.13 274.849 320.208 273.686 319.478 276.619C318.933 280.145 318.657 283.706 318.653 287.273C318.653 287.273 319.018 296.872 320.667 298.225Z" stroke="#2E353A" stroke-opacity="1.000000" stroke-width="1.000000" stroke-linejoin="round"/>
		<path id="Vector" d="M305.255 290.031C305.255 290.031 304.822 301.212 306.836 302.956C308.851 304.7 316.382 305.052 317.517 302.091C320.411 294.574 319.275 277.66 317.788 276.903C316.3 276.146 308.581 274.456 307.337 277.769C306.093 281.081 305.255 290.031 305.255 290.031Z" fill="#FFFFFF" fill-opacity="1.000000" fill-rule="nonzero"/>
		<path id="Vector" d="M306.836 302.956C308.851 304.7 316.382 305.052 317.517 302.091C320.411 294.574 319.275 277.66 317.788 276.903C316.3 276.146 308.581 274.456 307.337 277.769C306.093 281.081 305.255 290.031 305.255 290.031C305.255 290.031 304.822 301.212 306.836 302.956Z" stroke="#2E353A" stroke-opacity="1.000000" stroke-width="1.000000" stroke-linejoin="round"/>
		<path id="Vector" d="M290.112 291.667C290.112 291.667 289.652 303.619 291.802 305.484C293.952 307.351 302.01 307.716 303.227 304.552C306.309 296.521 306.309 278.863 304.714 278.053C303.118 277.241 293.668 275.011 292.343 278.553C291.018 282.095 290.112 291.667 290.112 291.667Z" fill="#FFFFFF" fill-opacity="1.000000" fill-rule="nonzero"/>
		<path id="Vector" d="M291.802 305.484C293.952 307.351 302.01 307.716 303.227 304.552C306.309 296.521 306.309 278.863 304.714 278.053C303.118 277.241 293.668 275.011 292.343 278.553C291.018 282.095 290.112 291.667 290.112 291.667C290.112 291.667 289.652 303.619 291.802 305.484Z" stroke="#2E353A" stroke-opacity="1.000000" stroke-width="1.000000" stroke-linejoin="round"/>
		<path id="Vector" d="M275.943 298.548C275.943 298.548 275.484 310.5 277.647 312.366C279.81 314.231 288.084 314.678 289.058 311.433C290.031 308.188 292.14 285.745 290.545 284.92C288.949 284.096 279.513 281.892 278.174 285.434C276.836 288.977 275.943 298.548 275.943 298.548Z" fill="#FFFFFF" fill-opacity="1.000000" fill-rule="nonzero"/>
		<path id="Vector" d="M277.647 312.366C279.81 314.231 288.084 314.678 289.058 311.433C290.031 308.188 292.14 285.745 290.545 284.92C288.949 284.096 279.513 281.892 278.174 285.434C276.836 288.977 275.943 298.548 275.943 298.548C275.943 298.548 275.484 310.5 277.647 312.366Z" stroke="#2E353A" stroke-opacity="1.000000" stroke-width="1.000000" stroke-linejoin="round"/>
		<path id="Vector" d="M316.53 250.229C317.081 255.554 315.803 260.908 312.907 265.411C306.282 275.038 291.018 274.699 291.018 274.699L290.355 277.025C289.634 278.934 288.627 280.72 287.368 282.325C290.523 281.551 293.748 281.098 296.994 280.973C298.769 281.024 300.463 281.731 301.748 282.957C303.034 284.183 303.82 285.841 303.957 287.611C304.295 290.6 304.619 291.924 300.644 292.911C296.669 293.898 280.743 298.887 278.417 299.225C276.308 299.522 272.55 295.98 271.657 290.343C272.374 281.676 274.794 273.118 274.794 264.397C275.077 261.354 276.149 258.437 277.904 255.934M316.055 250.298L316.033 250.28C316.004 250.001 316.2 249.76 316.479 249.731C316.757 249.702 316.999 249.898 317.028 250.177L317.01 250.199L316.055 250.298ZM277.499 255.675L277.494 255.646C277.655 255.418 277.961 255.364 278.191 255.524C278.42 255.686 278.474 255.992 278.313 256.221L278.285 256.226L277.499 255.675Z" fill="#FFFFFF" fill-opacity="1.000000" fill-rule="nonzero"/>
		<path id="Vector" d="M316.53 250.229C317.081 255.554 315.803 260.908 312.907 265.411C306.282 275.038 291.018 274.699 291.018 274.699L290.355 277.025C289.634 278.934 288.627 280.72 287.368 282.325C290.523 281.551 293.748 281.098 296.994 280.973C298.769 281.024 300.463 281.731 301.748 282.957C303.034 284.183 303.82 285.841 303.957 287.611C304.295 290.6 304.619 291.924 300.644 292.911C296.669 293.898 280.743 298.887 278.417 299.225C276.308 299.522 272.55 295.98 271.657 290.343C272.374 281.676 274.794 273.118 274.794 264.397C275.077 261.354 276.149 258.437 277.904 255.934" stroke="#2E353A" stroke-opacity="1.000000" stroke-width="1.000000" stroke-linejoin="round" stroke-linecap="round"/>
		<path id="Vector" d="M315.232 243.197C315.633 244.462 315.94 245.755 316.152 247.064M314.781 243.361L314.756 243.348C314.671 243.081 314.815 242.805 315.081 242.721C315.348 242.636 315.625 242.779 315.709 243.047L315.696 243.071L314.781 243.361ZM316.622 246.968L316.645 246.984C316.69 247.261 316.508 247.513 316.232 247.558C315.955 247.603 315.703 247.42 315.658 247.144L315.675 247.121L316.622 246.968Z" fill="#FFFFFF" fill-opacity="1.000000" fill-rule="nonzero"/>
		<path id="Vector" d="M315.232 243.197C315.633 244.462 315.94 245.755 316.152 247.064" stroke="#2E353A" stroke-opacity="1.000000" stroke-width="1.000000" stroke-linejoin="round" stroke-linecap="round"/>
		<path id="Vector" d="M310.919 231.246L310.919 219.308" stroke="#2E353A" stroke-opacity="1.000000" stroke-width="1.000000" stroke-linejoin="round" stroke-linecap="round"/>
		<path id="Vector" d="M314.232 230.26L314.232 225.284" stroke="#2E353A" stroke-opacity="1.000000" stroke-width="1.000000" stroke-linejoin="round" stroke-linecap="round"/>
		<path id="Vector" d="M291.018 274.699C291.018 274.699 291.018 268.102 287.084 263.775" stroke="#2E353A" stroke-opacity="1.000000" stroke-width="1.000000" stroke-linejoin="round" stroke-linecap="round"/>
		<path id="Vector" d="M286.949 282.487C285.148 282.673 283.372 283.044 281.649 283.596" stroke="#2E353A" stroke-opacity="1.000000" stroke-width="1.000000" stroke-linejoin="round" stroke-linecap="round"/>
		<path id="Vector" d="M298.954 292.952C298.954 292.952 295.466 294.209 294.209 292.668C292.951 291.127 291.14 287.084 292.532 286.395C293.925 285.705 300.347 284.164 301.604 284.583L302.862 284.988" stroke="#2E353A" stroke-opacity="1.000000" stroke-width="0.500000" stroke-linejoin="round" stroke-linecap="round"/>
		<path id="Vector" d="M341.258 109.729L341.258 224.04L285.056 224.04L285.056 109.729M340.778 109.748L340.758 109.729C340.758 109.448 340.978 109.229 341.258 109.229C341.538 109.229 341.758 109.448 341.758 109.729L341.738 109.748L340.778 109.748ZM284.576 109.748L284.556 109.729C284.556 109.448 284.776 109.229 285.056 109.229C285.336 109.229 285.556 109.448 285.556 109.729L285.536 109.748L284.576 109.748Z" fill="#917DD7" fill-opacity="1.000000" fill-rule="nonzero"/>
		<path id="Vector" d="M341.258 109.729L341.258 224.04L285.056 224.04L285.056 109.729" stroke="#2E353A" stroke-opacity="1.000000" stroke-width="1.000000" stroke-linejoin="round" stroke-linecap="round"/>
		<path id="Vector" d="M334.917 218.227C336.336 218.227 337.486 217.076 337.486 215.657C337.486 214.239 336.336 213.089 334.917 213.089C333.499 213.089 332.349 214.239 332.349 215.657C332.349 217.076 333.499 218.227 334.917 218.227Z" fill="#FFFFFF" fill-opacity="1.000000" fill-rule="nonzero"/>
		<path id="Vector" d="M334.917 218.227C333.499 218.227 332.349 217.076 332.349 215.657C332.349 214.239 333.499 213.089 334.917 213.089C336.336 213.089 337.486 214.239 337.486 215.657C337.486 217.076 336.336 218.227 334.917 218.227Z" stroke="#2E353A" stroke-opacity="1.000000" stroke-width="1.000000" stroke-linejoin="round"/>
		<path id="Vector" d="M267.696 496.184C267.303 497.164 266.716 498.056 265.97 498.804C265.225 499.552 264.335 500.142 263.356 500.537C261.828 501.173 259.8 501.024 257.434 502.349C252.135 505.337 238.871 502.687 229.245 503.701C219.619 504.715 206.694 494.088 206.694 494.088L168.513 496.184L168.513 458.328C168.513 458.328 208.316 459.991 216.942 456.679C225.568 453.366 235.18 446.39 239.493 446.728C243.806 447.065 279.296 451.04 279.296 451.04L267.696 496.184Z" fill="#FFFFFF" fill-opacity="1.000000" fill-rule="nonzero"/>
		<path id="Vector" d="M265.97 498.804C265.225 499.552 264.335 500.142 263.356 500.537C261.828 501.173 259.8 501.024 257.434 502.349C252.135 505.337 238.871 502.687 229.245 503.701C219.619 504.715 206.694 494.088 206.694 494.088L168.513 496.184L168.513 458.328C168.513 458.328 208.316 459.991 216.942 456.679C225.568 453.366 235.18 446.39 239.493 446.728C243.806 447.065 279.296 451.04 279.296 451.04L267.696 496.184C267.303 497.164 266.716 498.056 265.97 498.804Z" stroke="#2E353A" stroke-opacity="1.000000" stroke-width="1.000000" stroke-linejoin="round"/>
		<path id="Vector" d="M277.498 343.624C285.373 344.496 292.813 347.684 298.876 352.783C304.94 357.883 309.355 364.667 311.563 372.275C313.771 379.885 313.674 387.979 311.282 395.531C308.891 403.085 304.313 409.76 298.129 414.712C291.944 419.664 284.429 422.671 276.536 423.353C268.642 424.034 260.723 422.359 253.781 418.54C246.839 414.721 241.186 408.929 237.536 401.897C233.885 394.865 232.402 386.908 233.274 379.033C234.443 368.477 239.758 358.817 248.049 352.18C256.34 345.541 266.928 342.469 277.484 343.638L277.498 343.624ZM269.548 415.389C275.868 416.093 282.254 414.907 287.9 411.981C293.546 409.057 298.197 404.522 301.266 398.954C304.335 393.385 305.684 387.031 305.142 380.695C304.6 374.36 302.192 368.327 298.221 363.36C294.251 358.395 288.897 354.716 282.837 352.792C276.776 350.868 270.281 350.785 264.173 352.552C258.065 354.319 252.618 357.858 248.521 362.721C244.424 367.584 241.861 373.552 241.156 379.871C240.215 388.346 242.676 396.848 248 403.507C253.324 410.167 261.075 414.44 269.548 415.389Z" fill="#FFFFFF" fill-opacity="1.000000" fill-rule="nonzero"/>
		<path id="Vector" d="M298.876 352.783C304.94 357.883 309.355 364.667 311.563 372.275C313.771 379.885 313.674 387.979 311.282 395.531C308.891 403.085 304.313 409.76 298.129 414.712C291.944 419.664 284.429 422.671 276.536 423.353C268.642 424.034 260.723 422.359 253.781 418.54C246.839 414.721 241.186 408.929 237.536 401.897C233.885 394.865 232.402 386.908 233.274 379.033C234.443 368.477 239.758 358.817 248.049 352.18C256.34 345.541 266.928 342.469 277.484 343.638L277.498 343.624C285.373 344.496 292.813 347.684 298.876 352.783ZM287.9 411.981C293.546 409.057 298.197 404.522 301.266 398.954C304.335 393.385 305.684 387.031 305.142 380.695C304.6 374.36 302.192 368.327 298.221 363.36C294.251 358.395 288.897 354.716 282.837 352.792C276.776 350.868 270.281 350.785 264.173 352.552C258.065 354.319 252.618 357.858 248.521 362.721C244.424 367.584 241.861 373.552 241.156 379.871C240.215 388.346 242.676 396.848 248 403.507C253.324 410.167 261.075 414.44 269.548 415.389C275.868 416.093 282.254 414.907 287.9 411.981Z" stroke="#2E353A" stroke-opacity="1.000000" stroke-width="1.000000" stroke-linejoin="round"/>
		<path id="Vector" d="M277.741 341.34C285.613 342.214 293.048 345.402 299.107 350.502C305.167 355.602 309.578 362.384 311.783 369.99C313.988 377.597 313.889 385.687 311.496 393.236C309.104 400.786 304.527 407.457 298.344 412.406C292.161 417.355 284.649 420.359 276.759 421.039C268.868 421.72 260.953 420.044 254.015 416.227C247.076 412.408 241.425 406.618 237.777 399.589C234.128 392.56 232.646 384.606 233.517 376.734C234.096 371.507 235.699 366.443 238.235 361.835C240.771 357.227 244.19 353.163 248.297 349.876C252.404 346.589 257.118 344.144 262.17 342.679C267.222 341.214 272.513 340.759 277.741 341.34ZM269.792 413.104C276.111 413.808 282.497 412.622 288.143 409.697C293.789 406.771 298.44 402.237 301.51 396.669C304.579 391.1 305.928 384.746 305.386 378.41C304.844 372.075 302.435 366.043 298.465 361.076C294.494 356.109 289.141 352.432 283.08 350.508C277.019 348.583 270.524 348.5 264.416 350.267C258.308 352.034 252.861 355.573 248.764 360.436C244.667 365.299 242.105 371.268 241.4 377.587C240.462 386.058 242.926 394.554 248.25 401.208C253.573 407.863 261.322 412.132 269.792 413.076L269.792 413.104Z" fill="#FFFFFF" fill-opacity="1.000000" fill-rule="nonzero"/>
		<path id="Vector" d="M299.107 350.502C305.167 355.602 309.578 362.384 311.783 369.99C313.988 377.597 313.889 385.687 311.496 393.236C309.104 400.786 304.527 407.457 298.344 412.406C292.161 417.355 284.649 420.359 276.759 421.039C268.868 421.72 260.953 420.044 254.015 416.227C247.076 412.408 241.425 406.618 237.777 399.589C234.128 392.56 232.646 384.606 233.517 376.734C234.096 371.507 235.699 366.443 238.235 361.835C240.771 357.227 244.19 353.163 248.297 349.876C252.404 346.589 257.118 344.144 262.17 342.679C267.222 341.214 272.513 340.759 277.741 341.34C285.613 342.214 293.048 345.402 299.107 350.502ZM288.143 409.697C293.789 406.771 298.44 402.237 301.51 396.669C304.579 391.1 305.928 384.746 305.386 378.41C304.844 372.075 302.435 366.043 298.465 361.076C294.494 356.109 289.141 352.432 283.08 350.508C277.019 348.583 270.524 348.5 264.416 350.267C258.308 352.034 252.861 355.573 248.764 360.436C244.667 365.299 242.105 371.268 241.4 377.587C240.462 386.058 242.926 394.554 248.25 401.208C253.573 407.863 261.322 412.132 269.792 413.076L269.792 413.104C276.111 413.808 282.497 412.622 288.143 409.697Z" stroke="#2E353A" stroke-opacity="1.000000" stroke-width="1.000000" stroke-linejoin="round"/>
		<path id="Vector" d="M263.299 425.158L260.224 452.921C259.987 455.059 261.528 456.983 263.666 457.22L265.56 457.43C267.698 457.666 269.622 456.125 269.859 453.988L272.934 426.226C273.171 424.088 271.63 422.163 269.492 421.927L267.598 421.717C265.46 421.48 263.536 423.021 263.299 425.158Z" fill="#917DD7" fill-opacity="1.000000" fill-rule="nonzero"/>
		<path id="Vector" d="M263.299 425.158C263.536 423.021 265.46 421.48 267.598 421.717L269.492 421.927C271.63 422.163 273.171 424.088 272.934 426.226L269.859 453.988C269.622 456.125 267.698 457.666 265.56 457.43L263.666 457.22C261.528 456.983 259.987 455.059 260.224 452.921L263.299 425.158Z" stroke="#2E353A" stroke-opacity="1.000000" stroke-width="1.000000" stroke-linejoin="round"/>
		<path id="Vector" d="M258.597 514.652L258.327 514.652C257.209 514.53 256.127 514.188 255.142 513.645C254.157 513.102 253.29 512.369 252.59 511.489C251.89 510.609 251.371 509.6 251.063 508.519C250.755 507.437 250.664 506.306 250.796 505.188L256.866 450.298C256.961 449.427 257.226 448.583 257.647 447.815C258.068 447.048 258.636 446.37 259.32 445.822C260.003 445.275 260.788 444.867 261.629 444.624C262.47 444.38 263.351 444.305 264.221 444.402L268.277 444.849C270.034 445.043 271.642 445.927 272.748 447.306C273.853 448.685 274.366 450.447 274.172 452.204L268.102 507.163C267.976 508.279 267.631 509.359 267.087 510.342C266.543 511.325 265.81 512.191 264.931 512.891C264.052 513.59 263.044 514.109 261.964 514.419C260.884 514.728 259.754 514.821 258.638 514.693L258.597 514.652Z" fill="#2E353A" fill-opacity="1.000000" fill-rule="nonzero"/>
		<path id="Vector" d="M258.327 514.652C257.209 514.53 256.127 514.188 255.142 513.645C254.157 513.102 253.29 512.369 252.59 511.489C251.89 510.609 251.371 509.6 251.063 508.519C250.755 507.437 250.664 506.306 250.796 505.188L256.866 450.298C256.961 449.427 257.226 448.583 257.647 447.815C258.068 447.048 258.636 446.37 259.32 445.822C260.003 445.275 260.788 444.867 261.629 444.624C262.47 444.38 263.351 444.305 264.221 444.402L268.277 444.849C270.034 445.043 271.642 445.927 272.748 447.306C273.853 448.685 274.366 450.447 274.172 452.204L268.102 507.163C267.976 508.279 267.631 509.359 267.087 510.342C266.543 511.325 265.81 512.191 264.931 512.891C264.052 513.59 263.044 514.109 261.964 514.419C260.884 514.728 259.754 514.821 258.638 514.693L258.597 514.652L258.327 514.652Z" stroke="#2E353A" stroke-opacity="1.000000" stroke-width="1.000000" stroke-linejoin="round"/>
		<path id="Vector" d="M262.288 490.627C262.288 490.627 271.887 490.992 273.239 492.642C274.591 494.291 274.348 500.091 271.738 500.754C265.1 502.511 250.945 501.483 250.404 500.294C249.863 499.104 248.7 492.182 251.634 491.438C255.16 490.897 258.721 490.627 262.288 490.627Z" fill="#FFFFFF" fill-opacity="1.000000" fill-rule="nonzero"/>
		<path id="Vector" d="M273.239 492.642C274.591 494.291 274.348 500.091 271.738 500.754C265.1 502.511 250.945 501.483 250.404 500.294C249.863 499.104 248.7 492.182 251.634 491.438C255.16 490.897 258.721 490.627 262.288 490.627C262.288 490.627 271.887 490.992 273.239 492.642Z" stroke="#2E353A" stroke-opacity="1.000000" stroke-width="1.000000" stroke-linejoin="round"/>
		<path id="Vector" d="M265.1 477.256C265.1 477.256 276.281 476.823 278.025 478.838C279.769 480.853 280.121 488.383 277.16 489.519C269.643 492.398 252.729 491.276 251.972 489.789C251.215 488.302 249.525 480.582 252.838 479.338C256.15 478.094 265.1 477.256 265.1 477.256Z" fill="#FFFFFF" fill-opacity="1.000000" fill-rule="nonzero"/>
		<path id="Vector" d="M278.025 478.838C279.769 480.853 280.121 488.383 277.16 489.519C269.643 492.398 252.729 491.276 251.972 489.789C251.215 488.302 249.525 480.582 252.838 479.338C256.15 478.094 265.1 477.256 265.1 477.256C265.1 477.256 276.281 476.823 278.025 478.838Z" stroke="#2E353A" stroke-opacity="1.000000" stroke-width="1.000000" stroke-linejoin="round"/>
		<path id="Vector" d="M266.736 462.073C266.736 462.073 278.688 461.627 280.554 463.777C282.419 465.927 282.784 473.984 279.634 475.188C271.522 478.284 253.946 478.271 253.121 476.688C252.297 475.106 250.079 465.643 253.622 464.305C257.164 462.966 266.736 462.073 266.736 462.073Z" fill="#FFFFFF" fill-opacity="1.000000" fill-rule="nonzero"/>
		<path id="Vector" d="M280.554 463.777C282.419 465.927 282.784 473.984 279.634 475.188C271.522 478.284 253.946 478.271 253.121 476.688C252.297 475.106 250.079 465.643 253.622 464.305C257.164 462.966 266.736 462.073 266.736 462.073C266.736 462.073 278.688 461.627 280.554 463.777Z" stroke="#2E353A" stroke-opacity="1.000000" stroke-width="1.000000" stroke-linejoin="round"/>
		<path id="Vector" d="M273.618 447.917C273.618 447.917 285.569 447.458 287.435 449.607C289.301 451.757 289.747 460.059 286.502 461.031C283.258 462.005 260.814 464.101 259.99 462.519C259.165 460.937 256.961 451.473 260.503 450.148C264.046 448.823 273.618 447.917 273.618 447.917Z" fill="#FFFFFF" fill-opacity="1.000000" fill-rule="nonzero"/>
		<path id="Vector" d="M287.435 449.607C289.301 451.757 289.747 460.059 286.502 461.031C283.258 462.005 260.814 464.101 259.99 462.519C259.165 460.937 256.961 451.473 260.503 450.148C264.046 448.823 273.618 447.917 273.618 447.917C273.618 447.917 285.569 447.458 287.435 449.607Z" stroke="#2E353A" stroke-opacity="1.000000" stroke-width="1.000000" stroke-linejoin="round"/>
		<path id="Vector" d="M227.136 488.572C231.851 488.758 236.506 487.468 240.453 484.882C250.079 478.243 249.741 462.992 249.741 462.992L252.067 462.33C253.975 461.608 255.762 460.602 257.367 459.342C256.592 462.492 256.14 465.713 256.015 468.955C256.066 470.731 256.772 472.427 257.997 473.715C259.223 475.002 260.881 475.792 262.653 475.931C265.641 476.256 266.966 476.594 267.966 472.605C268.967 468.617 273.929 452.704 274.267 450.392C274.605 448.08 271.022 444.511 265.384 443.632C256.718 444.349 248.16 446.769 239.439 446.769C236.398 447.053 233.482 448.119 230.976 449.864M227.137 489.053L227.116 489.072C226.837 489.061 226.625 488.832 226.636 488.553C226.647 488.272 226.876 488.062 227.156 488.072L227.175 488.094L227.137 489.053ZM231.266 450.247L231.261 450.274C231.032 450.435 230.725 450.38 230.565 450.15C230.405 449.921 230.46 449.614 230.69 449.454L230.718 449.459L231.266 450.247Z" fill="#FFFFFF" fill-opacity="1.000000" fill-rule="nonzero"/>
		<path id="Vector" d="M227.136 488.572C231.851 488.758 236.506 487.468 240.453 484.882C250.079 478.243 249.741 462.992 249.741 462.992L252.067 462.33C253.975 461.608 255.762 460.602 257.367 459.342C256.593 462.492 256.14 465.713 256.015 468.955C256.066 470.731 256.772 472.427 257.997 473.715C259.223 475.002 260.881 475.792 262.653 475.931C265.641 476.256 266.966 476.594 267.966 472.605C268.967 468.617 273.929 452.704 274.267 450.392C274.605 448.08 271.022 444.511 265.384 443.632C256.718 444.349 248.16 446.769 239.439 446.769C236.398 447.053 233.482 448.119 230.976 449.864" stroke="#2E353A" stroke-opacity="1.000000" stroke-width="1.000000" stroke-linejoin="round" stroke-linecap="round"/>
		<path id="Vector" d="M218.267 487.207C220.157 487.788 222.1 488.182 224.067 488.384M218.145 487.672L218.12 487.685C217.852 487.603 217.707 487.328 217.789 487.061C217.871 486.793 218.146 486.646 218.414 486.729L218.427 486.754L218.145 487.672ZM224.096 487.903L224.118 487.886C224.396 487.914 224.593 488.155 224.564 488.435C224.536 488.713 224.295 488.909 224.016 488.881L223.998 488.858L224.096 487.903Z" fill="#FFFFFF" fill-opacity="1.000000" fill-rule="nonzero"/>
		<path id="Vector" d="M218.267 487.207C220.157 487.788 222.1 488.182 224.067 488.384" stroke="#2E353A" stroke-opacity="1.000000" stroke-width="1.000000" stroke-linejoin="round" stroke-linecap="round"/>
		<path id="Vector" d="M206.315 482.894L194.377 482.894" stroke="#2E353A" stroke-opacity="1.000000" stroke-width="1.000000" stroke-linejoin="round" stroke-linecap="round"/>
		<path id="Vector" d="M205.328 486.206L200.353 486.206" stroke="#2E353A" stroke-opacity="1.000000" stroke-width="1.000000" stroke-linejoin="round" stroke-linecap="round"/>
		<path id="Vector" d="M249.768 462.993C249.768 462.993 243.171 462.993 238.844 459.059" stroke="#2E353A" stroke-opacity="1.000000" stroke-width="1.000000" stroke-linejoin="round" stroke-linecap="round"/>
		<path id="Vector" d="M257.556 458.909C257.741 457.109 258.113 455.333 258.665 453.609" stroke="#2E353A" stroke-opacity="1.000000" stroke-width="1.000000" stroke-linejoin="round" stroke-linecap="round"/>
		<path id="Vector" d="M268.021 470.915C268.021 470.915 269.278 467.427 267.737 466.169C266.195 464.912 262.153 463.101 261.463 464.493C260.774 465.886 259.232 472.321 259.652 473.564L260.071 474.822" stroke="#2E353A" stroke-opacity="1.000000" stroke-width="0.500000" stroke-linejoin="round" stroke-linecap="round"/>
		<path id="Vector" d="M84.7974 513.232L199.109 513.232L199.109 457.03L84.7974 457.03M84.8174 513.713L84.7974 513.732C84.5174 513.732 84.2974 513.513 84.2974 513.232C84.2974 512.953 84.5174 512.732 84.7974 512.732L84.8174 512.753L84.8174 513.713ZM84.8174 457.511L84.7974 457.53C84.5174 457.53 84.2974 457.311 84.2974 457.03C84.2974 456.75 84.5174 456.53 84.7974 456.53L84.8174 456.55L84.8174 457.511Z" fill="#917DD7" fill-opacity="1.000000" fill-rule="nonzero"/>
		<path id="Vector" d="M84.7974 513.232L199.109 513.232L199.109 457.03L84.7974 457.03" stroke="#2E353A" stroke-opacity="1.000000" stroke-width="1.000000" stroke-linejoin="round" stroke-linecap="round"/>
		<path id="Vector" d="M188.158 506.892C188.158 507.4 188.309 507.896 188.591 508.319C188.873 508.741 189.274 509.071 189.744 509.266C190.213 509.46 190.729 509.511 191.228 509.411C191.726 509.312 192.184 509.067 192.543 508.708C192.902 508.35 193.147 507.892 193.246 507.394C193.345 506.895 193.294 506.378 193.1 505.909C192.905 505.439 192.576 505.038 192.154 504.756C191.731 504.474 191.235 504.323 190.727 504.323C190.045 504.323 189.392 504.594 188.91 505.075C188.428 505.558 188.158 506.211 188.158 506.892Z" fill="#FFFFFF" fill-opacity="1.000000" fill-rule="nonzero"/>
		<path id="Vector" d="M188.591 508.319C188.873 508.741 189.274 509.071 189.744 509.266C190.213 509.46 190.729 509.511 191.228 509.411C191.726 509.312 192.184 509.067 192.543 508.708C192.902 508.35 193.147 507.892 193.246 507.394C193.345 506.895 193.294 506.378 193.1 505.909C192.905 505.439 192.576 505.038 192.154 504.756C191.731 504.474 191.235 504.323 190.727 504.323C190.045 504.323 189.392 504.594 188.91 505.075C188.428 505.558 188.158 506.211 188.158 506.892C188.158 507.4 188.309 507.896 188.591 508.319Z" stroke="#2E353A" stroke-opacity="1.000000" stroke-width="1.000000" stroke-linejoin="round"/>
	</g>
</svg>
