<svg width="44" height="44" viewBox="0 0 44 44" fill="none" xmlns="http://www.w3.org/2000/svg">
<g id="Subtract">
<path id="Subtract_2" fill-rule="evenodd" clip-rule="evenodd" d="M22 44C34.1503 44 44 34.1503 44 22C44 9.84974 34.1503 0 22 0C9.84974 0 0 9.84974 0 22C0 34.1503 9.84974 44 22 44ZM32.3144 13.1112C32.4556 13.2254 32.5238 13.4073 32.4925 13.5862L28.9925 33.5862C28.9627 33.7567 28.8467 33.8997 28.6861 33.9641C28.5254 34.0285 28.3428 34.0052 28.2034 33.9025L18.7034 26.9025C18.5908 26.8196 18.5181 26.6932 18.5029 26.5541C18.4878 26.4151 18.5316 26.276 18.6237 26.1708L23.5721 20.5154L15.2544 25.4305C15.1332 25.5021 14.9875 25.5193 14.853 25.4779L8.35296 23.4779C8.1507 23.4157 8.00952 23.2328 8.00046 23.0214C7.9914 22.81 8.11642 22.6158 8.31261 22.5365L31.8126 13.0365C31.981 12.9684 32.1731 12.997 32.3144 13.1112Z" fill="#D9B18D"/>
</g>
</svg>
