<svg width="112" height="168" viewBox="0 0 112 168" fill="none" xmlns="http://www.w3.org/2000/svg">
<g clip-path="url(#clip0_6_130)">
<mask id="mask0_6_130" style="mask-type:alpha" maskUnits="userSpaceOnUse" x="0" y="-1" width="112" height="170">
<path d="M0 10.4044C0.50134 10.8859 1.12009 11.2278 1.79463 11.3959C2.71438 11.5305 5.85499 11.9747 6.09726 12.2169C6.33954 12.4592 7.76627 15.5953 7.52848 15.5953H6.18251C6.18251 15.5953 3.41428 13.8904 2.08626 15.2185L4.30263 16.21C4.30263 16.21 6.48759 18.0046 7.95919 18.5296C9.43079 19.0545 11.4722 18.5296 13.6571 20.3242C15.8421 22.1188 18.7449 24.6268 23.1507 30.1588C27.5566 35.6907 32.5187 39.7331 34.107 40.8099C35.7432 42.0437 37.3155 43.3599 38.8179 44.7536C38.8179 44.7536 34.107 48.2846 31.6393 50.3349C29.1717 52.3853 29.1314 56.9885 29.1314 56.9885C28.2684 58.2527 27.8372 59.7619 27.902 61.2912C28.0546 63.7498 28.5705 65.4906 27.7988 68.1018C27.0271 70.713 27.4399 72.198 28.4674 73.9927C29.4948 75.7873 27.2874 82.3915 28.5167 83.9798C29.746 85.568 30.1543 86.2814 29.8627 87.0486C29.571 87.8158 27.9693 91.3512 28.7365 92.2216C29.5037 93.092 30.9798 94.4245 30.9798 94.4245C30.9798 94.4245 26.5247 98.0138 21.6074 102.671C16.6901 107.328 11.4183 116.445 10.8396 118.374C10.2608 120.303 10.8396 123.547 10.8396 123.547C10.8396 123.547 14.9358 127.796 21.235 134.198C27.5341 140.6 34.6005 146.312 36.0407 147.819C37.1063 149.027 38.0333 150.349 38.8044 151.763L39.4191 154.989L42.4924 156.626C42.4924 156.626 45.9246 161.391 46.1804 163.029L46.9476 167.964C46.9476 167.964 48.7422 168.269 49.3748 167.399C50.0074 166.528 50.8419 158.282 50.5862 150.704C50.3305 143.126 50.483 142.103 49.1505 141.731C47.818 141.359 43.1071 142.036 42.9545 142.09C42.802 142.144 41.5188 142.243 41.5188 142.243L40.0876 141.574C37.1326 138.088 34.6455 134.232 32.6892 130.102C29.7191 123.65 27.413 122.111 23.5725 120.474C23.5725 120.474 25.6722 117.297 31.2535 114.641C36.8348 111.985 47.0283 106.444 51.5822 100.096C51.5822 100.096 57.0648 102.146 61.6232 102.859C66.1815 103.573 75.3476 105.933 79.3407 107.265C83.3337 108.598 87.3806 108.544 88.6593 107.777C89.938 107.009 91.9121 103.882 91.9121 102.24C91.9121 100.598 97.1345 91.2167 97.7446 89.2022C98.3548 87.1877 101.993 83.244 103.941 81.7589C105.888 80.2739 106.633 76.2808 106.633 76.2808C106.633 76.2808 111.702 72.3865 111.702 71.9243C111.702 71.4622 110.778 68.2902 105.708 68.6985C100.638 69.1068 98.6419 71.7718 94.9046 72.8486C91.1673 73.9254 89.9694 76.7923 90.759 78.6363C91.5487 80.4803 93.9849 81.2968 92.9575 82.6742C91.93 84.0516 89.5297 86.3622 86.9185 88.5651C84.3073 90.768 82.8178 92.6613 82.8178 96.0936C82.8178 96.0936 80.9738 96.4525 77.8511 94.5053C74.7285 92.5581 65.9213 88.0536 61.7712 84.2624C57.6211 80.4713 58.2403 76.2763 55.167 72.5973C52.0937 68.9183 50.6086 69.1158 50.7118 68.039C50.815 66.9622 51.8873 66.5539 51.9905 65.1182C52.0937 63.6825 53.8345 61.5289 54.5523 59.3844C55.2702 57.2398 56.2931 53.4935 56.1899 50.9361C56.0867 48.3788 54.7408 45.2606 54.7408 45.2606C55.2213 45.8707 55.835 46.3628 56.5348 46.6995C57.2346 47.0362 58.0021 47.2085 58.7787 47.2033C58.7787 47.2033 57.6839 46.7098 57.5493 44.9331C57.5493 44.9331 57.7871 46.1983 59.9407 47.1764C59.9407 47.1764 61.9866 45.9112 62.2244 41.7117C62.4484 42.5362 62.5066 43.3969 62.3957 44.2441C62.2848 45.0912 62.007 45.9079 61.5783 46.647C61.5783 46.647 64.5484 44.462 64.0011 38.1808C64.4081 39.097 64.6947 40.0622 64.8535 41.0522C65.5384 40.1852 65.9683 39.1447 66.095 38.0472C66.2218 36.9497 66.0405 35.8385 65.5714 34.8383C64.5204 32.505 62.956 30.4391 60.9951 28.7949C63.5259 30.1762 65.4951 32.3978 66.5629 35.0761C66.5629 35.0761 66.4597 31.4554 61.7129 27.8033L64.5125 29.6473C64.5125 29.6473 61.6097 26.0984 57.9576 22.3432C54.3056 18.5879 51.2681 16.3311 47.6834 16.708C47.6834 16.708 51.6764 8.95968 52.2552 8.63216C52.834 8.30464 54.8529 7.81112 57.6391 8.1521C60.4252 8.49308 63.8171 7.77523 63.8889 7.25478C63.9607 6.73434 63.3056 6.50552 62.3859 6.54142C61.4661 6.57731 59.2767 6.29914 59.2767 5.99406C59.2767 5.68897 60.7124 3.19443 60.9502 1.92921C61.188 0.663996 61.1207 0.255717 60.6765 0.0538207C60.2323 -0.148075 59.1421 0.188418 59.1421 0.358908C59.1421 0.529398 58.7338 2.34198 58.3211 2.40928C57.9083 2.47657 53.5069 2.92075 53.0987 3.19443C52.6904 3.46811 50.3349 5.99406 50.3349 5.99406C50.3349 5.99406 42.5597 14.4692 40.4869 16.6856C39.0561 18.2224 38.1798 20.1931 37.9968 22.2848C37.9968 23.0386 38.0283 35.0895 38.0283 35.0895C38.0283 35.0895 34.8204 31.7246 33.2859 29.8806C31.7515 28.0366 31.8996 28.1667 31.747 28.0411C31.5945 27.9155 14.7429 16.7215 13.7244 15.3396C12.706 13.9577 9.08981 10.1666 8.5245 9.9557C7.82752 9.73214 7.11725 9.55233 6.39785 9.41731L2.508 6.31709C2.508 6.31709 2.22533 7.16505 2.32852 7.34451C2.43171 7.52398 4.98908 10.0365 4.98908 10.0365C4.98908 10.0365 0 10.1531 0 10.2922V10.4044Z" fill="#0C1723"/>
</mask>
<g mask="url(#mask0_6_130)">
<rect x="-55" y="-29" width="203" height="235" fill="#2E2F39"/>
</g>
</g>
<defs>
<clipPath id="clip0_6_130">
<rect width="111.738" height="168" fill="white"/>
</clipPath>
</defs>
</svg>
