<svg width="92" height="168" viewBox="0 0 92 168" fill="none" xmlns="http://www.w3.org/2000/svg">
<g clip-path="url(#clip0_6_126)">
<mask id="mask0_6_126" style="mask-type:alpha" maskUnits="userSpaceOnUse" x="-1" y="-1" width="93" height="170">
<path fill-rule="evenodd" clip-rule="evenodd" d="M29.1027 0.0614243C29.0234 0.203939 28.9731 0.360745 28.9546 0.522807C28.9362 0.684868 28.95 0.848978 28.9953 1.00568L29.0951 1.22063L28.7573 1.17457C28.4676 1.13454 28.1725 1.16376 27.8963 1.25984C27.6201 1.35592 27.3705 1.51612 27.1682 1.7273C26.9072 1.94993 26.4619 2.32609 26.1702 2.5564C25.896 2.73555 25.6715 2.98114 25.5177 3.27034C25.4371 3.4683 25.3257 3.65226 25.1876 3.8154C24.8396 4.24751 24.6743 4.79849 24.727 5.35077V6.0033L24.3892 5.8037C23.9359 5.61153 23.4655 5.46246 22.9843 5.35844C21.1188 4.93622 19.2534 4.95925 16.1366 5.45824C14.3736 5.80526 12.6946 6.49092 11.1927 7.47725C10.5001 8.09759 9.94115 8.85247 9.54983 9.69586C9.15081 10.6185 8.99997 11.6295 9.11227 12.6284L9.16599 13.7799L8.81286 14.0563C8.47634 14.3157 8.12236 14.5517 7.75345 14.7626C7.18542 15.1245 6.64641 15.53 6.14131 15.9755C5.30454 16.7432 5.20475 16.7893 4.73646 16.8814C4.34184 16.944 3.96488 17.0892 3.6302 17.3075C3.29552 17.5258 3.01066 17.8122 2.79422 18.1481C2.2321 18.7646 1.83818 19.5154 1.65038 20.3283C1.57444 21.173 1.55137 22.0217 1.58129 22.8693C1.58129 24.7885 1.58127 24.8653 1.39703 25.2875C1.09504 26.0174 0.943608 26.8007 0.951784 27.5906C0.954824 28.3961 1.10306 29.1945 1.38937 29.9474L1.58895 30.6383L1.34329 31.7591C1.07343 32.6922 1.09217 33.685 1.39703 34.6072C1.8039 36.703 1.78088 36.6493 3.42373 39.3592C3.89643 39.9924 4.2264 40.7205 4.39099 41.4933C4.50615 41.9923 4.82092 43.0287 5.08193 43.7964C5.34294 44.5641 5.6884 45.6005 5.84961 46.0994C6.01083 46.5984 6.92437 49.1702 7.89165 51.6805C8.85894 54.1908 9.75712 56.6935 9.87995 57.1771C10.1682 58.2819 10.3025 59.4211 10.2791 60.5626C10.2791 61.3764 10.2791 61.5069 10.0565 61.86C9.4961 62.8196 9.37328 63.9788 9.61126 65.6984C9.68035 66.2128 9.74175 66.8192 9.74175 67.0342C9.42592 68.4837 8.86793 69.8696 8.09124 71.1336C7.06791 73.1259 5.73036 74.9405 4.12998 76.5074C0.890357 79.8238 0.253184 80.6606 0.153385 81.7507C0.107324 82.2804 0.11501 82.3111 0.329961 82.4723C1.03956 82.8777 1.79119 83.2046 2.57159 83.4473C2.80716 83.5072 3.03806 83.5842 3.2625 83.6776C3.27724 83.8747 3.25378 84.0728 3.19341 84.261C2.97336 85.6855 2.88088 87.1268 2.91705 88.5677C3.17807 92.6134 4.2221 96.3751 6.71708 102.294C7.47202 103.993 8.10817 105.742 8.62094 107.53C9.31273 109.734 9.53244 112.059 9.26579 114.354C8.98621 117.44 8.90928 120.54 9.0355 123.636C9.09691 125.171 9.11994 127.474 9.10459 128.833C9.05852 131.236 9.05851 131.266 8.78215 132.165C8.43302 133.291 8.00462 134.392 7.50013 135.458C7.23144 136.072 6.87062 136.916 6.6787 137.331C6.28518 138.132 5.83093 138.902 5.31991 139.634C4.74415 140.486 3.91504 141.845 3.48513 142.705L2.02654 145.468C1.0863 147.114 0.424849 148.904 0.0689515 150.766C-0.0385243 151.456 -0.0462152 151.664 0.0305532 151.756C0.107322 151.848 0.17642 151.848 0.253188 151.756C0.329957 151.664 0.460468 151.756 0.713803 152.017C1.45588 152.614 2.2468 153.148 3.07826 153.614C3.39301 153.767 3.40069 153.79 3.4621 154.328C3.48163 154.568 3.53062 154.805 3.60796 155.034C3.77056 155.186 3.96441 155.302 4.17604 155.372C4.48852 155.492 4.7892 155.641 5.07424 155.817C5.44662 156.022 5.83118 156.204 6.22577 156.362C6.55258 156.486 6.87286 156.627 7.18537 156.784C7.32911 156.887 7.5069 156.929 7.68148 156.904C7.85607 156.878 8.0139 156.785 8.12195 156.646C8.23387 156.534 8.33656 156.413 8.42902 156.285C8.49043 156.109 8.82054 156.354 9.7955 157.329C10.2714 157.809 10.7849 158.251 11.3309 158.65C12.8 159.626 14.4413 160.313 16.1673 160.676L17.2804 160.914L17.6105 161.835L17.9483 162.749V164.377C17.9483 166.073 17.9483 166.465 18.3168 166.549C19.2017 166.756 20.0993 166.905 21.0037 166.994C21.518 167.04 22.0938 167.109 22.2934 167.156C23.7963 167.359 25.3216 167.327 26.8151 167.063C27.1989 166.979 27.4139 166.626 27.4139 166.112C27.4139 165.935 27.4138 165.804 27.4522 165.804C27.4906 165.804 27.7823 165.95 28.1431 166.112C29.5972 166.69 31.0968 167.147 32.6264 167.478C33.2638 167.547 33.906 167.56 34.5456 167.516L37.9695 167.394C39.8543 167.36 41.7346 167.196 43.5966 166.902C44.0419 166.71 44.1724 166.449 44.1878 165.758C44.2311 165.482 44.1941 165.199 44.0811 164.943C43.9681 164.687 43.784 164.469 43.5506 164.315C42.4876 163.908 41.4006 163.567 40.2956 163.294C39.3879 163.094 38.5208 162.741 37.7315 162.25C37.0145 161.818 36.3802 161.262 35.8584 160.607C35.2307 159.834 34.4245 159.226 33.5093 158.834C33.0961 158.649 32.696 158.436 32.3117 158.197L32.0046 157.959L32.2042 157.828C32.4652 157.659 32.4652 157.237 32.2042 155.794C31.6668 152.5 31.6438 150.681 32.1044 148.746C32.4939 146.975 32.7682 145.18 32.9258 143.373L33.0333 142.16L33.5553 142.206C34.6147 142.313 34.6992 142.413 34.6992 143.595C34.7182 144.215 34.5892 144.831 34.323 145.392C34.0597 145.956 33.9284 146.573 33.9392 147.196C33.9392 147.963 33.9392 147.963 34.1925 148.163C34.4458 148.363 34.4919 148.355 35.6127 148.355C37.056 148.355 37.5933 148.447 40.334 149.269C41.5694 149.716 42.8615 149.987 44.1724 150.075L44.9401 150.128V150.435C44.941 150.547 44.9662 150.657 45.0139 150.758C45.0617 150.858 45.1308 150.947 45.2165 151.019C45.5159 151.326 45.9381 151.456 47.4197 151.74C47.6809 151.781 47.9378 151.845 48.1874 151.932C47.9075 152.968 47.5376 153.978 47.0819 154.949C46.9207 155.233 46.5752 155.717 46.3142 156.101C45.7999 156.792 45.4851 157.045 43.8039 158.074C43.4115 158.293 43.0413 158.551 42.6985 158.842C42.6023 159.237 42.6401 159.652 42.8059 160.024C43.0439 160.438 44.0188 160.561 46.0379 160.423C47.3634 160.359 48.6723 160.101 49.9224 159.655C52.4173 158.888 52.8242 158.519 54.0679 156.254C54.966 154.619 55.6032 153.798 55.7414 154.044C55.8146 154.941 55.6477 155.842 55.2578 156.654C55.0121 157.122 55.0812 157.283 55.4881 157.229L55.8028 157.176L55.5648 157.552C55.12 158.22 54.6355 158.861 54.1139 159.471C53.8375 159.793 53.3462 160.4 53.0392 160.814C52.5352 161.557 51.8879 162.191 51.1353 162.68C49.7624 163.562 48.2047 164.117 46.5829 164.3C45.5389 164.446 44.8249 164.638 44.8556 164.76C44.824 164.91 44.7669 165.053 44.6867 165.183C44.574 165.387 44.5092 165.614 44.4972 165.846C44.4853 166.079 44.5265 166.312 44.6177 166.526C44.7507 166.708 44.9083 166.871 45.0859 167.01C46.0916 167.777 48.0799 168.092 51.926 168.015C55.2347 167.954 56.3325 167.754 57.3919 167.048C58.3413 166.351 59.2345 165.581 60.0635 164.745C60.414 164.349 60.8392 164.025 61.3148 163.793C61.7483 163.58 62.1687 163.342 62.5738 163.079C63.1856 162.609 63.889 162.271 64.6389 162.089C65.5524 161.897 65.5217 161.889 65.8595 162.619C66.1902 163.251 66.2907 163.978 66.1435 164.676C66.0707 165.11 66.022 165.549 65.9977 165.989C65.9132 167.071 65.9209 167.079 66.9726 167.01C68.0244 166.941 68.2854 166.864 68.508 166.649C68.7306 166.434 68.6615 166.442 68.508 165.444C68.2373 164.045 68.454 162.595 69.1221 161.337C69.5763 160.571 69.7728 159.681 69.6825 158.795C69.6291 157.684 69.3078 156.601 68.746 155.64C68.1702 154.42 68.0167 154.243 67.6405 154.289C67.571 154.312 67.496 154.311 67.4268 154.288C67.3576 154.264 67.2979 154.219 67.2567 154.159C66.805 153.295 66.4051 152.406 66.0591 151.495C66.0591 151.387 66.1666 151.395 67.6943 151.656C69.053 151.879 69.5904 151.871 69.9973 151.61L70.3351 151.403L70.9723 151.671C71.5684 151.931 72.2224 152.029 72.8684 151.955C74.3094 152.068 75.7479 151.709 76.9679 150.934C77.4745 150.643 77.5283 150.635 77.5283 150.781C77.5283 150.927 77.7586 151.057 78.4111 150.911C80.0935 150.441 81.701 149.735 83.1861 148.816C83.7931 148.47 84.4184 148.157 85.0593 147.879C85.3723 147.767 85.6672 147.609 85.9344 147.411C85.9778 147.186 85.9958 146.957 85.9882 146.727C85.993 146.372 86.042 146.019 86.134 145.676L86.2722 145.184L87.2088 144.593C87.8473 144.188 88.4439 143.72 88.9898 143.196C89.4521 142.753 89.9364 142.332 90.4407 141.937C91.4387 141.169 91.408 140.985 90.2181 140.356C89.1554 139.802 88.2134 139.043 87.4467 138.122C86.111 136.663 84.33 134.882 82.618 133.301C80.4839 131.328 80.0079 130.652 78.1194 126.937C77.3517 125.478 76.8604 124.288 75.6244 121.256C75.4555 120.841 75.0256 119.866 74.6495 119.083C74.2733 118.3 73.7896 117.11 73.5593 116.465C72.5076 113.441 72.1545 112.696 70.9492 111.092C70.1432 109.978 69.7286 109.326 69.8054 109.272C69.8821 109.218 69.9359 109.38 70.0587 109.533C70.7239 110.359 71.4557 111.13 72.2466 111.836C73.1284 111.512 73.9468 111.037 74.6648 110.431C75.2937 109.937 75.9855 109.53 76.7222 109.218C77.2826 109.042 77.2135 108.858 76.1157 107.683C75.5784 107.123 74.5036 106.079 73.7359 105.38C72.6791 104.44 71.7032 103.413 70.8187 102.309C70.3096 101.593 69.8845 100.82 69.552 100.006C69.7567 99.842 69.975 99.6956 70.2046 99.5686C70.5347 99.369 70.9723 99.085 71.1642 98.9315C71.6589 98.56 72.0674 98.086 72.3618 97.542C72.4308 97.304 72.3617 97.2579 71.9472 96.828C71.034 95.9342 70.2088 94.9547 69.4829 93.9031C68.8765 93.0817 67.9476 91.8764 67.3718 91.2316C65.7627 89.5246 64.5469 87.486 63.8098 85.259C62.9346 82.8638 62.1439 80.96 60.9847 78.4957C59.7148 75.6801 58.1721 72.9957 56.3786 70.4811C55.9312 69.8819 55.5284 69.2507 55.1733 68.5926L54.7127 67.6944L54.9507 67.0035C55.0812 66.6196 55.5725 65.4681 56.0485 64.3934L56.9083 62.4741L58.0675 62.1364C59.598 61.7952 61.0328 61.1158 62.2667 60.1481C62.8001 59.5064 63.2065 58.7691 63.4643 57.9755C63.4914 57.8236 63.546 57.6779 63.6255 57.5456C63.7637 57.6833 63.8802 57.8412 63.971 58.0139C64.3932 58.6588 65.4296 59.5493 65.6675 59.4955C65.9055 59.4418 65.9516 59.2345 65.9516 58.6127C65.97 58.2708 66.0426 57.9339 66.1665 57.6147L66.3585 57.0927L66.6809 57.3537C67.226 57.7913 68.0934 57.799 68.0934 57.3537C68.0934 57.2616 68.009 56.6628 67.9092 56.041C67.6812 55.0165 67.7641 53.9473 68.1472 52.9702C68.6769 50.9512 68.7383 49.6999 68.3544 48.3641C68.2318 47.7959 67.9678 47.2678 67.5868 46.8287L67.3104 46.5524L67.4409 45.8384C67.51 45.4392 67.5791 44.257 67.6098 43.0748C67.6635 40.7717 67.7633 40.1806 68.293 39.2978C68.9512 38.4584 69.761 37.7501 70.6805 37.2097L71.3484 36.7567L71.5327 37.2173C71.7504 37.7718 72.1138 38.2571 72.5844 38.6222C73.5663 39.2777 74.7543 39.5508 75.9238 39.3899C76.664 39.3664 77.3847 39.1465 78.0119 38.7527C78.8023 38.2921 79.43 37.5973 79.8083 36.7644C80.1116 36.354 80.2462 35.8431 80.1845 35.3365C80.2119 34.868 80.1277 34.3996 79.9388 33.97C79.7832 33.6047 79.593 33.2551 79.3707 32.926C79.1942 32.6957 79.0944 32.4961 79.1404 32.473C79.8358 32.0831 80.4892 31.6226 81.0903 31.0989C82.062 30.038 82.6651 28.6918 82.81 27.2605C82.9079 26.6567 82.8949 26.0402 82.7716 25.4411C82.6954 24.9579 82.5851 24.4807 82.4415 24.0132C81.8803 22.6906 81.0305 21.5103 79.9542 20.5586C79.3938 20.0673 79.056 19.8907 76.8834 19.0232C75.4931 18.3577 73.9524 18.0692 72.4155 18.1864C71.4182 18.443 70.4583 18.8274 69.5597 19.3303C69.3852 19.4703 69.1913 19.584 68.984 19.6681C68.1715 20.0774 67.4175 20.5938 66.7423 21.2034C66.4321 21.5149 66.1543 21.8569 65.9132 22.2245C65.4496 22.972 64.777 23.5672 63.9787 23.9364C62.4984 24.7303 61.3338 26.006 60.6776 27.5522C60.201 28.4558 59.8842 29.4349 59.741 30.4464C59.668 30.9648 59.5603 31.4777 59.4186 31.9817C59.2852 32.2651 59.216 32.5744 59.216 32.8876C59.216 33.2008 59.2852 33.5101 59.4186 33.7935C59.5414 34.0007 59.5491 34.0545 59.4186 34.1082C59.2037 34.2387 59.1192 34.185 58.7814 33.6706C58.2037 32.7183 57.3959 31.9263 56.4323 31.3676C54.1139 30.0472 52.5018 28.5502 50.1987 25.5792C49.7151 24.9421 49.0625 24.1283 48.7555 23.7522C48.4501 23.38 48.1778 22.9818 47.9417 22.5622C47.4687 21.5535 46.8925 20.5964 46.2221 19.7065C44.9898 18.3525 43.658 17.0925 42.2378 15.9371L39.9348 14.1254C38.2785 12.7258 36.6998 11.2369 35.2058 9.66515C34.6688 8.80145 34.2089 7.89206 33.8317 6.94755C33.6425 6.44198 33.5262 5.9121 33.4862 5.3738C33.4619 4.9763 33.3844 4.58385 33.2559 4.20692C32.585 3.22563 31.8131 2.31736 30.9529 1.49699C30.4308 1.01335 29.9012 0.491328 29.763 0.330114C29.5327 0.0307172 29.2333 -0.0844357 29.1027 0.0614243ZM28.7419 10.4943C29.4559 11.4615 29.7937 11.7456 30.4078 11.8991C31.0885 12.0293 31.7376 12.29 32.3193 12.6668C32.6725 13.0046 34.9832 16.1291 36.0196 17.6875C37.0732 19.1892 37.9904 20.782 38.7602 22.4471C39.1729 23.4783 39.6872 24.4658 40.2956 25.395C40.4415 25.5869 41.1477 26.3085 41.877 27.0071C42.6063 27.7057 43.4815 28.6193 43.8269 29.0338L45.4391 30.8609C46.2581 31.7185 46.991 32.6544 47.627 33.6553C47.627 33.709 47.5809 34.1927 47.5349 34.7454C47.5528 35.2811 47.4254 35.8116 47.1664 36.2808C46.9981 36.6184 46.8469 36.9643 46.7134 37.3171C46.5752 37.7317 46.5676 37.8008 46.7134 37.9083C46.8593 38.0157 46.9054 38.0004 47.3967 37.7624L47.9417 37.486L47.8803 37.8315C47.7254 38.2599 47.5273 38.6714 47.2892 39.0598C46.5752 40.242 46.5829 40.4493 47.3429 40.4493H47.6423L47.2355 40.9022C47.0128 41.1479 46.6443 41.5931 46.4217 41.8849C46.2738 42.1084 46.0896 42.3056 45.8767 42.4683C44.861 42.6247 43.8323 42.6787 42.8059 42.6295H41.0633L40.4491 42.1228C38.6889 40.7154 36.8288 39.4377 34.8834 38.2998C33.7613 37.6391 32.6889 36.8976 31.6745 36.0812C31.2139 35.6973 30.07 34.8759 29.1258 34.2464L27.4292 33.1102L27.3755 32.5652C27.2588 31.6309 27.0241 30.7151 26.6769 29.8399C26.5461 29.635 26.3766 29.4577 26.1779 29.3179C25.4594 28.8325 24.7135 28.389 23.9439 27.9898C23.798 27.9437 23.7827 27.8823 23.8211 27.5215C23.8292 27.3767 23.8498 27.2329 23.8825 27.0916C24.0186 27.1159 24.1505 27.1599 24.274 27.2221C25.0066 27.5112 25.7899 27.6495 26.5771 27.629C27.5137 27.629 27.7823 27.5599 28.1892 27.2067C28.5961 26.8536 28.7419 26.3469 28.7957 25.0879C28.8078 24.65 28.854 24.2136 28.9339 23.7829C28.9794 23.6014 28.9794 23.4116 28.9339 23.2301C28.9023 23.1492 28.892 23.0615 28.9042 22.9754C28.9162 22.8894 28.9503 22.8079 29.003 22.7388C29.1181 22.5699 29.1181 22.4778 29.003 22.0479C28.9324 21.7384 28.9142 21.4192 28.9492 21.1036C29.0183 20.6354 29.1028 20.5663 29.6094 20.5663C29.8377 20.4937 30.0488 20.3752 30.2297 20.2181C30.4105 20.061 30.5573 19.8686 30.6611 19.6527C30.7379 19.2612 30.5767 18.9388 29.9779 18.2248C29.5095 17.7297 29.1465 17.1447 28.9108 16.5052C28.9674 16.2203 29.047 15.9405 29.1488 15.6684C29.4789 14.6551 29.4252 14.2636 28.7419 12.5977C28.4425 11.83 28.051 10.9856 27.8821 10.6631L27.5751 10.072L27.8284 9.80334C28.0203 9.59606 28.0894 9.56535 28.1585 9.66515C28.2276 9.76495 28.4656 10.0951 28.7419 10.4712V10.4943ZM38.0463 52.8397C38.3917 53.1007 38.7602 53.3694 38.8677 53.4308C38.9752 53.4922 39.052 53.5613 38.4301 54.4211C38.0693 54.8971 37.3784 56.0102 36.8948 56.8854C36.4111 57.7606 35.9889 58.4208 36.0273 58.3133C36.3641 56.3778 36.5565 54.4199 36.603 52.4559V51.7573L37.0329 52.0567C37.2325 52.2179 37.7085 52.571 38.0463 52.8397Z" fill="#0F0B0D"/>
</mask>
<g mask="url(#mask0_6_126)">
<rect x="-53" y="-34" width="203" height="235" fill="#2E2F39"/>
</g>
</g>
<defs>
<clipPath id="clip0_6_126">
<rect width="91.1855" height="168" fill="white"/>
</clipPath>
</defs>
</svg>
