<svg width="109" height="168" viewBox="0 0 109 168" fill="none" xmlns="http://www.w3.org/2000/svg">
<g clip-path="url(#clip0_6_128)">
<mask id="mask0_6_128" style="mask-type:alpha" maskUnits="userSpaceOnUse" x="0" y="-1" width="110" height="169">
<path d="M105.587 53.3404C103.796 50.2914 95.9753 49.0339 89.7222 47.7161C89.171 45.2872 86.7507 43.4957 85.8119 42.5482C84.8731 41.6008 83.1505 40.0419 83.3916 38.4054C83.6328 36.7689 82.6854 37.3029 81.9016 35.2702C81.1178 33.2376 79.9464 28.8621 77.5261 27.062C75.1059 25.2619 65.4679 10.9642 61.2648 7.91523C57.0616 4.86622 50.7138 0.568296 49.5424 0.0945792C48.371 -0.379138 45.3995 0.878389 43.6769 1.89473C41.9543 2.91107 39.1378 7.20896 38.1215 12.9969C37.1052 18.7849 37.1913 27.5874 36.9501 31.0326C36.709 34.4778 36.9501 40.7309 37.6564 41.7472C38.3627 42.7636 37.1052 43.7799 36.8726 44.8738C36.6401 45.9676 32.9623 49.7229 31.6359 50.7393C30.3095 51.7556 27.6481 56.4411 27.6481 56.4411L19.6724 62.3066C17.5836 63.7472 15.6701 65.4266 13.9706 67.3107C12.0154 69.731 10.3703 73.5638 8.88887 75.4414C8.4622 75.9114 8.14631 76.4711 7.96446 77.0792C7.78261 77.6873 7.73944 78.3285 7.83808 78.9556H6.62364C6.62364 78.9556 2.79084 82.4783 1.45582 84.8986C0.120795 87.3188 2.23097 91.0741 2.7822 92.6503C3.33344 94.2265 5.12495 98.7483 6.06377 99.2134C7.00259 99.6785 8.329 102.34 7.63135 103.279C6.93369 104.218 7.31268 106.793 7.15764 108.205C7.00261 109.618 4.57373 112.348 3.71243 113.442C2.85112 114.536 0.267195 115.707 0.0346434 116.724C-0.0363934 117.361 0.0596636 118.006 0.313368 118.595C0.567073 119.184 0.96971 119.697 1.48165 120.083C2.37996 120.976 3.13268 122.005 3.71243 123.132C3.40053 124.121 3.21529 125.145 3.16118 126.181C3.16118 127.516 1.5247 131.581 1.51609 133.218C1.50747 134.854 1.44718 146.904 1.51609 149.789C1.58499 152.675 1.83477 158.704 1.75725 161.52C1.67973 164.337 2.29989 166.206 3.71243 166.688C5.48615 167.124 7.28762 167.437 9.1042 167.627C10.5167 167.627 19.5001 167.704 20.7576 167.627C21.0804 167.638 21.3995 167.555 21.6761 167.388C21.9528 167.222 22.1753 166.978 22.3166 166.688H25.2106C25.2106 166.688 25.9943 166.378 25.8307 165.827C25.8307 165.766 25.7532 165.706 25.6584 165.637C28.6299 165.766 31.3344 165.861 32.0924 165.827C33.047 165.821 33.9947 165.664 34.9002 165.362L36.3903 165.439C36.3903 165.439 36.6229 164.423 36.2353 164.182C35.8477 163.94 32.635 162.623 32.0924 162.459L22.3941 159.72C22.3941 159.72 20.4389 157.3 19.5001 151.322C18.7336 146.439 19.3279 138.937 19.1384 134.26C19.9899 134.42 20.8561 134.489 21.7223 134.467C28.0615 134.312 31.5756 127.903 32.4369 123.373C33.2982 118.843 27.6653 111.41 24.0736 107.809C23.8556 106.269 23.9654 104.7 24.3959 103.206C24.8263 101.711 25.5677 100.324 26.5714 99.1359C28.2165 97.3358 30.6368 90.8502 30.878 89.2051C31.567 85.7119 32.4556 82.261 33.5394 78.8694C34.4192 76.178 36.2182 73.882 38.6211 72.3838C41.4375 70.5837 48.7069 72.0651 48.7069 72.0651C51.7468 73.1658 55.0467 73.3308 58.1813 72.5388C63.8142 71.29 63.7281 67.9223 65.6057 67.5347C67.7785 67.0395 70.0571 67.3453 72.0224 68.396C74.4427 69.6449 78.6631 66.5183 81.8671 66.8284C85.0712 67.1385 89.3777 64.2445 89.3777 64.2445C89.3777 64.2445 91.9616 65.2608 92.1855 65.3383C92.4095 65.4159 90.8591 66.9835 89.9978 67.8361C89.1365 68.6888 89.6102 71.824 90.2304 74.1753C90.8505 76.5267 91.6429 81.3672 91.1692 82.3835C90.6955 83.3999 87.5776 88.4816 88.2752 90.5056C88.9729 92.5297 88.8265 94.4935 87.1039 95.8285C85.3813 97.1635 85.4674 100.436 85.4674 100.436C84.562 101.14 83.6992 101.896 82.8835 102.702C81.6346 103.959 83.8223 106.931 86.165 110.135C88.5078 113.339 89.3777 117.025 90.9367 120.763C92.4956 124.501 97.5859 128.661 97.5859 128.661C97.5859 128.661 100.17 128.661 101.031 128.188C101.514 127.772 101.867 127.226 102.048 126.615C102.228 126.004 102.228 125.354 102.047 124.742C101.574 123.804 101.031 117.551 101.341 114.407C101.555 111.446 102.16 108.527 103.141 105.725C104.08 103.46 104.545 101.349 105.88 99.7905C107.215 98.2315 107.207 89.6271 107.284 85.8718C107.362 82.1166 107.913 73.5983 108.852 65.4676C109.791 57.3368 107.388 56.3894 105.587 53.3404ZM13.4193 163.673C12.0929 163.441 7.39018 161.718 7.39018 161.718C7.39018 161.718 6.77005 156.326 7.39018 153.277C7.90697 150.762 9.75878 142.597 10.6029 138.678C11.5589 144.122 12.6355 150.151 12.6355 150.151L15.8396 163.622C15.0367 163.721 14.2257 163.738 13.4193 163.673ZM68.7581 49.9296C68.7581 49.9296 67.4231 49.9296 62.2294 47.5869C62.3931 44.4001 57.3286 28.931 57.5439 29.4995C58.543 32.1782 63.9864 35.0205 63.9864 35.0205C63.9864 35.0205 66.2517 42.3932 66.9149 43.065C67.5781 43.7369 69.6022 42.8928 69.6022 42.8928L70.4635 44.5723L68.7581 49.9296Z" fill="#09203F"/>
</mask>
<g mask="url(#mask0_6_128)">
<rect x="-54.7767" y="-29" width="203" height="235" fill="#2E2F39"/>
</g>
</g>
<defs>
<clipPath id="clip0_6_128">
<rect width="109.007" height="167.67" fill="white"/>
</clipPath>
</defs>
</svg>
