<?xml version="1.0" standalone="no"?>
<!DOCTYPE svg PUBLIC "-//W3C//DTD SVG 20010904//EN"
 "http://www.w3.org/TR/2001/REC-SVG-20010904/DTD/svg10.dtd">
<svg version="1.0" xmlns="http://www.w3.org/2000/svg"
 width="30.000000pt" height="30.000000pt" viewBox="0 0 30.000000 30.000000"
 preserveAspectRatio="xMidYMid meet">

<g transform="translate(0.000000,30.000000) scale(0.100000,-0.100000)"
fill="#000000" stroke="none">
<path d="M107 252 c-22 -24 -22 -72 1 -112 10 -19 13 -34 7 -36 -43 -16 -80
-42 -83 -57 -3 -15 8 -17 118 -17 110 0 121 2 118 18 -2 9 -22 26 -45 37 -45
20 -54 43 -28 65 8 7 15 29 15 50 0 29 -6 41 -25 54 -32 21 -58 20 -78 -2z"/>
</g>
</svg>
