<svg width="95" height="22" viewBox="0 0 95 22" fill="none" xmlns="http://www.w3.org/2000/svg">
<path d="M77.6729 8.68394L85.5398 16.9108L93.4068 8.68394" stroke="black" stroke-width="2.8125" stroke-linecap="round"/>
<path d="M2 8.68394L9.86698 16.9108L17.734 8.68394" stroke="black" stroke-width="2.8125" stroke-linecap="round"/>
<path d="M38.9153 17.5674C38.6692 17.5674 38.4664 17.4398 38.3069 17.1846C38.1702 16.9658 38.0471 16.6012 37.9377 16.0908L37.6917 14.915C37.5048 14.1859 37.2086 12.5771 36.803 10.0889L35.4358 14.2109L35.0325 15.5098C34.8684 16.0247 34.6975 16.4463 34.5198 16.7744C34.3284 17.1208 34.0709 17.2939 33.7473 17.2939C33.4784 17.2939 33.2665 17.1481 33.1116 16.8564C33.0113 16.665 32.9202 16.4212 32.8381 16.125L32.6399 15.3662C32.1796 13.7575 31.774 12.0348 31.4231 10.1982L31.177 11.4219L30.2952 15.0312C30.2587 15.4551 30.1448 16.0817 29.9534 16.9111C29.8167 17.2666 29.5911 17.4443 29.2766 17.4443C29.0533 17.4443 28.8756 17.3646 28.7434 17.2051C28.6295 17.0684 28.5725 16.8997 28.5725 16.6992C28.5725 15.9382 28.7297 15.0039 29.0442 13.8965L29.7961 11.1416L30.1926 8.98828C30.3931 7.98112 30.6051 7.32259 30.8284 7.0127C31.0107 6.74837 31.2362 6.61621 31.5051 6.61621C31.8014 6.61621 32.0224 6.78483 32.1682 7.12207C32.3459 7.52767 32.5374 8.35482 32.7424 9.60352C32.984 11.1029 33.3599 12.7253 33.8704 14.4707C34.5448 12.7161 35.1282 10.8887 35.6204 8.98828L35.8254 7.99023C35.9075 7.58919 36.0146 7.26562 36.1467 7.01953C36.3245 6.68229 36.5683 6.51367 36.8782 6.51367C37.2701 6.51367 37.5686 6.89193 37.7737 7.64844C37.8466 7.9082 37.9355 8.44596 38.0403 9.26172C38.3092 11.3216 38.6441 13.0807 39.0452 14.5391L39.3801 15.7148C39.5533 16.3438 39.6399 16.7311 39.6399 16.877C39.6399 17.0729 39.5647 17.237 39.4143 17.3691C39.2685 17.5013 39.1021 17.5674 38.9153 17.5674ZM44.3088 17.3145C43.2789 17.3145 42.4449 17.057 41.8069 16.542C41.1096 15.9723 40.761 15.1748 40.761 14.1494C40.761 12.9645 41.0481 11.971 41.6223 11.1689C42.2467 10.2939 43.0806 9.85645 44.1243 9.85645C44.8808 9.85645 45.4983 9.98405 45.9768 10.2393C46.5647 10.5537 46.8586 11.0368 46.8586 11.6885C46.8586 12.1442 46.6012 12.5589 46.0862 12.9326C45.8583 13.0967 45.3752 13.3519 44.637 13.6982L42.0256 14.9355C42.2808 15.3138 42.5976 15.5986 42.9758 15.79C43.3586 15.9814 43.803 16.0771 44.3088 16.0771C44.6233 16.0771 44.9924 16.0179 45.4163 15.8994C45.954 15.749 46.3004 15.5531 46.4553 15.3115C46.6103 15.0654 46.7766 14.9424 46.9543 14.9424C47.1139 14.9424 47.2551 15.0039 47.3782 15.127C47.5058 15.2454 47.5696 15.3844 47.5696 15.5439C47.5696 16.0498 47.1617 16.485 46.3459 16.8496C45.6487 17.1595 44.9696 17.3145 44.3088 17.3145ZM44.1243 11.0869C43.5683 11.0869 43.1057 11.3034 42.7366 11.7363C42.3674 12.1647 42.0917 12.8118 41.9094 13.6777L44.0081 12.6797C44.8329 12.2786 45.4208 11.93 45.7717 11.6338C45.3798 11.2692 44.8306 11.0869 44.1243 11.0869ZM54.843 16.5693C54.843 16.7699 54.7792 16.9316 54.6516 17.0547C54.524 17.1823 54.3622 17.2461 54.1663 17.2461C53.9657 17.2461 53.8017 17.1823 53.6741 17.0547C53.5465 16.9316 53.4827 16.7699 53.4827 16.5693C53.4827 16.2184 53.4713 15.373 53.4485 14.0332C53.1112 14.0195 52.9472 14.0127 52.9563 14.0127C51.8808 14.0127 50.8417 14.1357 49.8391 14.3818C49.8391 14.6416 49.8163 15.0244 49.7708 15.5303C49.7252 16.0179 49.7024 16.4007 49.7024 16.6787C49.7024 16.8792 49.6386 17.0433 49.511 17.1709C49.3879 17.2985 49.2262 17.3623 49.0256 17.3623C48.8297 17.3623 48.6679 17.2985 48.5403 17.1709C48.4127 17.0433 48.3489 16.8792 48.3489 16.6787C48.3489 16.5146 48.3694 16.2913 48.4104 16.0088C48.456 15.7217 48.4788 15.4961 48.4788 15.332C48.4788 15.0586 48.4719 14.6484 48.4583 14.1016C48.4446 13.5501 48.4377 13.1377 48.4377 12.8643C48.4377 12.5726 48.4377 12.1488 48.4377 11.5928C48.4423 11.0368 48.4446 10.613 48.4446 10.3213C48.4446 10.1208 48.5084 9.95898 48.636 9.83594C48.7636 9.70833 48.9254 9.64453 49.1213 9.64453C49.3219 9.64453 49.4859 9.70833 49.6135 9.83594C49.7411 9.95898 49.8049 10.1208 49.8049 10.3213C49.8049 10.6494 49.8095 11.0938 49.8186 11.6543C49.8323 12.2741 49.8414 12.7184 49.8459 12.9873C50.967 12.7275 52.1611 12.6227 53.428 12.6729V12.2285C53.428 11.9551 53.4371 11.6019 53.4553 11.1689C53.4736 10.6995 53.4827 10.3464 53.4827 10.1094C53.4827 9.91341 53.5465 9.75163 53.6741 9.62402C53.8017 9.49642 53.9657 9.43262 54.1663 9.43262C54.3622 9.43262 54.524 9.49642 54.6516 9.62402C54.7792 9.75163 54.843 9.91341 54.843 10.1094C54.843 10.3509 54.8339 10.7041 54.8157 11.1689C54.7974 11.6292 54.7883 11.9824 54.7883 12.2285C54.7883 12.7253 54.7974 13.4499 54.8157 14.4023C54.8339 15.3503 54.843 16.0726 54.843 16.5693ZM67.7083 12.7686C67.7083 13.8942 67.3938 14.915 66.7649 15.8311C66.0403 16.8929 65.0924 17.4238 63.9211 17.4238C62.9641 17.4238 62.1506 17.139 61.4807 16.5693C60.7698 15.9678 60.4189 15.1908 60.428 14.2383V14.1084C60.3004 14.1038 60.2001 14.1016 60.1272 14.1016C59.7125 14.1016 59.2841 14.138 58.842 14.2109C58.5914 14.2565 58.1607 14.3294 57.55 14.4297C57.4954 15.2363 57.468 16.0042 57.468 16.7334C57.468 16.9339 57.4042 17.0889 57.2766 17.1982C57.1536 17.3076 57.01 17.36 56.8459 17.3555C56.4449 17.3464 56.2444 17.139 56.2444 16.7334C56.2444 15.904 56.2808 15.013 56.3538 14.0605C56.4859 12.3151 56.552 11.4242 56.552 11.3877C56.5611 11.2829 56.5839 11.0505 56.6204 10.6904C56.6523 10.4124 56.6682 10.1686 56.6682 9.95898C56.6682 9.54427 56.871 9.33691 57.2766 9.33691C57.6822 9.33691 57.885 9.54427 57.885 9.95898C57.885 10.1823 57.8713 10.4398 57.844 10.7314C57.803 11.1143 57.7802 11.3581 57.7756 11.4629C57.7483 11.9095 57.7073 12.4746 57.6526 13.1582C58.9058 12.9577 59.7307 12.8574 60.1272 12.8574C60.2092 12.8574 60.3733 12.8643 60.6194 12.8779C60.8928 11.9437 61.3349 11.1803 61.9456 10.5879C62.6337 9.91797 63.4358 9.58301 64.3518 9.58301C66.5894 9.58301 67.7083 10.6449 67.7083 12.7686ZM66.3479 12.7686C66.3479 12.0576 66.1975 11.5677 65.8967 11.2988C65.6005 11.0299 65.0855 10.8955 64.3518 10.8955C63.6363 10.8955 63.0211 11.2578 62.5061 11.9824C62.023 12.6615 61.7815 13.4134 61.7815 14.2383C61.7815 14.8034 61.9911 15.2591 62.4104 15.6055C62.8114 15.9427 63.315 16.1113 63.9211 16.1113C64.6275 16.1113 65.22 15.749 65.6985 15.0244C66.1314 14.3636 66.3479 13.6117 66.3479 12.7686Z" fill="black"/>
</svg>
