<svg width="224" height="143" viewBox="0 0 224 143" fill="none" xmlns="http://www.w3.org/2000/svg">
<path d="M30.0825 8.50404C27.1947 4.87366 18.684 7.20188 15.6394 9.76889C12.6694 12.1605 13.647 14.679 16.2849 16.8244C17.8072 18.0669 19.5085 19.0556 21.2771 19.9623L20.0421 21.1413C19.3071 19.19 20.9525 18.537 22.5905 18.8579C25.2321 19.3131 27.676 20.2496 30.2131 20.966C44.1862 25.2493 51.0477 22.5853 44.0518 7.44067L43.1638 5.50795L45.0369 6.55639C46.104 7.22799 46.6226 8.26898 47.3017 9.23907C50.6037 14.5261 54.6109 21.2085 61.715 17.4774C62.3269 17.1826 62.9462 16.7908 63.532 16.4401C70.4085 19.8578 76.3074 14.7723 77.5498 7.88467C77.9603 5.4184 77.4678 2.47082 75.1358 1.14627C74.009 0.508248 72.6322 0.321697 71.2741 0.370202L71.2517 0.146332C78.8222 -1.16702 80.4303 6.64221 77.9416 12.2799C75.4194 18.3318 69.4272 21.5331 63.1664 18.8467L64.2633 18.7534C56.857 23.6188 51.2007 19.7198 47.3725 12.8806C46.5666 11.5151 45.895 10.101 45.104 8.76149C44.91 8.42942 44.6078 7.98168 44.3541 7.7802L45.3391 6.89593C45.9696 8.53389 46.5405 10.198 46.9733 11.9106C50.5776 25.8761 39.4999 24.2419 29.9258 22.0667C28.2282 21.6935 26.538 21.2794 24.859 20.9287C23.721 20.7384 22.5569 20.3765 21.4637 20.5593C21.4413 20.5705 21.4525 20.5779 21.5122 20.5294C21.5756 20.4847 21.6353 20.369 21.6465 20.313C21.6614 20.1974 21.6577 20.313 21.7211 20.4324L23.0046 22.7457C18.8892 20.9137 11.2852 17.8244 11.9306 12.265C13.0015 6.75788 22.1651 4.69457 26.8514 5.98553C28.2095 6.33999 29.6161 7.08994 30.2691 8.38837L30.0751 8.50404H30.0825Z" fill="#09B6BC"/>
<path d="M46.2606 42.252C46.2606 51.9417 40.7982 59.9599 33.6905 61.2508C33.0263 61.3777 32.3473 61.4411 31.657 61.4411C23.5978 61.4411 17.0571 52.8484 17.0571 42.2482C17.0571 31.6481 23.594 23.0554 31.657 23.0554C35.8993 23.0554 39.7125 25.4284 42.3802 29.2229C44.7905 32.6443 46.2643 37.2187 46.2643 42.2482L46.2606 42.252Z" fill="white"/>
<path d="M46.3726 42.252C46.3726 48.9419 43.9511 56.0982 38.3171 60.1315C31.7876 64.8327 23.5829 62.1687 19.2137 55.8557C16.3856 51.9044 15.0834 47.0577 15.0461 42.2483C15.0909 37.4388 16.3967 32.5959 19.2249 28.6446C23.6053 22.339 31.7802 19.6862 38.3245 24.365C43.9399 28.4133 46.3875 35.5584 46.3726 42.2483V42.252ZM46.1487 42.252C46.2681 33.8271 41.0893 23.3986 31.657 23.227C27.1834 23.2084 23.206 26.0664 20.8368 29.7229C16.0684 37.0807 16.0684 47.4196 20.8368 54.7774C23.206 58.4301 27.1834 61.2919 31.6533 61.277C41.0893 61.0904 46.2606 50.6918 46.1487 42.2557V42.252Z" fill="#09B6BC"/>
<path d="M46.2606 42.252C46.2606 51.9417 40.7983 59.9599 33.6905 61.2509C31.5414 57.8668 30.1795 52.9044 30.1795 47.3674C30.1795 37.1777 34.7986 28.9133 40.4998 28.9133C41.1453 28.9133 41.7721 29.014 42.3803 29.2267C44.7906 32.6481 46.2644 37.2225 46.2644 42.252H46.2606Z" fill="#09B6BC"/>
<path d="M32.8659 36.8531C36.5751 36.8531 39.5819 35.3731 39.5819 33.5473C39.5819 31.7216 36.5751 30.2416 32.8659 30.2416C29.1568 30.2416 26.1499 31.7216 26.1499 33.5473C26.1499 35.3731 29.1568 36.8531 32.8659 36.8531Z" fill="white"/>
<path d="M80.0199 42.252C80.0199 51.9417 74.5575 59.9599 67.4497 61.2508C66.7856 61.3777 66.1065 61.4411 65.4163 61.4411C57.3571 61.4411 50.8164 52.8484 50.8164 42.2482C50.8164 31.6481 57.3533 23.0554 65.4163 23.0554C69.6586 23.0554 73.4718 25.4284 76.1395 29.2229C78.5498 32.6443 80.0236 37.2187 80.0236 42.2482L80.0199 42.252Z" fill="white"/>
<path d="M80.1317 42.252C80.1317 48.9419 77.7102 56.0982 72.0762 60.1315C65.5468 64.8327 57.342 62.1687 52.9729 55.8557C50.1447 51.9044 48.8425 47.0577 48.8052 42.2483C48.85 37.4388 50.1559 32.5959 52.9841 28.6446C57.3644 22.339 65.5393 19.6862 72.0837 24.365C77.699 28.4133 80.1466 35.5584 80.1317 42.2483V42.252ZM79.9078 42.252C80.0272 33.8271 74.8485 23.3986 65.4162 23.227C60.9426 23.2084 56.9652 26.0664 54.5959 29.7229C49.8276 37.0807 49.8276 47.4196 54.5959 54.7774C56.9652 58.4301 60.9426 61.2919 65.4124 61.277C74.8484 61.0904 80.0198 50.6918 79.9078 42.2557V42.252Z" fill="#09B6BC"/>
<path d="M80.0198 42.252C80.0198 51.9417 74.5574 59.9599 67.4496 61.2509C65.3005 57.8668 63.9387 52.9044 63.9387 47.3674C63.9387 37.1777 68.5578 28.9133 74.2589 28.9133C74.9044 28.9133 75.5312 29.014 76.1394 29.2267C78.5497 32.6481 80.0235 37.2225 80.0235 42.252H80.0198Z" fill="#09B6BC"/>
<path d="M66.4088 36.0696C70.1179 36.0696 73.1248 34.5895 73.1248 32.7638C73.1248 30.938 70.1179 29.458 66.4088 29.458C62.6996 29.458 59.6927 30.938 59.6927 32.7638C59.6927 34.5895 62.6996 36.0696 66.4088 36.0696Z" fill="white"/>
<path d="M49.0814 66.37C48.3426 65.2133 47.0293 64.247 45.6935 64.1985C42.5668 64.5977 40.6602 68.4669 40.2685 71.3025C39.8804 74.4217 39.6304 77.679 39.9177 80.7945C40.0073 81.4885 40.1192 82.2123 40.3207 82.8839C40.9251 85.5815 44.0332 87.947 46.4397 85.6823C48.5217 83.6339 49.3761 80.5259 49.5105 77.6678C49.5216 77.0261 49.559 76.306 49.309 75.7724C49.2791 75.7351 49.2567 75.7052 49.2605 75.7276C49.2605 75.7426 49.2903 75.7575 49.2754 75.7575L50.1224 74.8956C50.2529 75.4105 50.2791 76.0746 50.2455 76.6045C50.0515 79.4326 49.4545 84.257 49.1635 87.1299V86.8352C49.3687 87.8836 49.8201 89.0179 50.4843 89.835C51.3648 91.0066 52.7453 91.2827 54.0811 90.9506C55.8086 90.5402 57.1257 89.1895 57.7786 87.5142C58.107 86.6374 58.3457 85.645 58.051 84.7644C56.6257 82.9436 53.7154 82.6004 51.5961 83.4287C50.4507 83.8727 49.4134 84.6413 48.5068 85.5741L48.3314 85.436C49.0403 84.3204 49.9955 83.3055 51.2118 82.619C53.7117 81.1303 58.148 81.3766 59.7561 84.1301C60.9053 86.8949 59.1778 90.6782 56.7899 92.2714C56.6518 92.3796 56.4503 92.5028 56.2936 92.5811C55.6295 92.9654 54.8422 93.2378 54.0885 93.3646C50.0776 94.1929 47.4359 90.7752 46.9434 87.1411L46.9211 86.9807L46.9434 86.8426C47.4285 83.522 48.0404 79.7274 48.615 76.4403C48.7754 75.7164 48.6336 74.8471 48.5478 74.1158L49.5105 74.28C51.0813 74.6083 50.8462 76.6119 50.6858 77.7686C50.3947 79.8244 49.7455 81.8317 48.7642 83.6637C47.074 87.0031 44.1264 88.697 40.8766 86.0554C39.2088 84.589 38.485 82.3877 38.1193 80.2908C37.6716 77.679 37.8134 75.0971 38.1343 72.5226C38.4663 68.8101 40.3207 64.7656 44.0294 63.3814C44.701 63.1612 45.4958 63.0194 46.2159 63.2545C47.6374 63.7022 48.8277 64.9074 49.294 66.2804L49.0888 66.3663L49.0814 66.37Z" fill="#09B6BC"/>
<path d="M58.3981 98.0584C50.5254 100.443 38.6679 100.148 30.9072 97.4092L30.9109 97.1853C37.2016 97.2263 45.216 97.398 51.5291 97.5957C53.2379 97.6368 56.6929 97.7561 58.4018 97.8345L58.3981 98.0584Z" fill="#09B6BC"/>
<path d="M44.7645 97.3047C46.8987 103.715 46.242 113.337 43.2646 119.4L43.0407 119.382C43.1004 117.997 43.2497 115.233 43.3429 113.852C43.5593 109.864 43.9921 104.013 44.2981 100.043L44.5406 97.286L44.7645 97.301V97.3047Z" fill="#09B6BC"/>
<path d="M47.9733 97.6255C50.3836 99.8605 51.0962 103.398 51.1074 106.569C51.1559 109.811 49.8649 112.953 48.1934 115.643C47.0256 117.486 45.66 119.441 43.3206 119.912C40.9476 120.411 38.7126 118.3 37.7575 115.994C35.8919 111.804 36.0934 107.032 37.6791 102.83C38.0709 101.793 38.5783 100.79 39.1977 99.8717C39.8133 98.9501 40.5595 98.1031 41.4513 97.4651L41.6117 97.6218C41.3207 98.0695 41.0632 98.521 40.8319 98.9837C39.2947 102.192 38.7798 105.849 38.8208 109.364C38.8022 112.255 39.5745 118.516 43.2347 118.755C46.0517 118.703 48.0292 115.128 48.4732 112.423C48.9583 109.49 49.253 106.528 49.1038 103.562C48.9732 101.595 48.6635 99.6366 47.7979 97.7636L47.9733 97.6255Z" fill="#09B6BC"/>
<path d="M50.2231 108.632C49.5814 114.367 46.6785 118.859 43.5519 119.165H43.5444C43.4922 119.158 43.4399 119.15 43.3317 119.143L44.0966 108.345L44.8018 98.4277L47.9061 98.4949C48.0441 98.5807 48.1822 98.6703 48.3165 98.771C49.8798 100.905 50.6746 104.58 50.2231 108.64V108.632Z" fill="#09B6BC" stroke="#09B6BC" stroke-width="2.23867" stroke-miterlimit="10"/>
<path d="M44.7384 98.7374L44.272 108.882L43.4064 118.964C43.4064 118.964 45.3764 108.17 44.7346 98.7411L44.7384 98.7374Z" fill="white"/>
<path d="M0.0880761 142.298C-0.120867 135.694 0.0209159 129.116 0.741022 122.531C1.04697 120.035 1.42755 117.516 2.16258 115.08C4.59154 107.091 9.05396 110.774 13.2739 114.789C20.2958 121.59 26.441 129.392 33.7913 135.799C36.015 137.631 38.388 139.649 41.1938 140.246C43.6713 140.574 46.2234 138.201 48.0367 136.567C52.5812 132.116 56.4131 126.751 60.2934 121.628C62.2597 118.994 64.2372 116.356 66.461 113.811C67.6437 112.483 68.7855 111.229 70.2891 110.158C72.6285 108.45 74.8634 109.032 76.3857 111.423C78.2625 114.516 78.9266 117.759 79.6766 121.147C80.3109 124.415 80.7773 127.687 81.0944 130.971C81.3258 133.437 81.5123 135.903 81.5384 138.377C81.5384 139.157 81.5683 139.944 81.4451 140.716C81.4228 140.776 81.434 140.828 81.3407 140.929L81.2064 140.75C81.1802 140.768 81.2101 140.716 81.2138 140.679C81.281 137.466 80.7437 134.258 80.337 131.075C79.8221 127.743 77.1096 109.076 72.2741 110.905C70.4346 111.755 69.1325 113.434 67.8042 114.938C63.6477 120.009 60.0509 125.519 56.0176 130.694C52.9618 134.534 49.8612 138.548 45.6637 141.227C43.3206 142.709 40.9662 142.951 38.4589 141.686C36.209 140.619 34.239 139.063 32.366 137.451C27.4185 133.108 23.1016 128.135 18.7064 123.258C16.5162 120.818 14.3335 118.367 12.0277 116.042C10.8673 114.893 9.68079 113.751 8.35997 112.815C7.44958 112.188 6.16607 111.427 5.22956 112.397C4.36767 113.24 3.92367 114.419 3.52071 115.542C2.7409 117.867 2.2969 120.292 1.91632 122.714C0.949965 129.195 0.528348 135.758 0.315674 142.306L0.0918072 142.302H0.0880761V142.298Z" fill="#09B6BC"/>
<path d="M17.8631 126.072C24.6127 126.034 31.1944 126.87 37.806 127.952C39.9924 128.314 42.2311 128.314 44.4175 127.952C51.029 126.874 57.6107 126.038 64.3603 126.068L64.4014 126.288L58.6069 127.441C55.7079 127.997 49.8985 129.12 47.0032 129.68C45.0667 130.06 43.1041 130.478 41.1155 130.459C39.1268 130.482 37.1642 130.06 35.2277 129.68L29.4259 128.56C26.538 128.012 20.71 126.87 17.8258 126.288L17.8668 126.068L17.8631 126.072Z" fill="#09B6BC"/>
<path opacity="0.97" d="M172.764 58.46C172.764 62.6015 171.608 66.355 169.294 69.7242C166.597 73.6307 163.075 75.5821 158.735 75.5821C155.183 75.5821 152.165 74.5336 149.684 72.4405C147.053 70.2279 145.736 67.3624 145.736 63.844C145.736 59.7062 147.001 55.9228 149.531 52.5051C152.363 48.6509 155.952 46.7219 160.291 46.7219C168.604 46.7219 172.761 50.6358 172.761 58.4637L172.764 58.46ZM167.533 58.46C167.533 55.9116 166.992 54.1617 165.91 53.2066C164.828 52.2514 162.955 51.7738 160.291 51.7738C157.627 51.7738 155.482 53.0722 153.605 55.6691C151.844 58.1316 150.963 60.8553 150.963 63.8402C150.963 65.8513 151.725 67.4855 153.251 68.7429C154.709 69.9332 156.534 70.5264 158.732 70.5264C161.28 70.5264 163.418 69.228 165.142 66.6311C166.735 64.2357 167.53 61.512 167.53 58.46H167.533Z" fill="#09B6BC"/>
<path opacity="0.97" d="M189.308 75.6045C185.872 75.6045 183.006 74.5635 180.712 72.4852C178.297 70.3063 177.092 67.4333 177.092 63.8626C177.092 60.2919 178.223 56.9489 180.488 53.3297C183.002 49.3075 185.834 47.2964 188.987 47.2964C190.629 47.2964 192.465 47.6808 194.494 48.4531C197.058 49.4418 198.341 50.6507 198.341 52.0723C198.341 52.7103 198.132 53.2737 197.714 53.7699C197.296 54.2662 196.774 54.5124 196.155 54.5124C195.67 54.5124 195.244 54.3669 194.886 54.0722C194.524 53.7774 194.177 53.4901 193.841 53.2065C192.853 52.4193 191.233 52.0238 188.991 52.0238C187.282 52.0238 185.588 53.5498 183.913 56.5981C182.387 59.3965 181.626 61.818 181.626 63.8626C181.626 66.0752 182.379 67.8176 183.887 69.0937C185.293 70.2839 187.103 70.8771 189.315 70.8771C190.323 70.8771 191.394 70.6085 192.532 70.0712L195.449 68.5116C195.953 68.243 196.311 68.1086 196.531 68.1086C197.151 68.1086 197.688 68.3549 198.14 68.8511C198.591 69.3474 198.819 69.9108 198.819 70.5488C198.819 71.7726 197.528 72.9553 194.946 74.0933C192.685 75.1007 190.804 75.6007 189.315 75.6007L189.308 75.6045Z" fill="#09B6BC"/>
<path opacity="0.97" d="M224 65.926C224 68.8773 222.843 71.0712 220.53 72.5114C218.567 73.7539 215.903 74.3732 212.534 74.3732C211.915 74.3732 211.075 74.3583 210.019 74.3247C208.796 74.2575 207.949 74.224 207.479 74.224C207.21 74.2911 206.941 74.3247 206.673 74.3247C204.964 74.3247 204.109 73.1681 204.109 70.8548C204.109 70.5376 204.203 69.5302 204.385 67.8363C204.621 65.5902 204.736 63.4858 204.736 61.527C204.736 60.1875 204.658 58.2884 204.497 55.8333C204.337 53.3782 204.259 51.4791 204.259 50.1396C204.259 48.3636 205.072 47.4756 206.699 47.4756C208.426 47.4756 209.288 48.2479 209.288 49.7889C209.288 51.55 209.396 53.9789 209.617 57.0795C210.437 57.0459 211.083 57.031 211.553 57.031C215.594 57.031 218.56 57.5757 220.452 58.6652C222.813 60.0383 223.996 62.4635 223.996 65.9297L224 65.926ZM219.15 65.926C219.15 64.0492 218.571 62.7844 217.415 62.1314C216.474 61.5792 214.799 61.3031 212.385 61.3031C211.732 61.3031 210.825 61.3367 209.669 61.4039C209.684 61.7546 209.695 62.0904 209.695 62.4113C209.695 63.6836 209.546 66.217 209.243 70.0041C210.635 70.0377 211.732 70.0526 212.538 70.0526C216.944 70.0526 219.15 68.6795 219.15 65.9297V65.926Z" fill="#09B6BC"/>
<path opacity="0.97" d="M120.118 111.849C120.118 112.587 119.887 113.192 119.428 113.673C118.969 114.151 118.376 114.389 117.656 114.389C117.204 114.389 116.529 114.367 115.633 114.326C114.738 114.285 114.063 114.263 113.611 114.263C113.107 114.263 112.488 114.311 111.749 114.412C112.119 123.243 112.302 129.236 112.302 132.388C112.302 135.743 111.414 137.418 109.638 137.418C108.966 137.418 108.384 137.202 107.891 136.765C107.395 136.328 107.149 135.784 107.149 135.131C107.149 134.478 107.175 133.538 107.223 132.265C107.272 130.993 107.298 130.038 107.298 129.4C107.298 127.187 107.13 122.21 106.794 114.464C106.242 114.431 105.175 114.416 103.601 114.416C102.142 114.416 101.127 114.315 100.56 114.113C99.5038 113.744 98.974 112.975 98.974 111.8C98.974 111.095 99.1941 110.494 99.6419 109.99C100.086 109.487 100.668 109.237 101.388 109.237H116.223C117.462 109.237 118.361 109.364 118.913 109.614C119.719 109.998 120.118 110.744 120.118 111.852V111.849Z" fill="#09B6BC"/>
<path opacity="0.97" d="M144.732 137.466C144.415 137.466 143.837 137.097 142.997 136.362C142.244 135.675 141.68 135.064 141.315 134.526C139.707 135.399 138.289 136.056 137.065 136.5C135.841 136.944 134.819 137.168 133.998 137.168C130.077 137.168 127.219 136.064 125.424 133.851C123.73 131.773 122.883 128.586 122.883 124.296C122.883 120.24 124.278 116.77 127.069 113.886C129.86 111.002 133.192 109.561 137.061 109.561C138.52 109.561 140.154 109.938 141.964 110.692C144.244 111.632 145.382 112.763 145.382 114.087C145.382 114.539 145.214 114.942 144.878 115.292C144.71 115.93 144.579 116.975 144.49 118.434C144.4 119.893 144.344 121.762 144.326 124.042C144.311 126.12 144.453 127.762 144.755 128.971C144.923 129.709 145.449 131.183 146.341 133.396C146.456 133.698 146.65 134.142 146.919 134.728L147.068 135.157C147.068 135.828 146.833 136.381 146.363 136.817C145.893 137.254 145.348 137.47 144.729 137.47L144.732 137.466ZM139.501 119.994C139.501 119.273 139.546 118.49 139.639 117.643C139.733 116.796 139.871 115.897 140.054 114.942C139.434 114.625 138.901 114.389 138.457 114.236C138.013 114.083 137.655 114.009 137.39 114.009C134.793 114.009 132.55 115.069 130.662 117.188C128.778 119.307 127.834 121.751 127.834 124.516C127.834 127.28 128.319 129.325 129.293 130.702C130.263 132.075 131.722 132.765 133.666 132.765C135.274 132.765 136.64 132.47 137.763 131.885C138.367 131.568 139.21 130.93 140.304 129.974C139.766 125.534 139.498 122.206 139.498 119.994H139.501Z" fill="#09B6BC"/>
<path opacity="0.97" d="M184.252 135.381C184.252 135.933 184.002 136.388 183.499 136.739C182.995 137.09 182.443 137.269 181.838 137.269C180.398 137.269 179.324 135.985 178.622 133.422C178.454 132.717 178.193 131.739 177.842 130.482C177.189 128.418 176.283 124.49 175.126 118.691C174.238 120.99 172.854 124.322 170.977 128.698C170.541 129.803 170.104 130.911 169.671 132.015C169.153 133.34 168.615 134.403 168.063 135.209C167.444 136.116 166.597 136.567 165.522 136.567C164.634 136.567 163.929 136.183 163.41 135.411C163.224 135.127 162.724 133.862 161.903 131.616C160.545 127.829 159.306 123.631 158.183 119.02L157.53 121.635C156.877 123.646 155.956 126.687 154.765 130.762C154.631 131.851 154.262 133.444 153.661 135.537C153.209 136.493 152.463 136.97 151.422 136.97C149.848 136.97 149.06 136.291 149.06 134.933C149.06 133.004 149.564 130.635 150.568 127.818C152.042 123.609 152.829 121.299 152.93 120.878C153.348 119.035 153.769 117.192 154.187 115.348C154.825 112.834 155.504 111.173 156.224 110.371C156.829 109.685 157.575 109.341 158.463 109.341C159.433 109.341 160.164 109.785 160.649 110.673C161.22 111.714 161.821 113.815 162.459 116.983C163.198 120.602 164.354 124.609 165.929 129.001C168.041 124.542 169.843 120.016 171.335 115.423C171.537 114.501 171.914 113.151 172.466 111.375C173.119 109.834 174.1 109.061 175.406 109.061C177.081 109.061 178.238 110.729 178.876 114.065C178.876 114.098 178.984 114.785 179.204 116.128C180.044 121.326 181.092 125.758 182.361 129.43C183.629 133.101 184.26 135.086 184.26 135.388L184.252 135.381Z" fill="#09B6BC"/>
<path d="M145.521 79.002C145.521 79.7298 145.285 80.3307 144.811 80.8047C144.337 81.2786 143.736 81.5156 143.008 81.5156C141.721 81.5156 140.934 80.9316 140.646 79.7637C140.562 79.4421 140.52 78.3587 140.52 76.5137C140.52 75.7012 140.486 74.9902 140.418 74.3809L138.666 74.4062C138.107 74.4062 137.312 74.3893 136.279 74.3555C135.196 74.3047 134.409 74.2793 133.918 74.2793C131.938 74.2793 128.967 74.2454 125.006 74.1777C121.062 74.127 118.108 74.1016 116.145 74.1016C114.062 74.1016 112.209 74.0762 110.584 74.0254C108.976 73.9915 107.139 73.9746 105.074 73.9746C104.736 73.9746 104.245 74 103.602 74.0508C102.958 74.1185 102.476 74.1523 102.154 74.1523C100.428 74.1523 99.5645 73.5514 99.5645 72.3496C99.5645 72.1126 99.6491 71.6641 99.8184 71.0039C100.055 70.0898 100.174 68.9049 100.174 67.4492L100.225 52.1641C100.225 50.5391 100.106 48.1185 99.8691 44.9023C99.6322 41.6693 99.5137 39.2487 99.5137 37.6406C99.5137 35.8802 100.36 35 102.053 35C103.576 35 104.414 35.8125 104.566 37.4375C104.99 42.0417 105.201 49.7096 105.201 60.4414C105.201 65.7396 105.193 68.5664 105.176 68.9219C106.953 68.9219 109.052 68.9896 111.473 69.125C113.893 69.2604 115.984 69.3281 117.744 69.3281C117.744 68.6172 117.803 67.5423 117.922 66.1035C118.04 64.6647 118.1 63.5814 118.1 62.8535C118.1 60.4837 118.015 56.6921 117.846 51.4785C117.676 46.248 117.592 42.4395 117.592 40.0527C117.592 38.1908 117.846 36.9297 118.354 36.2695C118.811 35.6771 119.64 35.3809 120.842 35.3809C121.502 35.3809 122.052 35.6432 122.492 36.168C122.932 36.6758 123.152 37.2767 123.152 37.9707C123.152 39.0202 123.042 40.7467 122.822 43.1504C122.602 45.554 122.492 47.3906 122.492 48.6602C122.492 50.4883 122.577 53.349 122.746 57.2422C122.932 61.1354 123.025 64.0299 123.025 65.9258C123.025 67.1445 123 68.2786 122.949 69.3281C124.71 69.3281 126.809 69.3451 129.246 69.3789C131.701 69.3958 133.816 69.4043 135.594 69.4043C135.594 68.6934 135.636 67.61 135.721 66.1543C135.822 64.6816 135.873 63.5814 135.873 62.8535C135.873 60.4837 135.788 56.6921 135.619 51.4785C135.45 46.248 135.365 42.4395 135.365 40.0527C135.365 38.1908 135.619 36.9297 136.127 36.2695C136.584 35.6771 137.413 35.3809 138.615 35.3809C139.275 35.3809 139.826 35.6432 140.266 36.168C140.706 36.6758 140.926 37.2767 140.926 37.9707C140.926 39.0202 140.816 40.7467 140.596 43.1504C140.376 45.554 140.266 47.3906 140.266 48.6602C140.266 53.8906 140.393 60.5599 140.646 68.668V69.3281C142.424 69.3451 143.643 69.6328 144.303 70.1914C145.048 70.8177 145.42 71.9857 145.42 73.6953C145.42 74.2878 145.437 75.168 145.471 76.3359C145.505 77.5208 145.521 78.4095 145.521 79.002Z" fill="#0AB2B7"/>
</svg>
