<svg width="522.752930" height="492.000000" viewBox="0 0 522.753 492" fill="none" xmlns="http://www.w3.org/2000/svg" xmlns:xlink="http://www.w3.org/1999/xlink">
	<desc>
			Created with Pixso.
	</desc>
	<defs/>
	<path id="floor" d="M522.751 341.089C522.751 424.435 405.729 492 261.376 492C117.022 492 0 424.435 0 341.089C0 257.743 117.022 190.178 261.376 190.178C405.729 190.178 522.751 257.743 522.751 341.089Z" fill="#F5F5F5" fill-opacity="1.000000" fill-rule="evenodd"/>
	<path id="shadow" d="M507.866 372.282C507.866 395.927 474.668 415.095 433.716 415.095C392.764 415.095 359.565 395.927 359.565 372.282C359.565 348.637 392.764 329.469 433.716 329.469C474.668 329.469 507.866 348.637 507.866 372.282Z" fill="#E0E0E0" fill-opacity="1.000000" fill-rule="evenodd"/>
	<path id="shadow" d="M246.057 395.377L162.409 347.065L258.021 291.866L341.681 340.167L246.057 395.377Z" fill="#E0E0E0" fill-opacity="1.000000" fill-rule="nonzero"/>
	<path id="shadow" d="M18.2847 380.436L126.172 442.722L216.663 390.489L108.776 328.203L18.2847 380.436Z" fill="#E0E0E0" fill-opacity="1.000000" fill-rule="nonzero"/>
	<path id="Vector" d="M177.816 87.6669L177.816 81.5349C177.771 81.1807 177.634 80.8442 177.42 80.5581C177.206 80.2721 176.921 80.0461 176.595 79.902L139.569 58.6622C138.687 58.2186 137.713 57.9877 136.726 57.9877C135.738 57.9877 134.764 58.2186 133.882 58.6622L27.4722 119.76C27.145 119.904 26.8608 120.13 26.647 120.416C26.4326 120.702 26.2959 121.039 26.25 121.393L26.25 127.525C26.2949 127.879 26.4312 128.216 26.6455 128.503C26.8599 128.789 27.1445 129.015 27.4722 129.158L64.4858 150.364C65.3682 150.808 66.3423 151.039 67.3296 151.039C68.3174 151.039 69.2915 150.808 70.1738 150.364L176.583 89.2666C176.911 89.1233 177.196 88.8976 177.41 88.6113C177.624 88.3252 177.76 87.9883 177.806 87.6335L177.816 87.6669Z" fill="#F0F0F0" fill-opacity="1.000000" fill-rule="nonzero"/>
	<path id="Vector" d="M27.4717 122.992L64.4858 144.232C65.3667 144.681 66.3408 144.915 67.3296 144.915C68.3179 144.915 69.2925 144.681 70.1733 144.232L176.583 83.1346C178.149 82.2347 178.149 80.7795 176.583 79.8687L139.569 58.6622C138.687 58.2186 137.713 57.9877 136.725 57.9877C135.738 57.9877 134.764 58.2186 133.881 58.6622L27.4717 119.76C25.9053 120.637 25.9053 122.093 27.4717 122.992Z" fill="#FAFAFA" fill-opacity="1.000000" fill-rule="nonzero"/>
	<path id="Vector" d="M67.3296 144.921L67.3296 151.042C66.3403 151.056 65.3628 150.823 64.4858 150.364L27.4722 129.18C27.1445 129.037 26.8599 128.811 26.6455 128.525C26.4312 128.239 26.2949 127.902 26.25 127.547L26.25 121.404C26.272 121.156 26.3516 120.916 26.4834 120.704C26.0498 121.493 26.3721 122.404 27.4722 123.037L64.4858 144.243C65.3604 144.709 66.3394 144.942 67.3296 144.921Z" fill="#E0E0E0" fill-opacity="1.000000" fill-rule="nonzero"/>
	<path id="Vector" d="M87.2144 93.1102L118.574 110.984L170.374 81.2572L139.025 63.3723L87.2144 93.1102Z" fill="#E0E0E0" fill-opacity="1.000000" fill-rule="nonzero"/>
	<path id="Vector" d="M118.929 109.629L88.6802 92.2661C89.4663 89.7014 89.4077 86.9523 88.5137 84.4233L118.574 101.597C118.574 101.597 119.151 103.497 118.929 109.629Z" fill="#FFFFFF" fill-opacity="1.000000" fill-rule="nonzero"/>
	<path id="Vector" d="M117.03 99.1866C117.874 99.7322 118.578 100.469 119.083 101.338C119.589 102.206 119.883 103.182 119.94 104.186L119.94 110.029C119.94 111.873 118.63 112.617 117.03 111.706L87.2588 94.5543L87.2588 93.1102L116.674 109.884C117.641 110.44 118.418 109.984 118.418 108.885L118.418 103.464C118.385 102.861 118.209 102.276 117.907 101.755C117.604 101.233 117.181 100.791 116.674 100.464L87.2588 83.6345L87.2588 81.9905L117.03 99.1866Z" fill="#EBEBEB" fill-opacity="1.000000" fill-rule="nonzero"/>
	<path id="Vector" d="M87.2588 82.046L139.025 52.3081L168.83 69.4154C169.676 69.9613 170.381 70.7 170.887 71.5708C171.393 72.4417 171.685 73.4198 171.74 74.4254L171.74 80.3019C171.78 80.6613 171.721 81.0245 171.57 81.3533C171.419 81.6819 171.183 81.9635 170.885 82.1682L119.085 111.906C119.377 111.697 119.61 111.414 119.758 111.086C119.906 110.759 119.965 110.398 119.929 110.04L119.929 104.186C119.875 103.181 119.583 102.204 119.077 101.335C118.571 100.466 117.866 99.7295 117.019 99.1866L87.2588 82.046Z" fill="#FAFAFA" fill-opacity="1.000000" fill-rule="nonzero"/>
	<path id="Vector" d="M119.085 101.308C119.613 102.166 119.908 103.146 119.94 104.152L119.94 110.007C119.976 110.364 119.917 110.725 119.769 111.053C119.621 111.381 119.389 111.663 119.096 111.873L170.896 82.1349C171.194 81.9302 171.431 81.6486 171.581 81.3199C171.732 80.9913 171.791 80.6279 171.751 80.2687L171.751 74.4255C171.719 73.4192 171.424 72.4388 170.896 71.5817L119.085 101.308Z" fill="#F0F0F0" fill-opacity="1.000000" fill-rule="nonzero"/>
	<path id="Vector" d="M55.332 48.62L55.0322 52.5747L90.0469 71.3594L90.8354 69.0488L55.332 48.62Z" fill="#EBEBEB" fill-opacity="1.000000" fill-rule="nonzero"/>
	<path id="Vector" d="M90.3691 69.9708L56.4546 50.3973L50.5557 53.7966L85.1367 74.0255L90.3691 69.9708Z" fill="#FFFFFF" fill-opacity="1.000000" fill-rule="nonzero"/>
	<path id="Vector" d="M78.7715 71.926L75.439 111.229C75.4556 111.672 75.5781 112.105 75.7964 112.492C76.0146 112.879 76.3228 113.207 76.6943 113.45L96.3677 124.837C96.6816 125.01 97.0312 125.109 97.3896 125.125L85.1699 75.3475C84.814 75.328 84.4653 75.2333 84.1479 75.0698L82.7373 74.2477L78.7715 71.926Z" fill="#E0E0E0" fill-opacity="1.000000" fill-rule="nonzero"/>
	<path id="Vector" d="M86.6367 75.0253L90.147 72.0149L92.7134 69.7931C92.98 69.371 93.291 69.0599 93.124 68.6823L105.188 118.094C105.355 118.438 105.399 119.204 104.921 119.493L98.8452 124.692C98.3853 124.936 97.8628 125.036 97.3457 124.981L85.126 75.203C85.6362 75.2911 86.1611 75.2294 86.6367 75.0253Z" fill="#F0F0F0" fill-opacity="1.000000" fill-rule="nonzero"/>
	<path id="Vector" d="M92.7236 68.3601C93.4126 68.76 93.2461 69.2043 92.7236 69.8042L86.6362 75.0142C86.249 75.2167 85.8179 75.3224 85.3809 75.3224C84.9438 75.3224 84.5132 75.2167 84.1255 75.0142L78.7715 71.926C78.0713 71.5261 77.9492 70.9485 78.4937 70.6373C78.8511 70.4923 79.2373 70.4309 79.6226 70.4579C80.0073 70.4847 80.3813 70.5994 80.7153 70.793L84.9365 73.2368C85.0659 73.3022 85.2085 73.3363 85.353 73.3363C85.498 73.3363 85.6406 73.3022 85.7695 73.2368L90.2134 69.371C90.4463 69.2377 90.4463 69.0266 90.2134 68.8933L55.332 48.62L56.9985 47.6536L92.7236 68.3601Z" fill="#FAFAFA" fill-opacity="1.000000" fill-rule="nonzero"/>
	<path id="Vector" d="M45.2236 50.5195L78.583 69.782L78.583 133.257L45.2236 113.983L45.2236 50.5195Z" fill="#EBEBEB" fill-opacity="1.000000" fill-rule="nonzero"/>
	<path id="Vector" d="M77.5054 70.8374L45.2236 52.3081C43.2495 54.4014 40.6636 55.8167 37.8364 56.3517L69.8516 74.8031C69.8516 74.8031 71.918 74.3143 77.5054 70.8374Z" fill="#FFFFFF" fill-opacity="1.000000" fill-rule="nonzero"/>
	<path id="Vector" d="M66.752 74.7476C67.7144 75.2294 68.7754 75.4803 69.8516 75.4803C70.9272 75.4803 71.9888 75.2294 72.9507 74.7476L78.3716 71.5704C80.0825 70.5818 80.0825 68.9933 78.3716 68.0046L46.5679 49.7419L45.2236 50.5195L76.5166 68.5934C76.7476 68.6606 76.9502 68.801 77.0942 68.9933C77.2383 69.1855 77.3164 69.4194 77.3164 69.6598C77.3164 69.9001 77.2383 70.134 77.0942 70.3263C76.9502 70.5186 76.7476 70.6589 76.5166 70.7262L71.4624 73.6367C70.8848 73.9269 70.2476 74.078 69.6016 74.078C68.9551 74.078 68.3179 73.9269 67.7407 73.6367L36.459 55.5518L34.9258 56.4293L66.752 74.7476Z" fill="#FAFAFA" fill-opacity="1.000000" fill-rule="nonzero"/>
	<path id="Vector" d="M34.937 56.4294L34.937 119.893L66.7524 138.156C67.7144 138.638 68.7754 138.889 69.8516 138.889C70.9277 138.889 71.9888 138.638 72.9507 138.156L78.394 135.034C78.748 134.878 79.0532 134.63 79.2778 134.315C79.5029 134 79.6387 133.631 79.6714 133.246L79.6714 69.7821C79.6372 70.1685 79.498 70.5382 79.269 70.8514C79.04 71.1647 78.7295 71.4094 78.3721 71.5594L72.9507 74.7477C71.9888 75.2295 70.9277 75.4805 69.8516 75.4805C68.7754 75.4805 67.7144 75.2295 66.7524 74.7477L34.937 56.4294Z" fill="#EBEBEB" fill-opacity="1.000000" fill-rule="nonzero"/>
	<path id="Vector" d="M69.8516 75.4252C70.9297 75.4464 71.9961 75.1942 72.9507 74.692L78.3716 71.5593C78.7251 71.4061 79.0308 71.16 79.2559 70.847C79.481 70.5341 79.6167 70.166 79.6489 69.782L79.6489 133.246C79.6162 133.631 79.4805 134 79.2554 134.315C79.0308 134.63 78.7256 134.878 78.3716 135.034L72.9282 138.156C71.9736 138.658 70.9077 138.91 69.8291 138.889L69.8516 75.4252Z" fill="#F0F0F0" fill-opacity="1.000000" fill-rule="nonzero"/>
	<path id="Vector" d="M337.837 305.808C337.67 302.997 337.293 299.631 336.837 295.721C335.138 280.88 332.815 260.551 338.97 241.078C342.714 229.225 351.734 215.172 365.819 211.273C368.952 210.407 376.528 209.129 379.438 215.85C379.848 216.821 380.092 217.853 380.161 218.905C380.461 223.171 378.539 226.936 376.406 230.369C373.951 234.357 371.107 238.145 368.353 241.833C365.753 245.321 363.054 248.92 360.698 252.653C358.155 256.708 355.927 260.953 354.033 265.35L353.134 264.961C355.023 260.52 357.252 256.231 359.799 252.131C362.165 248.365 364.875 244.744 367.497 241.244C370.229 237.578 373.052 233.802 375.495 229.858C377.539 226.525 379.384 222.959 379.105 218.971C379.045 218.031 378.827 217.107 378.461 216.239C375.862 210.229 368.886 211.429 366.009 212.217C352.301 216.016 343.491 229.769 339.825 241.366C333.738 260.651 336.049 280.858 337.737 295.61C338.182 299.531 338.57 302.92 338.736 305.752L337.837 305.808Z" fill="#027E83" fill-opacity="1.000000" fill-rule="nonzero"/>
	<path id="Vector" d="M338.837 321.96C338.763 321.97 338.688 321.97 338.614 321.96C338.401 321.918 338.201 321.827 338.029 321.694C337.857 321.561 337.72 321.389 337.626 321.193C337.432 320.643 337.432 320.044 337.626 319.494C337.782 318.429 337.782 317.348 337.626 316.283C337.626 315.683 337.526 315.05 337.526 314.484L337.526 307.585C338.413 295.193 342.044 283.153 348.157 272.337C353.578 262.906 359.576 256.63 367.042 252.564C371.066 250.353 375.479 248.938 380.039 248.398C384.064 247.953 388.111 249.023 391.392 251.397C394.78 254.075 396.302 258.663 395.024 262.295C394.125 264.839 392.069 266.739 389.97 268.46C386.227 271.515 382.139 274.248 378.194 276.892C374.918 279.114 371.529 281.335 368.363 283.779C358.678 291.255 350.552 300.559 344.446 311.162C343.447 312.884 342.503 314.661 341.636 316.439L341.28 317.139C340.935 317.773 340.63 318.43 340.37 319.105C340.314 319.249 340.259 319.549 340.181 319.894C340.125 320.527 339.923 321.139 339.592 321.682C339.384 321.866 339.114 321.965 338.837 321.96ZM381.639 249.32C381.139 249.32 380.639 249.32 380.128 249.387C375.702 249.903 371.42 251.276 367.52 253.43C360.232 257.396 354.355 263.562 349.023 272.826C342.993 283.508 339.407 295.395 338.525 307.63L338.525 314.461C338.525 314.995 338.525 315.572 338.626 316.183C338.805 317.347 338.805 318.53 338.626 319.694C338.506 320.054 338.506 320.444 338.626 320.804C338.654 320.861 338.695 320.91 338.745 320.948C338.795 320.987 338.853 321.014 338.914 321.027C339.112 320.616 339.248 320.178 339.314 319.727C339.367 319.418 339.441 319.114 339.537 318.816C339.808 318.103 340.127 317.409 340.492 316.739L340.836 316.05C341.725 314.25 342.681 312.462 343.68 310.718C345.757 307.123 348.061 303.665 350.579 300.365C355.556 293.862 361.363 288.04 367.853 283.046C371.052 280.602 374.451 278.325 377.739 276.125C381.672 273.493 385.727 270.771 389.448 267.75C391.425 266.139 393.369 264.328 394.191 262.017C395.302 258.763 393.936 254.641 390.858 252.208C388.202 250.228 384.95 249.209 381.639 249.32Z" fill="#027E83" fill-opacity="1.000000" fill-rule="nonzero"/>
	<path id="Vector" d="M338.004 312.473L337.881 312.473C337.818 312.459 337.76 312.432 337.708 312.395C337.655 312.357 337.611 312.309 337.578 312.254C337.545 312.199 337.523 312.138 337.515 312.075C337.506 312.011 337.51 311.946 337.526 311.884C346.69 275.337 372.029 259.029 385.56 255.152C385.684 255.118 385.815 255.134 385.928 255.196C386.04 255.258 386.123 255.362 386.159 255.486C386.194 255.611 386.179 255.745 386.117 255.859C386.055 255.973 385.95 256.058 385.826 256.097C372.496 259.907 347.535 276.003 338.481 312.118C338.45 312.22 338.387 312.31 338.301 312.374C338.215 312.438 338.11 312.473 338.004 312.473Z" fill="#027E83" fill-opacity="1.000000" fill-rule="nonzero"/>
	<path id="Vector" d="M337.948 282.479C337.817 282.468 337.696 282.406 337.611 282.306C337.525 282.206 337.483 282.077 337.492 281.946C340.414 242.477 366.23 220.849 369.163 218.527C369.213 218.485 369.271 218.454 369.333 218.435C369.395 218.417 369.46 218.411 369.524 218.418C369.589 218.425 369.651 218.445 369.707 218.478C369.764 218.51 369.812 218.553 369.852 218.605C369.893 218.655 369.922 218.713 369.94 218.775C369.958 218.836 369.964 218.901 369.956 218.965C369.949 219.029 369.93 219.091 369.898 219.147C369.867 219.204 369.824 219.253 369.774 219.293C366.875 221.593 341.358 242.966 338.481 282.024C338.467 282.154 338.404 282.273 338.305 282.358C338.206 282.442 338.078 282.486 337.948 282.479Z" fill="#027E83" fill-opacity="1.000000" fill-rule="nonzero"/>
	<path id="Vector" d="M334.871 144.832L273.096 109.184C272.618 108.842 272.058 108.631 271.473 108.575C270.887 108.518 270.297 108.617 269.763 108.862L265.319 111.428C264.831 111.769 264.442 112.233 264.194 112.775C263.946 113.316 263.848 113.913 263.909 114.505L263.909 283.591C264 285.238 264.477 286.841 265.303 288.269C266.129 289.697 267.28 290.911 268.663 291.811L330.428 327.414C330.904 327.759 331.464 327.971 332.049 328.03C332.634 328.088 333.225 327.991 333.76 327.747L338.203 325.17C338.687 324.828 339.069 324.364 339.313 323.825C339.558 323.287 339.653 322.693 339.592 322.104L339.592 153.053C339.506 151.408 339.033 149.807 338.213 148.378C337.394 146.95 336.248 145.735 334.871 144.832Z" fill="#263238" fill-opacity="1.000000" fill-rule="nonzero"/>
	<path id="Vector" d="M277.217 286.49L272.773 289.056L272.773 303.119C272.796 303.531 272.915 303.932 273.122 304.289C273.328 304.646 273.616 304.95 273.962 305.175L276.04 306.374C276.408 306.561 276.815 306.658 277.228 306.658C277.641 306.658 278.048 306.561 278.417 306.374L280.494 305.175C281.232 304.698 281.803 304.003 282.127 303.186L286.137 291.633L277.217 286.49Z" fill="#263238" fill-opacity="1.000000" fill-rule="nonzero"/>
	<path id="Vector" d="M272.773 303.119C272.796 303.531 272.915 303.932 273.122 304.289C273.328 304.646 273.616 304.95 273.962 305.175L276.04 306.374C276.183 306.461 276.344 306.514 276.511 306.53C276.678 306.546 276.847 306.523 277.004 306.464C277.161 306.406 277.303 306.312 277.418 306.191C277.534 306.069 277.621 305.923 277.672 305.763L281.66 294.199L272.773 289.056L272.773 303.119Z" fill="#37474F" fill-opacity="1.000000" fill-rule="nonzero"/>
	<path id="Vector" d="M321.785 312.14L317.342 314.717L317.342 328.769C317.362 329.182 317.479 329.584 317.684 329.943C317.889 330.302 318.175 330.608 318.52 330.836L320.607 332.035C320.975 332.222 321.38 332.319 321.791 332.319C322.202 332.319 322.607 332.222 322.974 332.035L325.062 330.836C325.801 330.359 326.371 329.664 326.695 328.847L330.694 317.283L321.785 312.14Z" fill="#263238" fill-opacity="1.000000" fill-rule="nonzero"/>
	<path id="Vector" d="M317.342 328.769C317.362 329.182 317.479 329.584 317.684 329.943C317.889 330.302 318.175 330.608 318.52 330.836L320.607 332.035C320.751 332.122 320.913 332.175 321.08 332.191C321.247 332.207 321.415 332.184 321.572 332.125C321.729 332.067 321.871 331.973 321.987 331.852C322.103 331.73 322.189 331.584 322.24 331.424L326.251 319.86L317.364 314.717L317.342 328.769Z" fill="#37474F" fill-opacity="1.000000" fill-rule="nonzero"/>
	<path id="Vector" d="M268.952 111.884L330.716 147.432C332.1 148.334 333.25 149.55 334.076 150.98C334.902 152.41 335.38 154.014 335.471 155.663L335.471 324.748C335.588 325.342 335.517 325.958 335.267 326.509C335.017 327.06 334.6 327.519 334.075 327.822C333.552 328.125 332.945 328.255 332.343 328.196C331.74 328.137 331.172 327.891 330.716 327.492L268.952 291.877C267.571 290.977 266.421 289.763 265.597 288.335C264.773 286.906 264.297 285.304 264.208 283.657L264.208 114.617C264.09 114.024 264.16 113.409 264.41 112.858C264.659 112.307 265.075 111.848 265.599 111.547C266.123 111.245 266.728 111.115 267.33 111.175C267.931 111.236 268.499 111.484 268.952 111.884Z" fill="#37474F" fill-opacity="1.000000" fill-rule="nonzero"/>
	<path id="Vector" d="M179.261 343L246.068 381.569L339.604 327.57L335.148 324.992L268.341 286.423L179.261 337.856L179.261 343Z" fill="#455A64" fill-opacity="1.000000" fill-rule="nonzero"/>
	<path id="Vector" d="M246.068 381.569L246.068 376.426L339.604 322.426L339.604 327.57L246.068 381.569Z" fill="#263238" fill-opacity="1.000000" fill-rule="nonzero"/>
	<path id="Vector" d="M246.49 374.082L245.812 373.626C257.666 355.686 257.588 324.693 256.621 316.916C256.543 316.394 256.488 316.072 256.477 315.95L257.288 315.817C257.288 316.061 257.376 316.35 257.421 316.694C258.288 322.193 263.187 352.064 268.985 361.129L268.296 361.573C263.708 354.453 259.787 335.235 257.821 324.148C257.943 336.734 256.11 359.607 246.49 374.082Z" fill="#FAFAFA" fill-opacity="1.000000" fill-rule="nonzero"/>
	<path id="Vector" d="M285.504 346.688C284.493 346.388 260.876 339.234 258.699 328.814L259.51 328.647C261.576 338.589 285.493 345.832 285.737 345.91L285.504 346.688Z" fill="#FAFAFA" fill-opacity="1.000000" fill-rule="nonzero"/>
	<path id="Vector" d="M261.665 342.466L261.065 339.922C260.983 339.455 260.745 339.03 260.39 338.715C260.035 338.4 259.584 338.215 259.11 338.19C258.719 338.132 258.32 338.197 257.966 338.373C257.612 338.55 257.322 338.831 257.133 339.178L256.366 338.856C256.624 338.348 257.032 337.932 257.535 337.665C258.038 337.399 258.612 337.295 259.177 337.367C259.585 337.393 259.984 337.506 260.346 337.697C260.708 337.889 261.025 338.155 261.276 338.478C261.41 337.425 261.947 336.465 262.776 335.801C263.09 335.637 263.441 335.557 263.795 335.568C264.15 335.58 264.495 335.683 264.798 335.868L264.431 336.601C264.246 336.482 264.033 336.412 263.813 336.399C263.594 336.385 263.375 336.428 263.176 336.523C262.231 337.056 261.865 339.112 261.81 339.856L261.665 342.466Z" fill="#FAFAFA" fill-opacity="1.000000" fill-rule="nonzero"/>
	<path id="Vector" d="M263.986 350.942L263.253 348.632C262.42 346.021 261.032 344.521 259.388 344.421C258.701 344.408 258.025 344.596 257.443 344.961C256.861 345.326 256.398 345.852 256.11 346.476L255.366 346.121C255.718 345.341 256.292 344.683 257.019 344.23C257.744 343.777 258.588 343.55 259.443 343.577C260.432 343.633 262.131 344.166 263.398 346.743C263.675 344.71 264.509 341.444 266.653 340.078C267.422 339.656 268.288 339.44 269.165 339.45C270.042 339.459 270.902 339.695 271.663 340.133L271.318 340.878C270.682 340.501 269.959 340.295 269.221 340.277C268.481 340.26 267.75 340.432 267.097 340.778C264.242 342.555 264.053 348.432 264.053 348.498L263.986 350.942Z" fill="#FAFAFA" fill-opacity="1.000000" fill-rule="nonzero"/>
	<path id="Vector" d="M253.956 356.585L253.222 356.208C254.866 353.042 258.477 350.764 261.609 350.92C262.274 350.928 262.928 351.084 263.524 351.379C264.12 351.673 264.643 352.097 265.053 352.62C265.354 351.021 265.977 349.5 266.881 348.149C267.786 346.797 268.956 345.642 270.318 344.755C271.781 343.783 273.469 343.204 275.22 343.074C276.971 342.944 278.726 343.266 280.316 344.01L279.994 344.755C278.529 344.077 276.916 343.784 275.306 343.904C273.696 344.025 272.144 344.555 270.796 345.443C269.355 346.377 268.153 347.635 267.285 349.116C266.417 350.598 265.907 352.261 265.797 353.975L265.797 356.074L265.02 354.119C264.762 353.424 264.299 352.824 263.691 352.4C263.084 351.975 262.361 351.745 261.62 351.742C258.743 351.598 255.466 353.686 253.956 356.585Z" fill="#FAFAFA" fill-opacity="1.000000" fill-rule="nonzero"/>
	<path id="Vector" d="M249.445 368.849L248.723 368.449C249.723 366.628 255.044 357.474 261.343 355.819C262.231 355.564 263.165 355.501 264.08 355.633C264.995 355.765 265.872 356.09 266.652 356.585L266.23 357.285C265.542 356.85 264.77 356.565 263.964 356.448C263.158 356.332 262.337 356.386 261.554 356.608C256.933 357.83 252.156 363.962 249.445 368.849Z" fill="#FAFAFA" fill-opacity="1.000000" fill-rule="nonzero"/>
	<path id="Vector" d="M330.694 270.993L330.694 276.137L246.068 324.992L179.261 286.423L179.261 281.28L263.887 232.424L330.694 270.993Z" fill="#263238" fill-opacity="1.000000" fill-rule="nonzero"/>
	<path id="Vector" d="M330.694 270.993L246.068 319.849L179.261 281.28L263.887 232.424L330.694 270.993Z" fill="#455A64" fill-opacity="1.000000" fill-rule="nonzero"/>
	<path id="Vector" d="M330.694 214.428L330.694 219.56L246.068 268.427L179.261 229.847L179.261 224.715L263.887 175.848L330.694 214.428Z" fill="#263238" fill-opacity="1.000000" fill-rule="nonzero"/>
	<path id="Vector" d="M330.694 214.428L246.068 263.284L179.261 224.715L263.887 175.848L330.694 214.428Z" fill="#455A64" fill-opacity="1.000000" fill-rule="nonzero"/>
	<path id="Vector" d="M245.78 196.199L184.016 160.595C183.539 160.251 182.979 160.038 182.394 159.98C181.809 159.921 181.218 160.019 180.683 160.262C179.883 160.718 177.039 162.373 176.239 162.828C175.753 163.17 175.367 163.635 175.121 164.176C174.875 164.717 174.777 165.314 174.84 165.905L174.84 334.946C174.93 336.593 175.408 338.196 176.234 339.624C177.061 341.053 178.211 342.266 179.594 343.166L241.358 378.781C241.835 379.125 242.395 379.338 242.979 379.396C243.565 379.455 244.155 379.357 244.691 379.114C245.491 378.647 248.357 377.003 249.134 376.526C249.623 376.188 250.013 375.725 250.263 375.186C250.513 374.647 250.614 374.051 250.556 373.46L250.556 204.43C250.465 202.779 249.984 201.172 249.154 199.742C248.324 198.312 247.168 197.097 245.78 196.199Z" fill="#263238" fill-opacity="1.000000" fill-rule="nonzero"/>
	<g opacity="0.200000">
		<path id="Vector" d="M246.068 222.149L250.534 219.571L250.534 204.13L246.057 206.707L246.068 222.149Z" fill="#000000" fill-opacity="1.000000" fill-rule="nonzero"/>
	</g>
	<g opacity="0.200000">
		<path id="Vector" d="M335.159 170.715L339.625 168.149L339.625 152.708L335.148 155.286L335.159 170.715Z" fill="#000000" fill-opacity="1.000000" fill-rule="nonzero"/>
	</g>
	<path id="Vector" d="M188.17 337.856L183.727 340.422L183.727 354.486C183.749 354.898 183.868 355.299 184.075 355.656C184.281 356.013 184.569 356.316 184.915 356.541L186.993 357.741C187.361 357.927 187.768 358.024 188.181 358.024C188.594 358.024 189.001 357.927 189.37 357.741L191.447 356.541C192.182 356.066 192.752 355.375 193.08 354.564L197.09 343L188.17 337.856Z" fill="#263238" fill-opacity="1.000000" fill-rule="nonzero"/>
	<path id="Vector" d="M183.715 354.486C183.738 354.898 183.857 355.299 184.063 355.656C184.27 356.013 184.558 356.316 184.904 356.541L186.981 357.741C187.125 357.828 187.286 357.881 187.453 357.896C187.62 357.912 187.789 357.89 187.946 357.831C188.103 357.772 188.245 357.678 188.36 357.557C188.476 357.436 188.563 357.29 188.614 357.13L192.625 345.566L183.738 340.422L183.715 354.486Z" fill="#37474F" fill-opacity="1.000000" fill-rule="nonzero"/>
	<path id="Vector" d="M232.705 363.573L228.261 366.139L228.261 380.203C228.282 380.614 228.399 381.014 228.604 381.371C228.808 381.729 229.094 382.032 229.439 382.258L231.527 383.457C231.894 383.644 232.299 383.741 232.71 383.741C233.122 383.741 233.527 383.644 233.894 383.457L235.982 382.258C236.714 381.78 237.284 381.09 237.615 380.28L241.614 368.716L232.705 363.573Z" fill="#263238" fill-opacity="1.000000" fill-rule="nonzero"/>
	<path id="Vector" d="M228.261 380.147C228.282 380.558 228.399 380.958 228.604 381.316C228.808 381.673 229.094 381.977 229.439 382.202L231.527 383.402C231.671 383.489 231.832 383.542 231.999 383.557C232.166 383.573 232.334 383.551 232.492 383.492C232.649 383.433 232.791 383.339 232.906 383.218C233.022 383.097 233.109 382.951 233.16 382.791L237.159 371.227L228.272 366.083L228.261 380.147Z" fill="#37474F" fill-opacity="1.000000" fill-rule="nonzero"/>
	<path id="Vector" d="M179.55 163.172L241.325 198.776C242.707 199.679 243.856 200.895 244.68 202.325C245.504 203.755 245.979 205.359 246.068 207.007L246.068 381.569C246.068 381.569 242.636 379.536 241.325 378.781L179.561 343.166C178.178 342.266 177.027 341.052 176.201 339.624C175.375 338.196 174.897 336.593 174.806 334.946L174.806 165.905C174.688 165.312 174.758 164.697 175.007 164.146C175.256 163.596 175.672 163.137 176.196 162.835C176.72 162.533 177.326 162.403 177.927 162.464C178.529 162.525 179.096 162.772 179.55 163.172Z" fill="#37474F" fill-opacity="1.000000" fill-rule="nonzero"/>
	<g opacity="0.200000">
		<path id="Vector" d="M241.325 198.776L179.55 163.172C179.096 162.772 178.529 162.525 177.927 162.464C177.326 162.403 176.72 162.533 176.196 162.835C175.672 163.137 175.256 163.596 175.007 164.146C174.758 164.697 174.688 165.312 174.806 165.905L174.806 181.002L246.068 222.104L246.068 207.007C245.979 205.359 245.504 203.755 244.68 202.325C243.856 200.895 242.707 199.679 241.325 198.776Z" fill="#000000" fill-opacity="1.000000" fill-rule="nonzero"/>
	</g>
	<path id="Vector" d="M326.239 214.839C326.131 214.836 326.028 214.792 325.952 214.715C325.875 214.639 325.831 214.536 325.828 214.428L325.828 163.706L277.45 191.633C277.405 191.662 277.354 191.682 277.301 191.691C277.248 191.699 277.193 191.697 277.141 191.683C277.088 191.67 277.04 191.645 276.997 191.612C276.955 191.578 276.92 191.536 276.895 191.489C276.867 191.442 276.848 191.39 276.84 191.336C276.833 191.283 276.835 191.228 276.849 191.175C276.862 191.122 276.886 191.073 276.918 191.029C276.951 190.986 276.992 190.949 277.039 190.922L326.095 162.639C326.156 162.601 326.228 162.581 326.301 162.581C326.373 162.581 326.444 162.601 326.506 162.639C326.567 162.676 326.618 162.728 326.653 162.791C326.688 162.853 326.706 162.923 326.706 162.995L326.706 214.428C326.706 214.487 326.694 214.545 326.67 214.599C326.646 214.653 326.611 214.701 326.566 214.74C326.522 214.779 326.471 214.808 326.414 214.825C326.357 214.842 326.298 214.847 326.239 214.839Z" fill="#FAFAFA" fill-opacity="1.000000" fill-rule="nonzero"/>
	<path id="Vector" d="M317.33 201.975L317.208 201.975C317.102 201.951 317.01 201.886 316.951 201.795C316.894 201.703 316.874 201.592 316.896 201.486L325.184 165.594L308.743 194.066C308.718 194.113 308.683 194.155 308.641 194.189C308.599 194.222 308.55 194.247 308.499 194.262C308.447 194.276 308.392 194.28 308.339 194.273C308.286 194.266 308.234 194.249 308.188 194.221C308.14 194.195 308.098 194.159 308.064 194.116C308.03 194.073 308.005 194.023 307.991 193.971C307.976 193.918 307.973 193.863 307.979 193.809C307.987 193.754 308.004 193.702 308.032 193.655L325.806 162.795C325.856 162.71 325.936 162.646 326.029 162.613C326.123 162.581 326.225 162.582 326.317 162.617C326.408 162.654 326.483 162.723 326.528 162.811C326.572 162.898 326.585 162.999 326.562 163.095L317.675 201.675C317.654 201.754 317.61 201.826 317.549 201.879C317.487 201.933 317.411 201.966 317.33 201.975Z" fill="#FAFAFA" fill-opacity="1.000000" fill-rule="nonzero"/>
	<path id="Vector" d="M299.523 189.167C299.466 189.167 299.411 189.155 299.359 189.132C299.307 189.109 299.261 189.076 299.223 189.034C299.147 188.957 299.104 188.853 299.104 188.745C299.104 188.637 299.147 188.533 299.223 188.456L325.95 162.739C326.027 162.663 326.131 162.621 326.239 162.621C326.348 162.621 326.451 162.663 326.528 162.739C326.604 162.818 326.647 162.924 326.647 163.034C326.647 163.144 326.604 163.249 326.528 163.328L299.801 189.034C299.766 189.073 299.723 189.105 299.675 189.128C299.627 189.151 299.576 189.164 299.523 189.167Z" fill="#FAFAFA" fill-opacity="1.000000" fill-rule="nonzero"/>
	<path id="Vector" d="M326.239 206.63C326.131 206.627 326.028 206.583 325.952 206.506C325.875 206.43 325.831 206.327 325.828 206.219C325.828 199.487 318.319 199.031 317.997 199.02C317.937 199.016 317.877 198.999 317.823 198.97C317.77 198.941 317.723 198.902 317.686 198.854C317.65 198.806 317.627 198.752 317.615 198.694C317.604 198.637 317.604 198.577 317.619 198.52C317.893 197.145 317.8 195.722 317.35 194.394C316.899 193.066 316.107 191.88 315.053 190.955C314.668 190.571 314.205 190.273 313.695 190.082C313.186 189.89 312.641 189.809 312.098 189.844C311.808 189.894 311.532 190.004 311.289 190.169C311.045 190.334 310.84 190.549 310.687 190.8C310.641 190.881 310.568 190.944 310.481 190.978C310.395 191.012 310.299 191.016 310.209 190.989C310.121 190.961 310.044 190.905 309.992 190.828C309.939 190.751 309.914 190.659 309.921 190.567C309.921 190.311 310.376 184.323 305.111 183.735C305.043 183.726 304.979 183.702 304.922 183.663C304.866 183.625 304.82 183.573 304.789 183.513C304.758 183.454 304.743 183.389 304.743 183.324C304.743 183.258 304.758 183.193 304.789 183.135C304.789 183.135 307.121 178.769 306.222 176.625C306.118 176.373 305.956 176.15 305.75 175.972C305.543 175.795 305.297 175.668 305.033 175.603C304.98 175.589 304.931 175.565 304.888 175.531C304.845 175.497 304.81 175.455 304.784 175.408C304.758 175.36 304.742 175.307 304.737 175.253C304.732 175.199 304.738 175.144 304.755 175.092C304.789 174.989 304.86 174.903 304.955 174.851C305.05 174.8 305.162 174.786 305.266 174.814C305.649 174.913 306.003 175.1 306.3 175.36C306.598 175.621 306.829 175.948 306.977 176.314C307.833 178.347 306.388 181.713 305.766 182.979C309.854 183.768 310.609 187.623 310.721 189.533C311.086 189.274 311.502 189.096 311.942 189.011C312.61 188.947 313.284 189.034 313.913 189.267C314.542 189.5 315.11 189.872 315.575 190.355C316.679 191.329 317.523 192.561 318.033 193.942C318.544 195.322 318.702 196.808 318.497 198.265C320.296 198.498 326.65 199.753 326.64 206.241C326.634 206.344 326.59 206.441 326.516 206.513C326.441 206.586 326.343 206.627 326.239 206.63Z" fill="#FAFAFA" fill-opacity="1.000000" fill-rule="nonzero"/>
	<path id="Vector" d="M326.239 195.543C326.136 195.544 326.036 195.505 325.96 195.435C325.884 195.365 325.837 195.269 325.828 195.166C325.65 192.81 324.284 189.767 322.562 189.011C322.221 188.859 321.843 188.809 321.474 188.868C321.105 188.928 320.762 189.093 320.485 189.345C320.417 189.388 320.338 189.411 320.257 189.411C320.177 189.411 320.098 189.388 320.029 189.345C319.959 189.306 319.901 189.247 319.864 189.176C319.826 189.105 319.811 189.025 319.818 188.945C319.818 188.945 320.185 184.779 318.308 183.057C317.9 182.717 317.418 182.479 316.899 182.363C316.382 182.247 315.844 182.257 315.331 182.391C315.26 182.406 315.187 182.401 315.118 182.378C315.049 182.354 314.988 182.313 314.941 182.257C314.895 182.201 314.862 182.134 314.849 182.062C314.835 181.99 314.84 181.916 314.864 181.846C315.242 180.813 315.975 177.914 314.986 176.881C314.52 176.403 313.664 176.359 312.431 176.758C312.347 176.786 312.256 176.786 312.172 176.758C312.088 176.73 312.015 176.676 311.965 176.603C311.914 176.531 311.887 176.446 311.887 176.359C311.887 176.271 311.914 176.186 311.965 176.114C312.653 175.248 314.353 172.715 313.931 171.504C313.861 171.337 313.748 171.191 313.604 171.082C313.46 170.973 313.289 170.904 313.108 170.882C313.057 170.869 313.007 170.846 312.963 170.814C312.919 170.781 312.883 170.741 312.855 170.694C312.827 170.648 312.809 170.596 312.801 170.543C312.793 170.489 312.795 170.435 312.809 170.382C312.819 170.329 312.84 170.279 312.871 170.234C312.902 170.19 312.941 170.153 312.987 170.125C313.033 170.096 313.085 170.078 313.138 170.071C313.191 170.063 313.246 170.067 313.298 170.082C313.609 170.128 313.904 170.254 314.151 170.449C314.399 170.644 314.591 170.901 314.709 171.193C315.164 172.515 314.053 174.526 313.275 175.636C313.676 175.541 314.094 175.545 314.492 175.648C314.892 175.75 315.259 175.948 315.563 176.225C316.786 177.492 316.197 180.169 315.83 181.424C316.372 181.359 316.922 181.41 317.442 181.573C317.963 181.735 318.443 182.007 318.852 182.368C320.507 183.879 320.685 186.812 320.663 188.156C321.01 187.993 321.39 187.908 321.773 187.908C322.157 187.908 322.537 187.993 322.885 188.156C324.984 189.078 326.439 192.355 326.65 195.01C326.655 195.063 326.648 195.117 326.632 195.168C326.615 195.219 326.589 195.266 326.554 195.307C326.518 195.347 326.475 195.38 326.427 195.403C326.379 195.427 326.326 195.44 326.272 195.443L326.239 195.543Z" fill="#FAFAFA" fill-opacity="1.000000" fill-rule="nonzero"/>
	<path id="Vector" d="M350.167 144.999C350.114 144.409 349.905 143.844 349.562 143.362C349.219 142.879 348.753 142.497 348.212 142.255L281.994 104.019C280.521 103.274 278.895 102.886 277.245 102.886C275.595 102.886 273.968 103.274 272.496 104.019L170.651 162.828C170.111 163.071 169.645 163.453 169.302 163.935C168.958 164.417 168.749 164.982 168.696 165.572L168.696 170.715C168.749 171.305 168.958 171.87 169.302 172.352C169.645 172.835 170.111 173.217 170.651 173.459L236.87 211.684C238.341 212.434 239.968 212.825 241.619 212.825C243.27 212.825 244.897 212.434 246.368 211.684L348.212 152.886C348.753 152.643 349.219 152.261 349.562 151.779C349.905 151.297 350.114 150.732 350.167 150.142L350.167 144.999Z" fill="#37474F" fill-opacity="1.000000" fill-rule="nonzero"/>
	<path id="Vector" d="M236.87 206.541L170.651 168.316C168.03 166.794 168.03 164.339 170.651 162.828L272.496 104.019C273.968 103.274 275.595 102.886 277.245 102.886C278.895 102.886 280.521 103.274 281.993 104.019L348.212 142.255C350.845 143.777 350.845 146.221 348.212 147.743L246.368 206.541C244.897 207.291 243.27 207.682 241.619 207.682C239.968 207.682 238.341 207.291 236.87 206.541Z" fill="#455A64" fill-opacity="1.000000" fill-rule="nonzero"/>
	<g opacity="0.100000">
		<path id="Vector" d="M335.148 160.418L303.978 198.998L250.534 229.858L250.523 209.285L335.148 160.418Z" fill="#000000" fill-opacity="1.000000" fill-rule="nonzero"/>
	</g>
	<g opacity="0.100000">
		<path id="Vector" d="M330.694 219.56L303.978 255.563L250.534 286.434L250.534 265.85L330.694 219.56Z" fill="#000000" fill-opacity="1.000000" fill-rule="nonzero"/>
	</g>
	<g opacity="0.100000">
		<path id="Vector" d="M330.694 276.136L303.978 312.14L250.534 343.011L250.534 322.426L330.694 276.136Z" fill="#000000" fill-opacity="1.000000" fill-rule="nonzero"/>
	</g>
	<path id="Vector" d="M208.099 388.5L126.162 435.812L33.8931 382.413L115.831 335.112L208.099 388.5Z" fill="#027E83" fill-opacity="1.000000" fill-rule="nonzero"/>
	<g opacity="0.500000">
		<path id="Vector" d="M208.099 388.5L126.162 435.812L33.8931 382.413L115.831 335.112L208.099 388.5Z" fill="#000000" fill-opacity="1.000000" fill-rule="nonzero"/>
	</g>
	<path id="Vector" d="M115.831 270.982L115.831 335.112L33.8931 382.413L33.8931 318.294L115.831 270.982Z" fill="#027E83" fill-opacity="1.000000" fill-rule="nonzero"/>
	<g opacity="0.230000">
		<path id="Vector" d="M115.831 270.982L115.831 335.112L33.8931 382.413L33.8931 318.294L115.831 270.982Z" fill="#000000" fill-opacity="1.000000" fill-rule="nonzero"/>
	</g>
	<path id="Vector" d="M126.162 371.682L126.162 435.812L33.8931 382.413L33.8931 318.294L126.162 371.682Z" fill="#027E83" fill-opacity="1.000000" fill-rule="nonzero"/>
	<g opacity="0.380000">
		<path id="Vector" d="M126.162 371.682L126.162 435.812L33.8931 382.413L33.8931 318.294L126.162 371.682Z" fill="#000000" fill-opacity="1.000000" fill-rule="nonzero"/>
	</g>
	<path id="Vector" d="M208.099 324.37L208.099 388.501L115.83 335.112L115.83 270.982L208.099 324.37Z" fill="#027E83" fill-opacity="1.000000" fill-rule="nonzero"/>
	<g opacity="0.400000">
		<path id="Vector" d="M208.099 324.37L208.099 388.501L115.83 335.112L115.83 270.982L208.099 324.37Z" fill="#000000" fill-opacity="1.000000" fill-rule="nonzero"/>
	</g>
	<path id="Vector" d="M208.099 388.501L208.099 324.37L126.161 371.682L126.161 435.812L208.099 388.501Z" fill="#027E83" fill-opacity="1.000000" fill-rule="nonzero"/>
	<g opacity="0.230000">
		<path id="Vector" d="M208.099 388.501L208.099 324.37L126.161 371.682L126.161 435.812L208.099 388.501Z" fill="#000000" fill-opacity="1.000000" fill-rule="nonzero"/>
	</g>
	<path id="Vector" d="M115.83 270.982L115.941 235.479L207.987 288.934L208.099 324.37L115.83 270.982Z" fill="#027E83" fill-opacity="1.000000" fill-rule="nonzero"/>
	<g opacity="0.200000">
		<path id="Vector" d="M115.83 270.982L115.941 235.479L207.987 288.934L208.099 324.37L115.83 270.982Z" fill="#000000" fill-opacity="1.000000" fill-rule="nonzero"/>
	</g>
	<path id="Vector" d="M126.161 371.682L133.848 340.622L215.042 293.744L208.099 324.37L126.161 371.682Z" fill="#027E83" fill-opacity="1.000000" fill-rule="nonzero"/>
	<g opacity="0.300000">
		<path id="Vector" d="M126.161 371.682L133.848 340.622L215.042 293.744L208.099 324.37L126.161 371.682Z" fill="#000000" fill-opacity="1.000000" fill-rule="nonzero"/>
	</g>
	<path id="Vector" d="M33.8926 318.294L24.1172 286.079L106.055 238.778L115.83 270.982L33.8926 318.294Z" fill="#027E83" fill-opacity="1.000000" fill-rule="nonzero"/>
	<g opacity="0.100000">
		<path id="Vector" d="M33.8926 318.294L24.1172 286.079L106.055 238.778L115.83 270.982L33.8926 318.294Z" fill="#000000" fill-opacity="1.000000" fill-rule="nonzero"/>
	</g>
	<path id="Vector" d="M33.8931 318.294L14.6084 291.666L106.888 345.055L126.162 371.682L33.8931 318.294Z" fill="#027E83" fill-opacity="1.000000" fill-rule="nonzero"/>
	<g opacity="0.450000">
		<path id="Vector" d="M33.8931 318.294L14.6084 291.666L106.888 345.055L126.162 371.682L33.8931 318.294Z" fill="#000000" fill-opacity="1.000000" fill-rule="nonzero"/>
	</g>
	<g opacity="0.700000">
		<path id="Vector" d="M150.289 416.739C150.155 416.739 150.027 416.686 149.931 416.593C149.836 416.5 149.781 416.372 149.778 416.239L149.778 404.952C149.781 404.818 149.835 404.689 149.931 404.594C150.026 404.499 150.154 404.444 150.289 404.441C150.422 404.444 150.549 404.499 150.643 404.595C150.736 404.69 150.789 404.819 150.789 404.952L150.789 416.239C150.789 416.371 150.736 416.499 150.642 416.592C150.548 416.686 150.421 416.739 150.289 416.739Z" fill="#FFFFFF" fill-opacity="1.000000" fill-rule="nonzero"/>
		<path id="Vector" d="M148.812 408.863C148.745 408.873 148.678 408.873 148.611 408.863C148.49 408.807 148.395 408.707 148.345 408.583C148.296 408.459 148.296 408.32 148.345 408.196L150.145 404.053L152.144 406.363C152.216 406.467 152.247 406.593 152.231 406.718C152.215 406.843 152.154 406.957 152.059 407.04C151.964 407.122 151.842 407.167 151.716 407.165C151.591 407.163 151.47 407.115 151.377 407.03L150.433 405.919L149.322 408.585C149.274 408.677 149.2 408.752 149.109 408.802C149.018 408.851 148.915 408.872 148.812 408.863Z" fill="#FFFFFF" fill-opacity="1.000000" fill-rule="nonzero"/>
		<path id="Vector" d="M154.943 414.084C154.81 414.081 154.683 414.026 154.589 413.93C154.496 413.835 154.443 413.706 154.443 413.573L154.443 402.297C154.443 402.165 154.496 402.038 154.59 401.944C154.684 401.85 154.811 401.798 154.943 401.798C155.076 401.798 155.203 401.85 155.297 401.944C155.391 402.038 155.443 402.165 155.443 402.297L155.443 413.562C155.445 413.629 155.433 413.696 155.409 413.758C155.384 413.821 155.348 413.878 155.301 413.926C155.255 413.975 155.199 414.014 155.138 414.041C155.077 414.068 155.01 414.082 154.943 414.084Z" fill="#FFFFFF" fill-opacity="1.000000" fill-rule="nonzero"/>
		<path id="Vector" d="M153.466 406.208C153.399 406.218 153.332 406.218 153.266 406.208C153.205 406.181 153.149 406.143 153.104 406.095C153.058 406.047 153.022 405.99 152.998 405.928C152.974 405.866 152.963 405.8 152.965 405.733C152.967 405.667 152.982 405.602 153.01 405.541L154.799 401.342L156.798 403.642C156.891 403.737 156.942 403.865 156.942 403.997C156.942 404.13 156.891 404.257 156.798 404.353C156.752 404.4 156.696 404.437 156.635 404.462C156.574 404.488 156.509 404.501 156.443 404.501C156.376 404.501 156.311 404.488 156.25 404.462C156.189 404.437 156.134 404.4 156.087 404.353L155.143 403.242L154.032 405.908C153.986 406.015 153.905 406.103 153.802 406.158C153.699 406.212 153.58 406.23 153.466 406.208Z" fill="#FFFFFF" fill-opacity="1.000000" fill-rule="nonzero"/>
	</g>
	<g opacity="0.700000">
		<path id="Vector" d="M136.859 424.393C136.669 424.396 136.481 424.35 136.314 424.259C136.114 424.131 135.951 423.95 135.844 423.737C135.736 423.525 135.688 423.287 135.704 423.049L135.704 421.66C135.707 421.526 135.762 421.399 135.857 421.306C135.953 421.212 136.081 421.16 136.215 421.16C136.347 421.16 136.474 421.213 136.568 421.307C136.662 421.4 136.714 421.527 136.714 421.66L136.714 423.049C136.714 423.249 136.714 423.36 136.814 423.382C136.915 423.404 136.97 423.382 137.137 423.293C137.449 423.004 137.696 422.651 137.858 422.258C138.021 421.865 138.098 421.441 138.081 421.016L138.081 415.239C138.081 415.107 138.133 414.979 138.227 414.886C138.321 414.792 138.448 414.739 138.581 414.739C138.713 414.739 138.84 414.792 138.934 414.886C139.028 414.979 139.081 415.107 139.081 415.239L139.081 421.016C139.105 421.615 138.989 422.213 138.74 422.759C138.491 423.305 138.117 423.785 137.647 424.159C137.41 424.306 137.138 424.387 136.859 424.393Z" fill="#FFFFFF" fill-opacity="1.000000" fill-rule="nonzero"/>
		<path id="Vector" d="M131.56 419.738L131.56 418.872C131.692 416.647 132.342 414.484 133.459 412.555C134.576 410.626 136.128 408.985 137.992 407.763C139.814 406.719 141.547 406.563 142.88 407.341C143.591 407.828 144.158 408.498 144.521 409.28C144.885 410.061 145.031 410.926 144.946 411.784L144.946 412.073L131.56 419.738ZM141.014 407.807C140.124 407.848 139.26 408.116 138.503 408.585C136.906 409.636 135.554 411.018 134.538 412.638C133.522 414.257 132.866 416.077 132.615 417.972L143.913 411.44C143.961 410.797 143.842 410.152 143.568 409.568C143.293 408.984 142.873 408.481 142.347 408.107C141.936 407.892 141.477 407.789 141.014 407.807Z" fill="#FFFFFF" fill-opacity="1.000000" fill-rule="nonzero"/>
	</g>
	<g opacity="0.700000">
		<path id="Vector" d="M14.6084 291.666L106.888 345.055L126.162 371.682L105.866 345.999L14.6084 291.666Z" fill="#FFFFFF" fill-opacity="1.000000" fill-rule="nonzero"/>
	</g>
	<g opacity="0.700000">
		<path id="Vector" d="M208.099 324.37L126.161 371.682L126.161 435.812L127.694 372.971L208.099 324.37Z" fill="#FFFFFF" fill-opacity="1.000000" fill-rule="nonzero"/>
	</g>
	<path id="Vector" d="M87.8589 298.72C96.3125 297.499 104.033 292.055 108.965 285.212C111.265 282.015 112.959 278.423 113.964 274.615C115.031 271.053 115.206 267.284 114.475 263.639C112.953 257.541 107.31 253.93 101.345 253.175C98.3174 252.777 95.2397 253.077 92.3467 254.052C89.3467 255.082 86.7441 257.024 84.9038 259.607C83.75 260.983 83.0239 262.667 82.8154 264.45C82.7979 265.149 83.0439 265.828 83.5054 266.354C83.9663 266.879 84.6084 267.21 85.3037 267.283C87.0923 267.434 88.8799 266.98 90.3804 265.994C92.21 264.968 93.8213 263.595 95.124 261.951C97.918 258.502 100.009 254.54 101.278 250.287C102.168 246.637 102.168 242.827 101.278 239.178C100.602 235.36 98.8564 231.813 96.2456 228.947C93.2529 226.225 89.4546 224.552 85.4258 224.181C81.4165 223.63 77.334 224.011 73.4951 225.292C71.8091 225.803 70.2471 226.658 68.9072 227.803C67.9521 228.691 66.8633 230.158 67.252 231.602C67.6411 233.046 69.7515 233.69 71.1846 233.501C73.3057 233.104 75.248 232.051 76.7388 230.491C78.4004 228.855 79.8115 226.984 80.9268 224.937C81.7559 223.465 82.188 221.804 82.1821 220.116C82.0376 213.073 74.2505 208.518 68.1519 207.229C66.5059 206.885 64.8193 206.773 63.1421 206.896C62.5752 206.896 62.9199 207.829 63.375 207.796C66.6572 207.647 69.9185 208.384 72.8174 209.929C75.6777 211.244 78.0801 213.383 79.7163 216.072C80.4453 217.398 80.8052 218.895 80.7583 220.407C80.7114 221.92 80.2593 223.392 79.4492 224.67C78.3618 226.565 77.0073 228.293 75.4282 229.802C74.106 231.002 72.0957 232.391 70.2402 232.257C69.9341 232.257 69.6343 232.17 69.375 232.007C69.1157 231.844 68.9072 231.611 68.7739 231.335C68.7183 230.971 68.748 230.598 68.8618 230.247C68.9756 229.896 69.1699 229.576 69.4297 229.313C70.4102 228.257 71.6235 227.443 72.9731 226.936C76.3057 225.551 79.9146 224.958 83.5151 225.203C87.2261 225.271 90.835 226.43 93.8906 228.536C96.5527 230.746 98.4434 233.746 99.2896 237.101C100.361 240.509 100.694 244.107 100.267 247.654C99.6074 251.223 98.2358 254.623 96.2349 257.652C94.1797 261.051 91.6025 264.317 87.7363 265.65C86.7812 265.994 84.7817 266.494 84.4038 265.106C84.0264 263.717 85.1147 262.006 85.8149 260.929C87.3623 258.493 89.6187 256.59 92.2798 255.474C94.8481 254.445 97.6206 254.027 100.378 254.252C105.61 254.641 110.92 257.374 112.742 262.573C113.656 265.68 113.755 268.97 113.031 272.126C112.377 275.586 111.134 278.908 109.354 281.946C105.526 288.402 99.7285 293.46 92.813 296.376C91.1689 297.088 89.4805 297.687 87.7588 298.243C87.5811 298.309 87.6587 298.754 87.8589 298.72Z" fill="#E0E0E0" fill-opacity="1.000000" fill-rule="nonzero"/>
	<path id="Vector" d="M52.5444 202.275C48.1011 201.953 41.98 205.452 44.1572 208.007C46.3345 210.562 52.1113 206.43 52.1113 206.43C52.1113 206.43 51.5669 211.595 53.4551 212.184C55.3438 212.773 57.8989 207.841 56.0103 204.686C56.9209 205.045 57.9077 205.168 58.8789 205.043C59.8496 204.919 60.7734 204.552 61.5645 203.975C64.2529 201.997 61.4092 200.131 57.6211 200.464C57.6211 200.464 60.3315 191.577 54.855 193.277C52.1113 194.11 51.1445 197.321 52.5444 202.275Z" fill="#027E83" fill-opacity="1.000000" fill-rule="nonzero"/>
	<g opacity="0.650000">
		<path id="Vector" d="M52.5444 202.275C48.1011 201.953 41.98 205.452 44.1572 208.007C46.3345 210.562 52.1113 206.43 52.1113 206.43C52.1113 206.43 51.5669 211.595 53.4551 212.184C55.3438 212.773 57.8989 207.841 56.0103 204.686C56.9209 205.045 57.9077 205.168 58.8789 205.043C59.8496 204.919 60.7734 204.552 61.5645 203.975C64.2529 201.997 61.4092 200.131 57.6211 200.464C57.6211 200.464 60.3315 191.577 54.855 193.277C52.1113 194.11 51.1445 197.321 52.5444 202.275Z" fill="#FFFFFF" fill-opacity="1.000000" fill-rule="nonzero"/>
	</g>
	<path id="Vector" d="M56.6768 204.164C56.4312 203.923 56.1714 203.697 55.8994 203.486C55.5103 203.186 55.0996 202.897 54.7104 202.608C54.332 202.333 53.9351 202.084 53.522 201.864C53.2842 201.732 53.0396 201.614 52.7886 201.509C52.4424 201.346 52.0576 201.284 51.6777 201.331C51.5786 201.334 51.4814 201.363 51.3975 201.416C51.313 201.469 51.2446 201.544 51.1992 201.633C51.1538 201.721 51.1333 201.82 51.1392 201.92C51.145 202.019 51.1777 202.115 51.2334 202.197C51.5391 202.528 51.9204 202.78 52.3442 202.931L52.9443 203.253C53.3555 203.497 53.7222 203.775 54.0552 204.052C54.3887 204.33 54.833 204.597 55.166 204.875C55.7393 205.339 56.3799 205.714 57.0654 205.985C57.0962 206.002 57.1309 206.01 57.1655 206.01C57.2007 206.01 57.2349 206.002 57.2656 205.985C57.832 205.541 56.999 204.486 56.6768 204.164Z" fill="#455A64" fill-opacity="1.000000" fill-rule="nonzero"/>
	<path id="Vector" d="M410.832 80.0686C405.978 86.6005 399.479 122.515 397.023 134.035C385.215 133.69 369.419 133.135 363.442 132.513C356.777 131.813 342.547 130.446 335.56 131.402C318.219 133.624 318.896 145.021 319.318 147.998C319.774 151.397 322.207 152.953 331.538 150.831C333.626 150.372 335.755 150.123 337.893 150.087C338.792 150.087 340.691 149.631 341.402 150.398C342.514 151.508 339.303 153.375 338.503 153.886C337.271 154.686 335.981 155.696 335.727 157.141C335.653 157.405 335.657 157.684 335.737 157.946C335.818 158.208 335.973 158.441 336.182 158.618C336.634 158.803 337.141 158.803 337.593 158.618C341.852 157.607 345.96 156.042 349.812 153.963C351.265 153.088 352.792 152.344 354.378 151.742C356.788 150.964 359.276 151.42 361.698 151.42C366.908 151.42 394.446 154.152 406.688 155.396C415.164 156.252 416.064 147.887 418.985 139.411C422.573 128.902 431.072 73.6367 431.072 73.6367C422.496 72.3926 416.608 72.3148 410.832 80.0686Z" fill="#FFA8A7" fill-opacity="1.000000" fill-rule="nonzero"/>
	<path id="Vector" d="M431.206 72.7701C427.106 72.0148 417.875 70.8706 412.854 76.4805C407.833 82.0903 406.645 87.9779 404.434 96.4761C402.223 104.974 398.302 120.193 398.302 120.193C398.302 120.193 404.778 129.491 425.052 126.858L431.206 72.7701Z" fill="#37474F" fill-opacity="1.000000" fill-rule="nonzero"/>
	<path id="Vector" d="M482.116 366.505L467.863 366.516L463.765 335.579L481.75 334.868L482.116 366.505Z" fill="#FFA8A7" fill-opacity="1.000000" fill-rule="nonzero"/>
	<path id="Vector" d="M434.794 351.053C432.372 355.264 424.585 354.919 418.131 353.431L417.387 323.015L436.438 322.26L434.794 351.053Z" fill="#FFA8A7" fill-opacity="1.000000" fill-rule="nonzero"/>
	<path id="Vector" d="M481.15 171.015C481.661 184.179 479.917 262.017 479.917 262.017C480.395 265.794 484.305 272.382 485.116 286.012C486.305 305.808 482.272 348.021 482.272 348.021C482.272 348.021 474.107 352.286 465.309 349.02C465.309 349.02 456.355 287.923 453.09 268.394C450.268 251.397 446.646 205.807 446.646 205.807L439.614 264.239C440.904 271.156 441.437 278.192 441.203 285.223C440.914 294.31 435.738 338.434 435.738 338.434C429.832 340.366 423.488 340.516 417.497 338.867C417.497 338.867 413.254 270.393 412.765 262.095C412.21 252.63 412.587 169.082 412.587 169.082L481.15 171.015Z" fill="#027E83" fill-opacity="1.000000" fill-rule="nonzero"/>
	<g opacity="0.200000">
		<path id="Vector" d="M446.668 205.83C446.668 205.83 434.216 202.297 425.729 194.721C425.729 194.721 429.705 201.508 440.97 207.529L440.325 258.529L446.668 205.83Z" fill="#000000" fill-opacity="1.000000" fill-rule="nonzero"/>
	</g>
	<path id="Vector" d="M451.623 392.311C451.168 392.777 451.435 395.854 451.989 396.654C452.545 397.454 455.944 400.165 461.843 400.365C467.476 400.542 472.452 399.587 475.662 397.365C478.873 395.144 480.384 392.777 480.572 389.589C480.761 386.401 480.283 383.302 481.683 380.78C483.005 378.458 485.149 375.803 485.582 374.548C486.549 371.827 485.371 368.038 485.371 368.038L451.623 392.311Z" fill="#263238" fill-opacity="1.000000" fill-rule="nonzero"/>
	<path id="Vector" d="M465.842 363.795C465.85 365.01 465.677 366.219 465.331 367.383C464.125 371.171 462.313 374.739 459.966 377.947C458.344 380.025 456.3 381.769 454.578 383.779C452.735 385.686 451.605 388.169 451.379 390.811C451.312 395.255 456.155 396.532 459.854 397.043C463.864 397.572 467.942 397.192 471.785 395.932C473.81 395.322 475.614 394.14 476.982 392.528C478.35 390.915 479.223 388.942 479.495 386.845C479.65 385.612 479.494 384.368 479.628 383.135C480.004 380.303 481.077 377.609 482.749 375.292C483.718 373.952 484.544 372.515 485.216 371.004C486.249 368.227 485.216 365.195 484.371 362.517C483.649 360.196 482.827 357.563 482.017 357.818C482.017 359.052 482.017 359.163 481.228 360.04C480.117 361.151 480.172 362.695 479.006 363.662C479.343 362.636 479.574 361.579 479.694 360.507C479.749 360.069 479.643 359.627 479.395 359.263C478.993 358.937 478.521 358.708 478.018 358.596C476.261 358.077 474.455 357.738 472.63 357.585C470.892 357.357 469.128 357.413 467.408 357.752C466.9 357.87 466.446 358.155 466.12 358.563C465.834 359.018 465.69 359.548 465.709 360.085C465.709 360.807 465.831 362.617 465.842 363.795Z" fill="#455A64" fill-opacity="1.000000" fill-rule="nonzero"/>
	<path id="Vector" d="M461.621 375.492C463.221 374.204 466.887 374.037 468.908 374.182C470.957 374.274 472.948 374.886 474.696 375.959C474.954 376.131 475.265 376.205 475.572 376.169C475.88 376.132 476.164 375.987 476.374 375.759C476.496 375.629 476.59 375.475 476.646 375.306C476.704 375.137 476.724 374.957 476.704 374.78C476.686 374.602 476.628 374.431 476.536 374.278C476.445 374.125 476.321 373.993 476.174 373.893C474.243 372.584 471.983 371.845 469.653 371.76C464.698 371.615 463.288 372.515 463.288 372.515C463.288 372.515 461.077 374.048 461.621 375.492Z" fill="#F5F5F5" fill-opacity="1.000000" fill-rule="nonzero"/>
	<path id="Vector" d="M458.021 380.158C460.032 378.858 464.087 378.869 466.098 379.047C468.112 379.175 470.059 379.83 471.74 380.947C471.996 381.118 472.306 381.192 472.61 381.155C472.916 381.119 473.199 380.974 473.407 380.747C473.532 380.619 473.628 380.465 473.687 380.296C473.746 380.127 473.767 379.948 473.749 379.77C473.731 379.592 473.674 379.42 473.582 379.266C473.49 379.112 473.366 378.981 473.218 378.88C471.256 377.504 468.946 376.703 466.553 376.57C461.587 376.414 460.343 377.47 460.343 377.47C459.779 377.714 459.277 378.083 458.875 378.549C458.473 379.014 458.182 379.564 458.021 380.158Z" fill="#F5F5F5" fill-opacity="1.000000" fill-rule="nonzero"/>
	<path id="Vector" d="M471.43 366.961C469.333 366.675 467.197 366.935 465.231 367.716C464.387 368.238 463.864 369.638 464.432 369.938C466.152 369.165 468.037 368.829 469.919 368.961C471.778 369.07 473.604 369.498 475.317 370.227C475.751 370.394 476.262 370.638 476.706 370.86C476.849 370.933 477.004 370.976 477.163 370.987C477.323 370.997 477.482 370.976 477.634 370.923C477.784 370.87 477.922 370.786 478.04 370.678C478.157 370.57 478.252 370.439 478.317 370.294C478.422 370.041 478.431 369.759 478.341 369.5C478.25 369.242 478.067 369.026 477.828 368.894C475.859 367.797 473.677 367.138 471.43 366.961Z" fill="#F5F5F5" fill-opacity="1.000000" fill-rule="nonzero"/>
	<path id="Vector" d="M385.561 370.027C385.056 371.297 385.056 372.712 385.561 373.982C386.049 375.17 391.937 378.858 400.112 378.703C406.192 378.555 412.122 376.783 417.286 373.571C420.497 371.66 423.752 371.427 427.795 371.349C431.839 371.271 437.237 369.549 438.215 367.705C439.192 365.861 438.326 362.562 438.326 362.562L385.561 370.027Z" fill="#263238" fill-opacity="1.000000" fill-rule="nonzero"/>
	<path id="Vector" d="M419.664 346.143L419.03 345.977C418.671 345.868 418.293 345.834 417.92 345.877C417.52 345.973 417.158 346.19 416.887 346.499C416.046 347.484 415.302 348.548 414.665 349.676C412.832 352.375 409.11 354.519 405.111 356.441C402.379 357.741 399.724 358.729 396.913 359.829C394.103 360.929 390.248 361.551 388.026 362.929C384.693 364.939 384.061 370.327 387.593 372.637C390.659 374.637 398.835 377.025 407.589 374.981C412.376 373.871 417.864 369.072 424.085 368.883C428.051 368.761 435.561 368.005 438.237 365.128C439.248 363.851 438.237 359.574 437.338 355.886C436.404 351.864 436.826 345.888 435.027 345.888L434.916 347.899C434.749 348.498 433.339 349.087 432.895 349.554L431.295 351.242C430.639 352.024 429.84 352.673 428.939 353.153C427.351 353.864 425.496 353.442 423.796 352.997C423.729 352.997 424.651 349.909 424.752 349.609C424.852 349.375 424.883 349.116 424.841 348.865C424.755 348.619 424.586 348.41 424.362 348.276C422.96 347.249 421.36 346.522 419.664 346.143Z" fill="#455A64" fill-opacity="1.000000" fill-rule="nonzero"/>
	<path id="Vector" d="M408.91 354.464C409.221 353.935 409.659 353.492 410.186 353.176C410.711 352.859 411.308 352.68 411.921 352.653C413.731 352.409 416.831 353.875 418.73 355.597C418.909 355.758 419.046 355.961 419.129 356.187C419.212 356.414 419.238 356.657 419.205 356.896C419.172 357.135 419.081 357.362 418.94 357.557C418.8 357.753 418.613 357.911 418.396 358.018C418.126 358.153 417.82 358.199 417.521 358.151C417.223 358.104 416.946 357.964 416.73 357.752C414.65 355.68 411.846 354.501 408.91 354.464Z" fill="#F5F5F5" fill-opacity="1.000000" fill-rule="nonzero"/>
	<path id="Vector" d="M403.2 357.319C403.616 356.786 404.155 356.362 404.77 356.082C405.385 355.802 406.058 355.673 406.732 355.708C406.732 355.708 411.421 356.063 414.187 358.907C414.357 359.063 414.488 359.258 414.567 359.475C414.646 359.693 414.672 359.926 414.641 360.155C414.61 360.384 414.524 360.603 414.392 360.792C414.258 360.98 414.081 361.134 413.876 361.24C413.613 361.368 413.318 361.412 413.03 361.366C412.742 361.32 412.475 361.187 412.265 360.985C411.127 359.732 409.721 358.751 408.151 358.117C406.582 357.482 404.89 357.209 403.2 357.319Z" fill="#F5F5F5" fill-opacity="1.000000" fill-rule="nonzero"/>
	<path id="Vector" d="M396.924 359.829C397.396 359.341 397.968 358.96 398.601 358.712C399.233 358.465 399.911 358.357 400.59 358.396C403.245 358.689 405.741 359.813 407.722 361.607C407.893 361.764 408.022 361.959 408.102 362.177C408.181 362.396 408.206 362.63 408.176 362.859C408.145 363.089 408.06 363.309 407.926 363.499C407.793 363.688 407.616 363.844 407.41 363.951C407.147 364.08 406.851 364.124 406.562 364.076C406.273 364.029 406.007 363.891 405.8 363.684C404.722 362.396 403.357 361.377 401.817 360.708C400.276 360.039 398.601 359.738 396.924 359.829Z" fill="#F5F5F5" fill-opacity="1.000000" fill-rule="nonzero"/>
	<path id="Vector" d="M454.955 73.0146C460.198 73.6145 466.397 73.9366 471.407 74.5922C477.861 75.4364 482.894 82.1127 484.471 92.4437C486.204 103.819 478.917 136.434 478.917 136.434L481.238 174.892C471.785 181.857 431.527 185.512 411.465 171.026C411.465 171.026 411.932 105.574 413.498 95.4875C415.652 81.6572 419.052 73.0702 434.604 72.0815L454.955 73.0146Z" fill="#455A64" fill-opacity="1.000000" fill-rule="nonzero"/>
	<path id="Vector" d="M490.804 156.33C489.104 159.173 487.394 162.017 485.638 164.828C484.994 165.872 484.339 166.905 483.661 167.927C483.293 168.427 482.864 168.879 482.383 169.271C481.539 169.849 479.784 169.482 478.762 169.516C473.74 169.686 468.734 170.056 463.743 170.626C463.325 170.613 462.91 170.692 462.526 170.857C462.142 171.022 461.799 171.27 461.521 171.582C461.316 172.012 461.275 172.502 461.406 172.96C461.537 173.419 461.831 173.813 462.232 174.07C463.05 174.561 463.979 174.836 464.932 174.87L469.264 175.381C469.882 175.402 470.482 175.594 470.997 175.936C472.574 177.214 469.563 178.747 468.664 179.369C466.854 180.626 464.923 181.698 462.898 182.568C453.867 186.367 452.768 189.122 454.434 192.255C455.878 194.977 462.121 204.874 477.984 196.354C484.372 192.922 494.092 182.079 498.524 176.836C504.9 169.271 515.688 152.397 515.688 152.397C521.819 143.977 522.607 140.522 522.752 137.023C522.896 133.523 503.867 106.607 497.402 97.1537C490.937 87.7003 487.859 76.2028 471.408 74.6254C471.408 74.6254 465.143 94.4877 475.519 107.34L499.479 140.766C499.479 140.766 493.137 152.43 490.804 156.33Z" fill="#FFA8A7" fill-opacity="1.000000" fill-rule="nonzero"/>
	<path id="Vector" d="M508.188 109.973C505.111 105.53 501.901 100.953 498.802 96.4205C485.749 77.3693 486.849 73.8811 468.03 73.6145C466.364 76.1694 465.376 87.1671 467.887 98.2091C469.986 107.485 477.884 114.028 477.884 114.028L487.305 126.792C487.305 126.792 493.069 126.614 499.979 121.548C503.97 118.753 506.87 114.663 508.188 109.973Z" fill="#37474F" fill-opacity="1.000000" fill-rule="nonzero"/>
	<path id="Vector" d="M467.364 22.9479C466.418 21.5382 465.107 20.4116 463.571 19.6877C462.036 18.964 460.333 18.6702 458.644 18.8376L457.666 42.688L456.066 51.4971L456.344 61.306C457.272 61.1748 458.153 60.8104 458.902 60.2472C459.652 59.6838 460.247 58.9398 460.632 58.0846C462.099 55.2629 466.187 41.6216 466.187 41.6216C469.853 30.4128 469.074 25.3473 467.364 22.9479Z" fill="#263238" fill-opacity="1.000000" fill-rule="nonzero"/>
	<path id="Vector" d="M456.555 42.7991C456.967 41.3495 457.762 40.0374 458.854 38.9999C460.221 37.5336 465.664 35.9449 468.142 40.5662C470.618 45.1874 466.441 51.286 463.22 53.1523C459.099 55.5518 456.677 52.2859 456.677 52.2859L456.777 74.2477C454.855 78.6912 446.18 82.6458 441.014 82.0237C436.903 81.5016 433.115 78.269 436.793 73.559L436.492 67.2936C436.492 67.2936 430.994 68.4045 428.272 68.1268C423.751 67.6603 420.74 64.2499 419.141 59.4509C416.563 51.7415 415.42 45.4762 416.508 30.0129C417.708 13.0723 437.292 11.9281 448.212 18.0601C459.132 24.192 456.555 42.7991 456.555 42.7991Z" fill="#FFA8A7" fill-opacity="1.000000" fill-rule="nonzero"/>
	<path id="Vector" d="M410.276 12.4169C409.776 8.71765 411.054 4.75183 414.931 3.44104C416.354 2.84595 417.915 2.66467 419.437 2.91821C420.958 3.17163 422.376 3.84973 423.529 4.87402C424.015 3.56897 424.855 2.42542 425.956 1.57178C427.056 0.718018 428.372 0.18811 429.757 0.041626C431.143 -0.10498 432.54 0.137573 433.795 0.742065C435.05 1.34656 436.11 2.28882 436.859 3.46326C437.889 1.89917 439.479 0.789795 441.303 0.363892C442.427 0.112915 443.59 0.0897217 444.724 0.295776C445.856 0.501831 446.938 0.932983 447.901 1.56372C449.479 2.7301 451.334 4.89624 450.867 7.70679C453.989 6.45154 457.244 7.49573 459.565 10.2506C460.947 11.9377 461.729 14.0361 461.787 16.2161C461.867 17.3483 461.705 18.4845 461.31 19.5486C460.865 20.5594 459.954 21.2261 459.688 22.3702C459.3 23.377 459.101 24.4463 459.099 25.525C459.354 27.3914 459.766 29.2576 460.01 31.0793C460.272 32.8939 460.425 34.7229 460.465 36.556C460.407 36.9871 460.257 37.4006 460.025 37.7687C459.793 38.1367 459.485 38.4506 459.121 38.6888C458.084 39.5958 457.28 40.7388 456.777 42.0215C456.389 42.8213 456.011 44.7986 455.244 45.354C452.878 47.0093 452.611 41.6549 452.5 40.6217C452.348 38.2506 452.348 35.8722 452.5 33.5011C451.307 33.4857 450.13 33.2207 449.045 32.7233C447.961 32.226 446.992 31.507 446.201 30.6128C445.382 29.608 444.842 28.4049 444.636 27.1248C444.507 26.3912 444.448 25.6475 444.458 24.903C442.913 27.458 439.325 28.5022 436.771 28.2356C432.482 27.8468 431.005 26.0138 430.316 24.6697C430.045 25.9946 429.463 27.236 428.616 28.2911C427.521 29.3204 426.202 30.0811 424.762 30.5128C423.521 30.8442 422.212 30.8311 420.977 30.4749C419.741 30.1187 418.627 29.4329 417.752 28.4911C416.009 30.9905 411.587 29.8796 410.609 29.1798C408.388 27.5691 407.666 25.6472 407.421 22.9034C407.177 20.1595 408.288 17.027 411.332 15.9495C410.783 14.8398 410.426 13.6455 410.276 12.4169Z" fill="#263238" fill-opacity="1.000000" fill-rule="nonzero"/>
	<path id="Vector" d="M436.493 67.2604C436.493 67.2604 446.424 64.7498 449.823 62.7058C451.834 61.5286 453.441 59.7704 454.434 57.6625C454.005 59.7418 453.162 61.7136 451.956 63.4612C449.557 66.8716 436.604 69.9375 436.604 69.9375L436.493 67.2604Z" fill="#F28F8F" fill-opacity="1.000000" fill-rule="nonzero"/>
	<path id="Vector" d="M437.049 42.0658C437.086 42.4867 437.246 42.8871 437.51 43.2175C437.773 43.5479 438.128 43.7937 438.529 43.9242C438.931 44.0547 439.362 44.0643 439.77 43.9517C440.177 43.8391 440.542 43.6094 440.819 43.291C441.097 42.9725 441.275 42.5796 441.331 42.1609C441.388 41.7422 441.319 41.3163 441.135 40.9359C440.951 40.5557 440.659 40.2379 440.296 40.022C439.934 39.8062 439.515 39.7018 439.093 39.7219C438.513 39.7675 437.975 40.0385 437.592 40.4766C437.21 40.9148 437.015 41.4854 437.049 42.0658Z" fill="#263238" fill-opacity="1.000000" fill-rule="nonzero"/>
	<path id="Vector" d="M433.727 58.1401C433.777 58.6821 433.986 59.1971 434.328 59.6213C434.669 60.0455 435.127 60.3601 435.646 60.526C436.164 60.6919 436.72 60.7018 437.244 60.5544C437.768 60.407 438.237 60.1089 438.593 59.6971C438.949 59.2854 439.176 58.7781 439.246 58.2382C439.316 57.6984 439.226 57.1499 438.986 56.6609C438.748 56.172 438.37 55.764 437.901 55.4878C437.432 55.2117 436.892 55.0793 436.349 55.1074C435.601 55.1671 434.906 55.5188 434.416 56.0863C433.925 56.6538 433.678 57.3916 433.727 58.1401Z" fill="#F28F8F" fill-opacity="1.000000" fill-rule="nonzero"/>
	<path id="Vector" d="M438.837 34.6675L443.414 36.8893C443.699 36.262 443.732 35.5491 443.507 34.8979C443.281 34.2467 442.814 33.7069 442.203 33.39C441.899 33.2449 441.569 33.1627 441.233 33.1488C440.896 33.1348 440.562 33.1891 440.246 33.3085C439.932 33.428 439.645 33.61 439.402 33.8435C439.16 34.0771 438.968 34.3574 438.837 34.6675Z" fill="#263238" fill-opacity="1.000000" fill-rule="nonzero"/>
	<path id="Vector" d="M418.931 36.5894L422.83 33.2567C422.626 32.9908 422.371 32.7694 422.079 32.606C421.787 32.4424 421.465 32.3403 421.132 32.306C420.799 32.2717 420.462 32.3058 420.143 32.4062C419.823 32.5067 419.528 32.6714 419.275 32.8901C418.755 33.3453 418.43 33.9828 418.365 34.671C418.301 35.3593 418.504 36.0459 418.931 36.5894Z" fill="#263238" fill-opacity="1.000000" fill-rule="nonzero"/>
	<path id="Vector" d="M420.097 41.6327C420.123 42.0436 420.271 42.4374 420.521 42.7646C420.771 43.0918 421.112 43.3378 421.502 43.4717C421.891 43.6055 422.312 43.6212 422.71 43.5168C423.108 43.4125 423.467 43.1926 423.74 42.8851C424.014 42.5775 424.19 42.1958 424.248 41.788C424.306 41.3802 424.241 40.9646 424.063 40.5933C423.885 40.222 423.602 39.9116 423.247 39.7013C422.894 39.491 422.485 39.3899 422.073 39.4109C421.519 39.4481 421 39.7018 420.631 40.1173C420.261 40.5328 420.069 41.077 420.097 41.6327Z" fill="#263238" fill-opacity="1.000000" fill-rule="nonzero"/>
	<path id="Vector" d="M430.405 39.1665L430.339 52.3081L423.385 50.3085L430.405 39.1665Z" fill="#F28F8F" fill-opacity="1.000000" fill-rule="nonzero"/>
	<path id="Vector" d="M412.954 57.5513C413.019 57.537 413.079 57.51 413.132 57.4719C413.186 57.4337 413.23 57.3851 413.265 57.3291C413.305 57.2742 413.332 57.2119 413.348 57.1459C413.362 57.0798 413.363 57.0116 413.351 56.9451C413.338 56.8787 413.312 56.8154 413.274 56.7592C413.237 56.703 413.188 56.655 413.132 56.6182L407.089 52.5968C407.032 52.5593 406.97 52.5333 406.903 52.5204C406.837 52.5073 406.77 52.5076 406.703 52.521C406.637 52.5344 406.574 52.5608 406.519 52.5985C406.463 52.6364 406.415 52.6848 406.378 52.7412C406.339 52.7968 406.312 52.8597 406.298 52.9261C406.284 52.9927 406.283 53.0613 406.297 53.1277C406.311 53.1942 406.338 53.2573 406.376 53.3131C406.415 53.3689 406.465 53.4163 406.522 53.4521L412.554 57.4735C412.611 57.5151 412.676 57.5437 412.745 57.5571C412.814 57.5707 412.886 57.5686 412.954 57.5513Z" fill="#E0E0E0" fill-opacity="1.000000" fill-rule="nonzero"/>
	<path id="Vector" d="M412.31 60.1508C412.403 60.1274 412.489 60.0789 412.558 60.0104C412.626 59.9419 412.675 59.856 412.698 59.762C412.728 59.6281 412.704 59.4875 412.631 59.3712C412.559 59.2548 412.442 59.1716 412.31 59.1399L405.244 57.507C405.179 57.4904 405.11 57.4871 405.043 57.4972C404.977 57.5072 404.912 57.5305 404.854 57.5657C404.796 57.6008 404.746 57.6471 404.706 57.7019C404.666 57.7566 404.638 57.8187 404.622 57.8846C404.592 58.0187 404.616 58.1591 404.688 58.2755C404.762 58.3918 404.877 58.475 405.011 58.5067L412.076 60.1508C412.153 60.1619 412.231 60.1619 412.31 60.1508Z" fill="#E0E0E0" fill-opacity="1.000000" fill-rule="nonzero"/>
	<path id="Vector" d="M405.744 64.8497L405.811 64.8497L412.62 62.3613C412.749 62.3142 412.853 62.2181 412.91 62.0941C412.968 61.9702 412.973 61.8286 412.926 61.7004C412.879 61.5723 412.782 61.468 412.659 61.4108C412.535 61.3535 412.394 61.3478 412.265 61.3949L405.455 63.8833C405.392 63.9067 405.333 63.9426 405.283 63.989C405.233 64.0354 405.193 64.0913 405.165 64.1534C405.137 64.2155 405.122 64.2826 405.12 64.3506C405.118 64.4187 405.131 64.4865 405.155 64.5498C405.202 64.6614 405.287 64.7528 405.395 64.8077C405.503 64.8627 405.626 64.8776 405.744 64.8497Z" fill="#E0E0E0" fill-opacity="1.000000" fill-rule="nonzero"/>
	<path id="Vector" d="M348.135 118.138C348.275 118.42 348.495 118.654 348.768 118.812C349.04 118.971 349.353 119.045 349.667 119.028C349.981 119.01 350.284 118.9 350.537 118.713C350.79 118.525 350.982 118.267 351.09 117.971L356.155 105.474C356.238 105.274 356.278 105.059 356.276 104.842C356.273 104.626 356.227 104.412 356.14 104.214C356.053 104.016 355.927 103.837 355.769 103.689C355.61 103.54 355.425 103.425 355.222 103.351C355.018 103.276 354.802 103.243 354.585 103.254C354.369 103.264 354.157 103.319 353.963 103.413C353.768 103.508 353.594 103.641 353.451 103.804C353.31 103.967 353.201 104.157 353.134 104.363L348.058 116.86C347.982 117.067 347.95 117.287 347.964 117.507C347.978 117.727 348.035 117.942 348.135 118.138Z" fill="#E0E0E0" fill-opacity="1.000000" fill-rule="nonzero"/>
	<path id="Vector" d="M339.792 118.071C339.953 118.399 340.222 118.661 340.553 118.817C340.883 118.972 341.257 119.01 341.612 118.924C341.967 118.839 342.283 118.636 342.507 118.347C342.731 118.059 342.852 117.703 342.847 117.338L342.68 101.786C342.646 101.383 342.463 101.008 342.166 100.734C341.868 100.461 341.479 100.309 341.075 100.309C340.671 100.309 340.281 100.461 339.984 100.734C339.687 101.008 339.503 101.383 339.47 101.786L339.625 117.338C339.622 117.592 339.68 117.843 339.792 118.071Z" fill="#E0E0E0" fill-opacity="1.000000" fill-rule="nonzero"/>
	<path id="Vector" d="M325.65 109.418L325.751 109.607L333.404 120.715C333.642 121.067 334.008 121.311 334.424 121.394C334.84 121.477 335.271 121.393 335.626 121.16C335.972 120.917 336.209 120.55 336.29 120.136C336.371 119.722 336.288 119.292 336.06 118.938L328.405 107.829C328.183 107.485 327.836 107.239 327.437 107.143C327.038 107.047 326.617 107.108 326.262 107.313C325.906 107.519 325.644 107.853 325.528 108.247C325.412 108.641 325.452 109.064 325.64 109.429L325.65 109.418Z" fill="#E0E0E0" fill-opacity="1.000000" fill-rule="nonzero"/>
</svg>
